<?xml version="1.0" standalone="no"?>
<!DOCTYPE svg PUBLIC "-//W3C//DTD SVG 1.1//EN" "http://www.w3.org/Graphics/SVG/1.1/DTD/svg11.dtd" >
<svg xmlns="http://www.w3.org/2000/svg">
<metadata>Generated by IcoMoon</metadata>
<defs>
<font id="icomoon" horiz-adv-x="1024">
<font-face units-per-em="1024" ascent="960" descent="-64" />
<missing-glyph horiz-adv-x="1024" />
<glyph unicode="&#x20;" horiz-adv-x="512" d="" />
<glyph unicode="&#xe900;" glyph-name="bf-icon-alm" d="M108.373-61.867h807.253c11.947 0 21.333 9.387 21.333 21.333v616.107h63.573c11.947 0 21.333 9.387 21.333 21.333 0 1.28 0 2.987-0.427 4.267l-42.667 212.48c-2.133 9.813-10.667 17.067-20.907 17.067h-324.693l-105.387 119.893c-7.68 8.96-21.333 9.813-30.293 1.707-0.853-0.427-1.28-1.28-1.707-1.707l-104.96-120.32h-325.12c-10.24 0-18.773-7.253-20.907-17.067l-42.667-212.48c-2.56-11.52 5.12-22.613 16.64-25.173 1.28-0.427 2.987-0.427 4.267-0.427h63.573v-615.68c0.427-11.947 9.813-21.333 21.76-21.333zM894.293-19.2h-764.587v594.773h764.587v-594.773zM940.8 788.053l34.133-169.813h-292.693v148.48c0 5.12-1.707 10.24-5.12 14.080l-6.4 7.253h270.080zM512 904.533l127.573-145.493v-140.8h-255.147v140.8l30.72 35.413 0.853 0.853 96 109.227zM83.2 788.053h270.507l-6.4-7.253c-3.413-3.84-5.547-8.96-5.12-14.080v-148.907h-292.693l33.707 170.24zM278.187 405.333h-21.333v64c0 11.947-9.387 21.333-21.333 21.333s-21.333-9.387-21.333-21.333v-64h-21.333c-11.947 0-21.333-9.387-21.333-21.333s9.387-21.333 21.333-21.333h85.333c11.947 0 21.333 9.387 21.333 21.333s-9.387 21.333-21.333 21.333zM278.187 65.707h-21.333v63.573c0 11.947-9.387 21.333-21.333 21.333s-21.333-9.387-21.333-21.333v-63.573h-21.333c-11.947 0-21.333-9.387-21.333-21.333s9.387-21.333 21.333-21.333h85.333c11.947 0 21.333 9.387 21.333 21.333s-9.387 21.333-21.333 21.333zM278.187 235.52h-21.333v63.573c0 11.947-9.387 21.333-21.333 21.333s-21.333-9.387-21.333-21.333v-63.573h-21.333c-11.947 0-21.333-9.387-21.333-21.333s9.387-21.333 21.333-21.333h85.333c11.947 0 21.333 9.387 21.333 21.333s-9.387 21.333-21.333 21.333v0zM639.573 405.333v64c0 11.947-9.387 21.333-21.333 21.333s-21.333-9.387-21.333-21.333v-64h-21.333c-11.947 0-21.333-9.387-21.333-21.333s9.387-21.333 21.333-21.333h84.907c11.947 0 21.333 9.387 21.333 21.333s-9.387 21.333-21.333 21.333h-20.907zM660.907 65.707h-21.333v63.573c0 11.947-9.387 21.333-21.333 21.333s-21.333-9.387-21.333-21.333v-63.573h-21.333c-11.947 0-21.333-9.387-21.333-21.333s9.387-21.333 21.333-21.333h84.907c11.947 0 21.333 9.387 21.333 21.333s-9.813 21.333-20.907 21.333v0zM660.907 235.52h-21.333v63.573c0 11.947-9.387 21.333-21.333 21.333s-21.333-9.387-21.333-21.333v-63.573h-21.333c-11.947 0-21.333-9.387-21.333-21.333s9.387-21.333 21.333-21.333h84.907c11.947 0 21.333 9.387 21.333 21.333s-9.813 21.333-20.907 21.333v0zM448.427 405.333h-21.333v64c0 11.947-9.387 21.333-21.333 21.333s-21.333-9.387-21.333-21.333v-64h-21.333c-11.947 0-21.333-9.387-21.333-21.333s9.387-21.333 21.333-21.333h84.907c11.947 0 21.333 9.387 21.333 21.333s-9.813 21.333-20.907 21.333v0zM448.427 65.707h-21.333v63.573c0 11.947-9.387 21.333-21.333 21.333s-21.333-9.387-21.333-21.333v-63.573h-21.333c-11.947 0-21.333-9.387-21.333-21.333s9.387-21.333 21.333-21.333h84.907c11.947 0 21.333 9.387 21.333 21.333s-9.813 21.333-20.907 21.333v0zM448.427 235.52h-21.333v63.573c0 11.947-9.387 21.333-21.333 21.333s-21.333-9.387-21.333-21.333v-63.573h-21.333c-11.947 0-21.333-9.387-21.333-21.333s9.387-21.333 21.333-21.333h84.907c11.947 0 21.333 9.387 21.333 21.333s-9.813 21.333-20.907 21.333v0zM745.813 363.093h84.907c11.947 0 21.333 9.387 21.333 21.333s-9.387 21.333-21.333 21.333h-21.333v63.573c0 11.947-9.387 21.333-21.333 21.333s-21.333-9.387-21.333-21.333v-64h-21.333c-11.947 0-21.333-9.387-21.333-21.333s9.387-21.333 21.76-20.907v0zM745.813 23.040h84.907c11.947 0 21.333 9.387 21.333 21.333s-9.387 21.333-21.333 21.333h-21.333v63.573c0 11.947-9.387 21.333-21.333 21.333s-21.333-9.387-21.333-21.333v-63.573h-21.333c-11.947 0-21.333-9.387-21.333-21.333s9.387-21.333 21.76-21.333v0zM745.813 192.853h84.907c11.947 0 21.333 9.387 21.333 21.333s-9.387 21.333-21.333 21.333h-21.333v63.573c0 11.947-9.387 21.333-21.333 21.333s-21.333-9.387-21.333-21.333v-63.573h-21.333c-11.947 0-21.333-9.387-21.333-21.333s9.387-21.333 21.76-21.333v0zM512 660.48c46.933 0 84.907 37.973 84.907 84.907s-37.973 84.907-84.907 84.907c-46.933 0-84.907-37.973-84.907-84.48-0.427-47.36 37.547-85.333 84.907-85.333 0 0 0 0 0 0zM512 787.627c23.467 0 42.667-19.2 42.667-42.667s-19.2-42.667-42.667-42.667-42.667 19.2-42.667 42.667c0 23.893 18.773 42.667 42.667 42.667 0 0.427 0 0.427 0 0v0z" />
<glyph unicode="&#xe901;" glyph-name="bf-icon-amex" d="M324.267 494.080v-155.861c-34.432 0-66.261-1.621-97.707 1.109-8.192 0.725-18.176 13.867-22.016 23.467-7.595 19.029-17.92 28.885-39.595 25.813-5.914-0.815-12.748-1.28-19.691-1.28s-13.777 0.465-20.473 1.366l0.782-0.086c-30.293 3.755-50.176-3.627-60.843-36.523-9.728-29.867-37.504-5.589-62.677-18.944 10.795 25.813 17.707 42.88 25.088 59.733 21.333 48.981 43.691 97.536 63.744 147.029 6.869 17.067 15.744 23.424 33.28 21.333 4.65-0.601 10.029-0.944 15.488-0.944s10.838 0.343 16.116 1.009l-0.628-0.065c14.72 1.749 21.333-4.907 26.837-17.835 23.765-55.296 48.427-109.952 72.96-164.693 3.48-9.077 9.383-16.575 16.92-21.917l0.147-0.099v204.075c25.856 0 49.237 1.493 72.235-0.811 7.595-0.768 17.067-9.899 20.779-17.579 20.096-41.984 38.699-84.693 60.288-132.651 20.48 45.44 39.936 85.333 56.448 126.549 8.021 20.139 19.328 26.965 40.149 24.917 18.475-1.792 37.291-0.341 57.643-0.341v-220.587h-51.627v148.651l-5.888 2.261c-4.267-9.045-9.003-18.005-13.269-27.136-16.213-34.859-34.133-69.12-47.787-104.917-7.467-19.371-18.987-21.333-36.267-21.333s-26.923 2.901-34.133 20.48c-18.731 46.336-40.107 91.605-60.416 137.259zM135.637 516.693l-32.384-79.659h66.816c-11.264 26.027-21.461 49.707-34.347 79.659zM617.728 338.133v222.123c69.973 0 139.136 0.384 208.299-0.597 6.656 0 14.251-7.509 19.584-13.227 16-17.067 31.104-35.029 48.512-54.869 36.736 32.555 59.349 92.331 127.744 64l-92.971-103.296c31.104-37.077 61.397-73.216 91.904-109.525-70.528-27.947-91.136 34.432-126.763 66.475-3.243-1.451-5.589-1.749-6.315-2.987-36.181-59.733-89.003-77.952-156.715-68.821-36.651 4.779-74.496 0.725-113.28 0.725zM668.928 383.787c41.387 0 80.555-0.341 119.68 0.384 6.603 0.617 12.415 3.588 16.673 8.053l0.010 0.011c17.835 18.944 34.773 38.699 53.376 59.733-10.197 11.52-18.987 22.4-28.715 32.299s-20.821 27.392-32.341 28.288c-42.453 3.413-85.333 1.365-127.189 1.365v-44.587h119.467v-40.917h-120.917z" />
<glyph unicode="&#xe902;" glyph-name="bf-icon-baby" d="M1020.587 394.667c0 33.28-10.24 60.16-30.72 79.787-27.307 26.027-64.427 30.72-79.787 31.147-32.427 117.76-116.053 219.733-235.093 271.787-0.853 23.040-6.827 66.56-37.12 99.413-25.6 28.16-62.293 42.24-109.227 42.24-49.493 0-87.467-14.507-113.493-42.667-25.6-28.16-32-62.72-33.707-83.2-120.747-37.973-218.453-129.707-264.533-248.32-5.12-13.227-9.387-26.88-13.227-40.107-18.347-2.133-46.933-8.96-69.12-30.293-20.48-19.627-30.72-46.507-30.72-79.787s10.24-60.16 30.72-79.787c22.187-21.333 51.2-28.16 69.547-30.293 34.133-123.307 124.16-229.973 253.013-279.467 49.067-19.2 99.84-28.16 149.76-28.16 167.68 0 326.4 101.973 390.4 267.52 5.12 12.8 9.387 26.027 12.8 38.827 15.36 0.853 52.48 5.12 79.787 31.147 20.48 20.053 30.72 46.933 30.72 80.213zM63.573 345.6c-11.947 11.52-17.493 27.733-17.493 49.067s5.547 37.547 17.493 49.067c8.96 8.533 20.053 13.227 30.293 16.213-6.827-43.947-6.4-87.893 0.427-130.56-10.24 2.56-21.76 7.68-30.72 16.213zM857.173 259.84c-74.667-193.28-292.267-289.707-485.12-215.040-193.28 74.667-290.133 292.267-215.467 485.12 42.667 110.507 136.107 194.987 250.453 226.56 0.853 0 2.133 0.427 2.987 0.853 0.853 0 1.28 0.427 2.133 0.427v0.427c7.68 3.84 12.8 11.947 11.947 20.907 0 0.427-2.987 40.96 23.040 69.12 17.493 18.773 44.8 28.587 81.493 28.587 34.133 0 60.16-9.387 77.653-28.16 29.867-32 26.027-82.773 26.027-83.2v-1.707c0-3.84-1.707-92.16-78.080-92.16-33.707 0-57.6 14.080-62.293 37.12-5.12 23.893 12.8 48.213 44.8 62.293 10.667 4.693 15.787 17.067 11.093 28.16-4.693 10.667-17.067 15.787-28.16 11.093-42.24-18.347-80.213-59.307-69.547-110.080 8.96-43.093 49.92-71.253 104.107-71.253 48.64 0 86.187 24.747 105.813 69.12 5.12 11.947 8.533 23.893 11.093 34.133 173.653-83.627 256.853-289.28 186.027-472.32zM960.427 345.6c-12.373-11.947-28.587-16.64-40.533-18.347 7.253 45.227 7.253 90.88 0 134.827 11.947-1.707 28.587-6.4 40.533-18.347 11.947-11.52 17.493-27.307 17.493-49.067 0-21.333-5.547-37.547-17.493-49.067zM449.28 430.933c8.533 8.533 8.533 21.76 0 30.293-39.68 39.68-79.787 57.173-119.040 52.907-55.893-5.973-87.467-54.613-88.747-56.747-6.4-9.813-3.413-23.040 6.4-29.44 3.413-2.133 7.68-3.413 11.52-3.413 6.827 0 14.080 3.413 17.92 9.813 0 0.427 22.187 33.28 57.6 37.12 26.027 2.987 54.613-11.093 84.48-40.96 8.107-8.107 21.76-8.107 29.867 0.427zM650.24 514.133c-55.893-5.973-87.467-54.613-88.747-56.747-6.4-9.813-3.413-23.040 6.4-29.44 3.413-2.133 7.68-3.413 11.52-3.413 6.827 0 14.080 3.413 17.92 9.813 0.427 0.427 22.187 33.28 57.6 37.12 26.027 2.987 54.613-11.093 84.48-40.96 8.533-8.533 21.76-8.533 30.293 0s8.533 21.76 0 30.293c-39.68 39.68-79.787 57.6-119.467 53.333zM626.347 264.96c-6.827-2.987-14.080-5.973-21.333-8.96-13.227 42.24-53.333 72.96-99.84 72.107-46.080-0.853-84.907-32.427-96.427-75.093-5.973 2.987-11.947 6.4-17.493 9.813-9.813 6.4-23.040 3.84-29.44-5.547-6.4-9.813-3.84-23.040 5.547-29.44 11.947-8.107 25.173-14.933 38.827-20.053 7.68-49.067 50.773-86.613 101.547-86.613 52.053 0.427 95.147 40.107 101.12 90.88 11.947 4.267 23.893 8.96 34.987 14.080 10.667 4.693 15.787 17.493 10.667 28.16s-17.493 15.36-28.16 10.667zM507.307 163.84c-32.853 0-59.733 26.88-60.16 59.307 0 0 0 0 0 0s0 0 0 0v0.853c-0.427 32.853 25.6 60.587 58.453 61.013 33.28 0.853 60.587-25.6 61.013-58.453v-2.987c0-32.427-26.88-59.307-59.307-59.733z" />
<glyph unicode="&#xe903;" glyph-name="bf-icon-balcony" d="M997.973 140.8h-12.373v375.467h17.067c11.947 0 21.333 9.387 21.333 21.333s-9.387 21.333-21.333 21.333h-200.533v283.733c0 17.493-14.507 32-32 32h-516.267c-17.493 0-32-14.080-32-32 0 0 0 0 0 0v-283.733h-200.533c-11.947 0-21.333-9.387-21.333-21.333s9.387-21.333 21.333-21.333h12.8v-375.467h-8.107c-14.080 0-26.027-11.52-26.027-26.027v-67.84c0-14.080 11.52-26.027 26.027-26.027h972.373c14.080 0 26.027 11.52 26.027 26.027v67.84c-0.427 14.507-11.947 26.027-26.453 26.027zM894.72 516.267h48.213v-375.467h-48.213v375.467zM803.84 516.267h48.213v-375.467h-48.213v375.467zM264.533 832h494.933v-273.067h-46.933v189.867c0 17.493-14.507 32-32 32h-337.067c-17.493 0-32-14.080-32-32 0 0 0 0 0 0v-189.867h-46.933v273.067zM761.173 516.267v-375.467h-48.213v375.467h48.213zM531.2 558.933v179.2h138.667v-179.2h-138.667zM579.413 516.267v-375.467h-48.213v375.467h48.213zM622.080 516.267h48.213v-375.467h-48.213v375.467zM354.133 558.933v179.2h134.4v-179.2h-134.4zM488.533 516.267v-375.467h-48.213v375.467h48.213zM397.653 516.267v-375.467h-48.213v375.467h48.213zM258.56 516.267h48.213v-375.467h-48.213v375.467zM167.68 516.267h48.213v-375.467h-48.213v375.467zM76.8 516.267h48.213v-375.467h-48.213v375.467zM981.333 64h-938.667v34.133h938.667v-34.133z" />
<glyph unicode="&#xe904;" glyph-name="bf-icon-bank-transfer" d="M844.8 570.027h0.427c7.253 0 12.8 5.547 13.227 12.373 0 5.973-3.84 11.093-9.387 12.8l-294.4 153.173c-3.84 2.133-8.107 2.133-11.947 0l-295.253-154.453c-6.4-3.413-8.533-11.093-5.12-17.493 2.133-4.267 6.4-6.827 11.093-6.827h64.427v-308.48h-10.667c-3.413 0-6.4-1.28-8.96-3.413l-53.76-51.627c-5.12-5.12-5.12-13.227-0.427-18.347 2.56-2.56 5.973-3.84 9.387-3.84h591.36c7.253 0 12.8 5.973 12.8 12.8 0 3.413-1.28 6.827-3.84 9.387l-53.76 51.627c-2.56 2.133-5.547 3.413-8.96 3.413h-10.667v308.907h64.427zM549.12 722.347l243.2-127.147h-486.4l243.2 127.147zM600.747 261.12v308.907h76.8v-308.48l-76.8-0.427zM420.693 261.12v308.907h76.8v-308.48l-76.8-0.427zM523.52 570.027h51.627v-308.48h-51.627v308.48zM343.467 570.027h51.627v-308.48h-51.627v308.48zM812.8 209.92h-527.36l26.88 25.6h473.6l26.88-25.6zM754.773 261.12h-51.627v308.907h51.627v-308.907zM6.827 91.733c-6.827-5.973-7.68-16.213-1.707-23.040 0.427-0.427 0.853-1.28 1.707-1.707l159.573-127.573c6.827-5.547 17.067-4.267 22.187 2.56 2.133 2.987 3.413 6.4 3.413 9.813v52.907l240.64 26.88c8.107 0.853 14.080 7.68 14.080 15.787v63.573c0 8.107-5.973 14.933-14.080 15.787l-240.64 26.88v52.907c0 8.96-7.253 15.787-15.787 15.787-3.413 0-7.253-1.28-9.813-3.413l-159.573-127.147zM160.427 139.52c0-8.107 5.973-14.933 14.080-15.787l240.64-26.88v-34.987l-240.64-26.88c-8.107-0.853-14.080-7.68-14.080-15.787v-34.133l-118.187 94.293 117.76 94.293v-34.133zM839.68 674.987c5.547-2.56 11.947-1.707 16.64 1.707l159.147 127.573c3.84 2.987 5.973 7.68 5.973 12.373s-2.133 9.387-5.973 12.373l-159.147 127.573c-6.827 5.547-17.067 4.267-22.187-2.56-2.133-2.987-3.413-6.4-3.413-9.813v-52.907l-240.64-26.88c-8.107-0.853-14.080-7.68-14.080-15.787v-63.573c0-8.107 5.973-14.933 14.080-15.787l240.64-26.88v-52.907c0-6.4 3.413-11.947 8.96-14.507zM862.293 756.48c0 8.107-5.973 14.933-14.080 15.787l-240.64 26.88v34.987l240.64 26.88c8.107 0.853 14.080 7.68 14.080 15.787v34.133l117.76-94.293-117.76-94.293v34.133z" />
<glyph unicode="&#xe905;" glyph-name="bf-icon-barrow" d="M639.573 341.76c-1.28-107.093 84.48-194.56 191.573-195.84s194.56 84.48 195.84 191.573-84.48 194.56-191.573 195.84c-44.8 0.427-88.32-14.507-123.307-42.667l-24.32 24.32 241.493 193.28c8.96 7.253 10.667 20.907 2.987 29.867-3.84 5.12-10.24 8.107-16.64 8.107h-722.773c-11.947 0-21.333-9.387-21.333-21.333v-33.707l-48.64 48.64c-3.84 3.84-9.387 5.973-14.933 5.973h-85.333c-11.947 0-21.333-9.387-21.333-21.333s9.387-21.333 21.333-21.333h76.373l72.533-72.533v-161.28c0-50.773 35.84-94.293 85.333-104.107v-193.707c0-9.387 6.4-17.92 15.787-20.48 1.707-0.427 3.84-0.853 5.547-0.853 7.68 0 14.507 3.84 18.347 10.24l121.173 202.667h43.093c24.32 0 47.787 8.107 66.56 23.467l127.147 101.973 27.307-27.733c-26.88-33.707-41.813-75.947-42.24-119.040zM299.093 248.32v114.773h68.693l-68.693-114.773zM500.907 419.413c-11.52-8.96-25.173-14.080-39.68-14.080h-183.467c-35.413 0-64 28.587-64 64v234.24h641.707l-354.56-284.16zM936.533 447.147c58.027-58.027 58.027-152.32 0-210.773 0 0 0 0 0 0-56.32-56.32-154.453-56.32-210.773 0-58.027 58.027-58.027 152.32 0 210.773s152.747 58.027 210.773 0v0zM831.147 277.76c35.413 0 63.573 28.587 63.573 64s-28.587 63.573-64 63.573c-35.413 0-63.573-28.587-63.573-64 0-17.067 6.827-33.28 18.773-44.8 11.947-11.947 28.587-18.773 45.227-18.773zM816.213 356.693c8.107 8.107 21.76 8.107 29.867 0 8.107-8.533 8.107-21.76-0.427-30.293-3.84-3.84-9.387-5.973-14.933-5.973s-11.093 2.133-14.933 6.4c-8.107 8.107-8.107 21.333 0.427 29.867v0z" />
<glyph unicode="&#xe906;" glyph-name="bf-icon-basquet-add" d="M42.667 448h24.576l82.347-494.165c1.739-10.182 10.498-17.835 21.044-17.835 0.012 0 0.023 0 0.035 0h682.665c10.542 0.005 19.296 7.656 21.017 17.708l0.018 0.126 82.389 494.165h24.576c11.782 0 21.333 9.551 21.333 21.333v0 128c0 11.782-9.551 21.333-21.333 21.333v0h-181.803l-183.467 330.368c-3.718 6.6-10.68 10.985-18.667 10.985-11.793 0-21.353-9.56-21.353-21.353 0-3.806 0.996-7.38 2.741-10.475l-0.055 0.107 171.947-309.632h-477.355l172.032 309.632c1.69 2.988 2.686 6.562 2.686 10.368 0 11.793-9.56 21.353-21.353 21.353-7.986 0-14.949-4.385-18.611-10.878l-0.055-0.107-183.552-330.368h-181.803c-11.782 0-21.333-9.551-21.333-21.333v0-128c0-11.782 9.551-21.333 21.333-21.333v0zM835.243-21.333h-646.485l-78.251 469.333h802.987zM64 576h136.747l-6.059-10.965c-1.692-2.988-2.689-6.562-2.689-10.368 0-7.976 4.377-14.929 10.86-18.59l0.107-0.055c2.987-1.691 6.56-2.688 10.366-2.688 0.001 0 0.001 0 0.002 0v0c0.013 0 0.028 0 0.044 0 7.975 0 14.929 4.376 18.589 10.859l0.055 0.106 17.579 31.701h524.8l17.621-31.701c3.716-6.589 10.669-10.965 18.644-10.965 0 0 0.001 0 0.001 0v0c0 0 0.001 0 0.002 0 3.806 0 7.379 0.997 10.473 2.743l-0.107-0.055c6.589 3.716 10.966 10.669 10.966 18.645 0 3.807-0.997 7.381-2.744 10.475l0.055-0.106-5.845 10.965h136.533v-85.333h-896zM341.333 192h149.333v-149.333c0-11.782 9.551-21.333 21.333-21.333s21.333 9.551 21.333 21.333v0 149.333h149.333c11.782 0 21.333 9.551 21.333 21.333s-9.551 21.333-21.333 21.333v0h-149.333v149.333c0 11.782-9.551 21.333-21.333 21.333s-21.333-9.551-21.333-21.333v0-149.333h-149.333c-11.782 0-21.333-9.551-21.333-21.333s9.551-21.333 21.333-21.333v0z" />
<glyph unicode="&#xe907;" glyph-name="bf-icon-basquet-remove" d="M42.667 448h24.576l82.347-494.165c1.739-10.182 10.498-17.835 21.044-17.835 0.012 0 0.023 0 0.035 0h682.665c10.542 0.005 19.296 7.656 21.017 17.708l0.018 0.126 82.389 494.165h24.576c11.782 0 21.333 9.551 21.333 21.333v0 128c0 11.782-9.551 21.333-21.333 21.333v0h-181.803l-183.467 330.325c-3.716 6.589-10.669 10.966-18.645 10.966-11.782 0-21.334-9.552-21.334-21.334 0-3.807 0.997-7.38 2.744-10.475l-0.055 0.107 172.16-309.589h-477.653l172.032 309.589c1.692 2.988 2.689 6.561 2.689 10.368 0 11.782-9.552 21.334-21.334 21.334-7.976 0-14.929-4.377-18.59-10.86l-0.055-0.107-183.552-330.325h-181.803c-11.782 0-21.333-9.551-21.333-21.333v0-128c0-11.782 9.551-21.333 21.333-21.333v0zM835.285-21.333h-646.571l-78.208 469.333h802.987zM64 576h136.789l-6.101-10.965c-1.692-2.988-2.689-6.562-2.689-10.368 0-7.976 4.377-14.929 10.86-18.59l0.107-0.055c2.987-1.691 6.56-2.688 10.366-2.688 0.001 0 0.001 0 0.002 0v0c0.013 0 0.028 0 0.044 0 7.975 0 14.929 4.376 18.589 10.859l0.055 0.106 17.579 31.701h524.8l17.621-31.701c3.716-6.589 10.669-10.965 18.644-10.965 0 0 0.001 0 0.001 0v0c0.017 0 0.038 0 0.059 0 3.772 0 7.312 0.997 10.369 2.742l-0.103-0.054c6.589 3.716 10.966 10.669 10.966 18.645 0 3.807-0.997 7.381-2.744 10.475l0.055-0.106-6.059 10.965h136.789v-85.333h-896zM326.229 27.563c3.862-3.872 9.203-6.267 15.104-6.267s11.242 2.396 15.104 6.267v0l155.563 155.563 155.563-155.563c3.864-3.869 9.204-6.263 15.104-6.263 11.789 0 21.345 9.557 21.345 21.345 0 5.889-2.385 11.221-6.241 15.083v0l-155.605 155.605 155.563 155.563c3.705 3.832 5.989 9.060 5.989 14.821 0 11.782-9.551 21.333-21.333 21.333-5.761 0-10.988-2.283-14.827-5.994l-155.557-155.557-155.563 155.563c-3.885 4.018-9.323 6.513-15.345 6.513-11.782 0-21.333-9.551-21.333-21.333 0-6.021 2.495-11.46 6.507-15.339l155.569-155.569-155.563-155.563c-3.885-3.865-6.289-9.214-6.289-15.125 0-5.89 2.387-11.222 6.246-15.083v0z" />
<glyph unicode="&#xe908;" glyph-name="bf-icon-bathrobe" d="M89.173 304.213c3.413-3.84 8.107-5.547 13.227-5.547h128.853l-34.56-273.067c-2.56-23.040 11.52-44.373 33.707-50.773 96-25.6 194.56-38.827 293.547-38.827 83.2 0 175.787 9.813 267.947 38.4 22.187 6.827 35.84 29.44 32 52.053l-46.933 272.213h142.933c10.24 0 18.347 8.107 18.347 18.347 0 0.427 0 0.853 0 1.28-22.187 287.573-133.547 561.493-134.827 564.053-0.853 2.133-2.133 4.267-3.84 5.973-1.707 4.693-3.84 8.96-6.4 12.8-8.533 12.8-22.187 21.333-37.12 23.893l-190.72 32.427c-33.28 5.547-67.413 5.973-101.12 0.427l-131.84-21.76-68.267-11.52c-22.613-3.84-40.533-20.907-45.653-43.52-8.107-20.053-113.067-285.013-133.973-563.2-0.427-4.693 1.28-9.813 4.693-13.653zM781.227 8.96c-235.947-72.96-473.6-17.92-541.013 0.853-4.693 1.28-7.68 5.973-7.253 10.667l64 505.6c2.987-0.853 5.973-1.707 8.96-2.133l154.453-24.32c15.787-2.56 32-3.413 47.787-3.413h4.267c-19.2-37.973-43.52-115.627-52.48-273.067-0.427-10.24 7.253-18.773 17.067-19.2 0 0 0 0 0 0h0.853c9.813 0 17.493 7.68 18.347 17.067 5.12 92.587 16.213 165.973 32.853 218.88 4.267 14.933 10.24 29.44 17.493 43.093 25.173-45.227 48.213-134.4 55.893-169.813 1.707-8.533 9.387-14.507 17.92-14.507 1.28 0 2.56 0 3.84 0.427 9.813 2.133 16.213 11.52 14.080 21.333-2.987 14.080-27.307 124.16-61.44 182.613l116.48 20.907c2.56 0.427 4.693 0.853 6.827 1.707l87.467-505.6c1.28-4.693-1.28-9.387-6.4-11.093v0zM899.84 334.933h-129.28l-37.12 214.613c0 0.853-0.427 1.707-0.853 2.133 2.56 4.693 4.693 10.24 5.973 15.787l52.48 243.2c32.427-91.307 90.88-278.613 108.8-475.733v0zM762.88 880.64c2.987-4.267 3.84-9.813 2.987-15.36l-62.293-287.573c-63.147 47.36-115.627 90.027-158.72 128 106.24 91.307 132.693 162.133 139.093 194.133l65.707-11.093c5.547-0.427 10.24-3.413 13.227-8.107zM470.187 922.027c29.44 5.12 59.307 4.693 88.747-0.427l89.173-15.36c-5.12-24.747-28.587-88.747-130.56-175.787-93.013 86.187-135.68 145.067-153.6 174.080l106.24 17.493zM270.080 888.747l55.467 8.96c20.907-37.973 98.56-154.88 345.173-340.907l-114.773-20.48c-29.44-5.12-59.733-5.547-89.6-0.853l-154.88 24.747c-8.533 1.28-15.36 8.107-16.64 16.64l-41.387 289.28c-0.427 2.133-0.427 3.84 0 5.973v0c1.28 8.533 8.107 14.933 16.64 16.64v0zM226.56 797.867l32.853-226.133c0.853-5.973 2.56-11.947 5.547-17.493-0.853-1.707-1.28-3.413-1.707-5.12l-27.307-213.76h-113.493c17.067 187.733 71.253 367.36 104.107 462.507z" />
<glyph unicode="&#xe909;" glyph-name="bf-icon-bell-active-solid" d="M968.533 135.211l-113.579 119.467q-29.867 35.84-29.867 67.712v251.136q0 119.467-93.653 213.333c-37.009 37.155-84.474 63.87-137.608 75.36l-1.827 0.331v11.947c0.007 0.386 0.010 0.842 0.010 1.298 0 23.472-9.949 44.62-25.861 59.458l-0.048 0.044c-15.216 15.363-36.315 24.875-59.636 24.875-0.034 0-0.068 0-0.102 0h0.005c-0.467 0.009-1.019 0.015-1.571 0.015-23.182 0-44.14-9.525-59.172-24.875l-0.014-0.014c-15.39-15.024-24.934-35.976-24.934-59.158 0-0.578 0.006-1.154 0.018-1.728l-0.001 0.086v-11.947c-65.999-21.694-121.058-61.673-160.819-113.924l-0.589-0.807c-39.739-50.086-63.753-114.214-63.753-183.95 0-0.805 0.003-1.609 0.010-2.413l-0.001 0.123v-238.933c0.006-0.394 0.009-0.86 0.009-1.326 0-27.624-11.443-52.575-29.848-70.371l-0.027-0.026-113.536-119.467q-19.925-16-5.973-41.856 7.936-25.899 39.851-25.899h258.987q11.989-53.76 58.752-90.624c28.421-22.97 64.998-36.874 104.821-36.874 0.649 0 1.297 0.004 1.944 0.011l-0.099-0.001c0.81-0.015 1.765-0.023 2.723-0.023 38.715 0 74.272 13.523 102.204 36.104l-0.308-0.241c28.882 23.010 50.229 54.366 60.455 90.4l0.303 1.248h258.987c0.651-0.033 1.414-0.051 2.182-0.051 18.176 0 33.911 10.456 41.516 25.682l0.121 0.268q13.824 25.6-10.069 45.611zM510.293 914.176q41.856 0 41.856-43.819v-3.968c-9.014 2.56-19.366 4.032-30.062 4.032-1.342 0-2.678-0.023-4.009-0.069l0.193 0.005h-49.792q0 43.776 41.813 43.819zM382.805 689.067c-18.122-16.058-32.381-36.058-41.484-58.685l-0.372-1.048q-17.92-27.904-17.92-67.712 0-21.973-21.888-21.931c-13.312 0-19.925 8.533-19.925 25.899-0.001 0.254-0.002 0.555-0.002 0.855 0 29.829 5.846 58.292 16.455 84.307l-0.538-1.493q25.856 49.749 51.797 69.675c21.572 20.032 46.591 36.745 74 49.093l1.734 0.699q23.851 6.016 29.867-11.947 5.931-23.851-11.947-29.867c-23.319-8.682-43.25-21.561-59.796-37.865l0.020 0.020zM510.293-22.144q-89.6 0-119.467 85.632h238.933q-29.824-85.717-119.467-85.632zM169.259 904.235q13.909-13.952 0-29.867-123.733-123.733-123.52-300.8 0-21.973-19.925-21.931-21.931 0-21.931 21.931 0 199.168 135.467 330.709 15.915 15.829 29.909-0.043zM229.035 846.421q13.909-15.915 0-29.867-97.664-107.605-97.621-243.2c0-14.635-7.339-21.931-21.931-21.931-13.312 0.171-19.883 7.509-19.883 22.101q0 159.36 109.568 273.067 15.872 13.781 29.867-0.171zM870.4 704.981q-27.776 65.792-75.605 105.685-13.952 15.957 0 29.867 13.952 15.915 29.867 0 50.005-45.909 83.712-121.6c18.887-41.468 29.895-89.937 29.895-140.976 0-1.558-0.010-3.114-0.031-4.668l0.002 0.236q0-21.973-19.925-21.931c-14.635 0-21.888 7.296-21.888 21.931 0.012 1.022 0.018 2.23 0.018 3.44 0 46.242-9.58 90.246-26.863 130.137l0.818-2.12zM989.867 752.811c21.438-52.682 33.879-113.801 33.879-177.826 0-0.483-0.001-0.966-0.002-1.449v0.075q0-21.973-21.931-21.931-19.925 0-19.925 21.931 0 63.744-29.867 161.365-25.899 63.744-93.653 139.435-13.952 15.915 0 29.867 13.952 15.872 29.867 0c39.509-43.695 73.432-93.547 99.957-147.683l1.675-3.784z" />
<glyph unicode="&#xe90a;" glyph-name="bf-icon-bell-solid" d="M968.533 135.211l-113.579 119.467q-29.867 35.84-29.867 67.712v251.136q0 119.467-93.653 213.333c-37.009 37.155-84.474 63.87-137.608 75.36l-1.827 0.331v11.947c0.007 0.386 0.010 0.842 0.010 1.298 0 23.472-9.949 44.62-25.861 59.458l-0.048 0.044c-15.216 15.363-36.315 24.875-59.636 24.875-0.034 0-0.068 0-0.102 0h0.005c-0.467 0.009-1.019 0.015-1.571 0.015-23.182 0-44.14-9.525-59.172-24.875l-0.014-0.014c-15.39-15.024-24.934-35.976-24.934-59.158 0-0.578 0.006-1.154 0.018-1.728l-0.001 0.086v-11.947c-65.999-21.694-121.058-61.673-160.819-113.924l-0.589-0.807c-39.739-50.086-63.753-114.214-63.753-183.95 0-0.805 0.003-1.609 0.010-2.413l-0.001 0.123v-238.933c0.006-0.394 0.009-0.86 0.009-1.326 0-27.624-11.443-52.575-29.848-70.371l-0.027-0.026-113.536-119.467q-19.925-16-5.973-41.856 7.936-25.899 39.851-25.899h258.987q11.989-53.76 58.752-90.624c28.421-22.97 64.998-36.874 104.821-36.874 0.649 0 1.297 0.004 1.944 0.011l-0.099-0.001c0.81-0.015 1.765-0.023 2.723-0.023 38.715 0 74.272 13.523 102.204 36.104l-0.308-0.241c28.882 23.010 50.229 54.366 60.455 90.4l0.303 1.248h258.987c0.651-0.033 1.414-0.051 2.182-0.051 18.176 0 33.911 10.456 41.516 25.682l0.121 0.268q13.824 25.6-10.069 45.611zM510.293 914.176q41.856 0 41.856-43.819v-3.968c-9.014 2.56-19.366 4.032-30.062 4.032-1.342 0-2.678-0.023-4.009-0.069l0.193 0.005h-49.792q0 43.776 41.813 43.819zM382.805 689.067c-18.122-16.058-32.381-36.058-41.484-58.685l-0.372-1.048q-17.92-27.904-17.92-67.712 0-21.973-21.888-21.931c-13.312 0-19.925 8.533-19.925 25.899-0.001 0.254-0.002 0.555-0.002 0.855 0 29.829 5.846 58.292 16.455 84.307l-0.538-1.493q25.856 49.749 51.797 69.675c21.572 20.032 46.591 36.745 74 49.093l1.734 0.699q23.851 6.016 29.867-11.947 5.931-23.851-11.947-29.867c-23.319-8.682-43.25-21.561-59.796-37.865l0.020 0.020zM510.293-22.144q-89.6 0-119.467 85.632h238.933q-29.824-85.717-119.467-85.632z" />
<glyph unicode="&#xe90b;" glyph-name="bf-icon-bolt-solid" d="M789.333 530.133q-6.016 12.032-22.016 12.032h-200.533l128.256 388.651q2.005 5.931-4.011 22.016 0.171 8.021-18.005 8.021h-234.411q-13.995 0-22.016-17.92l-184.32-558.933q-1.963-6.016 4.011-22.016 12.032-8.021 18.048-8.021h204.331l-42.069-392.533q0-20.011 18.005-26.027h8.021c0.167-0.004 0.363-0.006 0.56-0.006 9.051 0 16.989 4.769 21.437 11.931l0.062 0.107 324.651 560.683q5.888 5.931 0 22.016z" />
<glyph unicode="&#xe90c;" glyph-name="bf-icon-box-open" d="M-1.749 578.048c1.375-7.336 6.185-13.315 12.661-16.284l0.139-0.057 76.16-33.835v-348.117c0-0.010 0-0.023 0-0.035 0-8.345 4.581-15.621 11.366-19.448l0.112-0.058 402.304-223.531c3.151-1.766 6.914-2.809 10.921-2.816h0.002c3.994 0.003 7.743 1.046 10.993 2.874l-0.113-0.058 0.427 0.256 401.877 223.275c6.919 3.869 11.52 11.149 11.52 19.505 0 0.013 0 0.026 0 0.039v-0.002 348.117l76.16 33.835c7.887 3.569 13.275 11.37 13.275 20.43 0 6.188-2.514 11.789-6.576 15.837l-73.516 73.558 73.771 73.6c4.044 4.052 6.545 9.646 6.545 15.823 0 9.055-5.373 16.855-13.104 20.386l-0.14 0.057-402.56 178.603c-2.731 1.274-5.928 2.018-9.3 2.018-6.052 0-11.545-2.396-15.582-6.291l0.007 0.006-73.6-73.728-73.6 73.728c-4.030 3.888-9.523 6.284-15.575 6.284-3.371 0-6.569-0.743-9.438-2.075l0.139 0.058-402.389-178.603c-7.935-3.563-13.362-11.395-13.362-20.496 0-6.152 2.48-11.724 6.494-15.772l-0.002 0.002 73.771-73.6-73.771-73.557c-3.965-4.051-6.412-9.602-6.412-15.724 0-1.486 0.144-2.938 0.419-4.344l-0.023 0.142zM131.968 507.989l281.6-125.141c2.668-1.212 5.787-1.918 9.070-1.918 6.168 0 11.755 2.493 15.805 6.527l51.199 51.199v-444.416l-357.675 198.699zM512 825.941l347.349-154.411-347.349-154.368-347.349 154.368zM892.032 192.896l-357.675-198.699v444.501l51.2-51.2c4.050-4.033 9.636-6.526 15.805-6.526 3.283 0 6.401 0.706 9.211 1.975l-0.141-0.057 281.6 125.141zM606.165 429.952l-55.467 55.467 358.4 159.403 55.467-55.467zM606.165 913.152l358.4-159.403-55.467-55.467-358.229 159.317zM417.664 913.067l55.467-55.467-358.571-159.403-55.467 55.467zM114.731 644.821l358.4-159.403-55.467-55.467-358.656 159.36z" />
<glyph unicode="&#xe90d;" glyph-name="bf-icon-box" d="M15.317 620.373l31.616-9.429v-456.747c0-0.001 0-0.002 0-0.003 0-9.919 5.907-18.458 14.395-22.292l0.154-0.062 440.576-195.84c2.926-1.322 6.344-2.093 9.941-2.093s7.015 0.77 10.097 2.155l-0.156-0.063 440.661 195.84c8.642 3.896 14.549 12.435 14.549 22.354 0 0.001 0 0.002 0 0.003v0 456.533l31.531 9.429c10.155 3.124 17.408 12.421 17.408 23.412 0 0.019 0 0.038 0 0.057v-0.003 147.072c-0.087 4.945-1.672 9.502-4.317 13.259l0.050-0.075c-0.469 0.725-0.853 1.408-1.408 2.176-2.825 3.43-6.501 6.062-10.708 7.583l-0.172 0.054c-0.299 0-0.427 0.427-0.768 0.512l-489.728 146.901c-2.101 0.649-4.516 1.024-7.019 1.024s-4.918-0.374-7.193-1.069l0.174 0.046-489.643-146.901c-0.341 0-0.469-0.469-0.768-0.597-4.407-1.51-8.099-4.156-10.844-7.591l-0.036-0.047c-0.503-0.613-0.982-1.296-1.408-2.014l-0.042-0.077c-2.595-3.682-4.179-8.239-4.266-13.163v-146.88c0-0.024 0-0.052 0-0.080 0-10.96 7.212-20.236 17.15-23.34l0.173-0.047zM487.509 529.835l-440.576 132.224v95.744l440.661-132.267zM95.829 596.224l391.68-117.504v-482.688l-391.68 174.080zM928.171 170.112l-391.68-174.080v482.688l391.68 117.504zM536.491 529.835v95.787l440.576 132.181v-95.744zM512 912.043l404.437-121.344-404.437-121.301-404.437 121.301z" />
<glyph unicode="&#xe90e;" glyph-name="bf-icon-building" d="M363.52 724.48c11.947 0 21.333 9.387 21.333 21.333v21.333h21.333c11.947 0 21.333 9.387 21.333 21.333s-9.387 21.333-21.333 21.333h-42.667c-11.947 0-21.333-9.387-21.333-21.333v-42.667c0-11.947 9.387-21.333 21.333-21.333zM490.667 724.48c11.947 0 21.333 9.387 21.333 21.333v21.333h21.333c11.947 0 21.333 9.387 21.333 21.333s-9.387 21.333-21.333 21.333h-42.667c-11.947 0-21.333-9.387-21.333-21.333v-42.667c0-11.947 9.387-21.333 21.333-21.333zM618.24 724.48c11.947 0 21.333 9.387 21.333 21.333v21.333h21.333c11.947 0 21.333 9.387 21.333 21.333s-9.387 21.333-21.333 21.333h-42.667c-11.947 0-21.333-9.387-21.333-21.333v-42.667c0-11.947 9.387-21.333 21.333-21.333zM363.52 596.48c11.947 0 21.333 9.387 21.333 21.333v20.907h21.333c11.947 0 21.333 9.387 21.333 21.333s-9.387 21.333-21.333 21.333h-42.667c-11.947 0-21.333-9.387-21.333-21.333v-42.667c0-11.52 9.387-20.907 21.333-20.907zM490.667 596.48c11.947 0 21.333 9.387 21.333 21.333v20.907h21.333c11.947 0 21.333 9.387 21.333 21.333s-9.387 21.333-21.333 21.333h-42.667c-11.947 0-21.333-9.387-21.333-21.333v-42.667c0.427-11.52 9.813-20.907 21.333-20.907zM618.24 596.48c11.947 0 21.333 9.387 21.333 21.333v20.907h21.333c11.947 0 21.333 9.387 21.333 21.333s-9.387 21.333-21.333 21.333h-42.667c-11.947 0-21.333-9.387-21.333-21.333v-42.667c0-11.52 9.813-20.907 21.333-20.907zM363.52 469.333c11.947 0 21.333 9.387 21.333 21.333v21.333h21.333c11.947 0 21.333 9.387 21.333 21.333s-9.387 21.333-21.333 21.333h-42.667c-11.947 0-21.333-9.387-21.333-21.333v-42.24c-0.427-11.947 8.96-21.76 21.333-21.76-0.427 0-0.427 0 0 0zM490.667 469.333c11.947 0 21.333 9.387 21.333 21.333v21.333h21.333c11.947 0 21.333 9.387 21.333 21.333s-9.387 21.333-21.333 21.333h-42.667c-11.947 0-21.333-9.387-21.333-21.333v-42.24c0-11.947 9.387-21.76 21.333-21.76 0 0 0 0 0 0zM618.24 469.333c11.947 0 21.333 9.387 21.333 21.333v21.333h21.333c11.947 0 21.333 9.387 21.333 21.333s-9.387 21.333-21.333 21.333h-42.667c-11.947 0-21.333-9.387-21.333-21.333v-42.24c0-11.947 9.387-21.76 21.333-21.76 0 0 0 0 0 0zM363.52 341.76c11.947 0 21.333 9.387 21.333 21.333v21.333h21.333c11.947 0 21.333 9.387 21.333 21.333s-9.387 21.333-21.333 21.333h-42.667c-11.947 0-21.333-9.387-21.333-21.333v-42.24c-0.427-11.947 8.96-21.76 21.333-21.76-0.427 0-0.427 0 0 0zM490.667 341.76c11.947 0 21.333 9.387 21.333 21.333v21.333h21.333c11.947 0 21.333 9.387 21.333 21.333s-9.387 21.333-21.333 21.333h-42.667c-11.947 0-21.333-9.387-21.333-21.333v-42.24c0-11.947 9.387-21.76 21.333-21.76 0 0 0 0 0 0zM618.24 341.76c11.947 0 21.333 9.387 21.333 21.333v21.333h21.333c11.947 0 21.333 9.387 21.333 21.333s-9.387 21.333-21.333 21.333h-42.667c-11.947 0-21.333-9.387-21.333-21.333v-42.24c0-11.947 9.387-21.76 21.333-21.76 0 0 0 0 0 0zM363.52 214.187c11.947 0 21.333 9.387 21.333 21.333v21.333h21.333c11.947 0 21.333 9.387 21.333 21.333s-9.387 21.333-21.333 21.333h-42.667c-11.947 0-21.333-9.387-21.333-21.333v-42.24c-0.427-11.947 8.96-21.333 21.333-21.76-0.427 0-0.427 0 0 0zM490.667 214.187c11.947 0 21.333 9.387 21.333 21.333v21.333h21.333c11.947 0 21.333 9.387 21.333 21.333s-9.387 21.333-21.333 21.333h-42.667c-11.947 0-21.333-9.387-21.333-21.333v-42.24c0-11.947 9.387-21.333 21.333-21.76 0 0 0 0 0 0zM618.24 214.187c11.947 0 21.333 9.387 21.333 21.333v21.333h21.333c11.947 0 21.333 9.387 21.333 21.333s-9.387 21.333-21.333 21.333h-42.667c-11.947 0-21.333-9.387-21.333-21.333v-42.24c0-11.947 9.387-21.333 21.333-21.76 0 0 0 0 0 0zM363.52 87.040c11.947 0 21.333 9.387 21.333 21.333v21.333h21.333c11.52-1.28 22.187 7.253 23.467 19.2 1.28 11.52-7.253 22.187-19.2 23.467-1.28 0-2.987 0-4.267 0h-42.667c-11.947 0-21.333-9.387-21.333-21.333v-42.667c0-11.947 9.387-21.333 21.333-21.333zM490.667 87.040c11.947 0 21.333 9.387 21.333 21.333v21.333h21.333c11.52-1.28 22.187 7.253 23.467 19.2 1.28 11.52-7.253 22.187-19.2 23.467-1.28 0-2.987 0-4.267 0h-42.667c-11.947 0-21.333-9.387-21.333-21.333v-42.667c0-11.947 9.813-21.333 21.333-21.333zM618.24 87.040c11.947 0 21.333 9.387 21.333 21.333v21.333h21.333c11.52-1.28 22.187 7.253 23.467 19.2 1.28 11.52-7.253 22.187-19.2 23.467-1.28 0-2.987 0-4.267 0h-42.667c-11.947 0-21.333-9.387-21.333-21.333v-42.667c0-11.947 9.387-21.333 21.333-21.333zM193.28 171.947h-42.667c-11.947 0-21.333-9.387-21.333-21.333v-42.667c0-11.947 9.387-21.333 21.333-21.333s21.333 9.387 21.333 21.333v21.333h21.333c11.52 1.28 20.48 11.52 19.2 23.467-0.853 9.813-8.96 17.92-19.2 19.2v0zM193.28 299.093h-42.667c-11.947 0-21.333-9.387-21.333-21.333v-42.24c0-11.947 9.387-21.333 21.333-21.333s21.333 9.387 21.333 21.333v21.333h21.333c11.947 0 21.333 9.387 21.333 21.333s-9.387 21.333-21.333 20.907v0zM151.040 341.76c11.947 0 21.333 9.387 21.333 21.333v21.333h21.333c11.947 0 21.333 9.387 21.333 21.333s-9.387 21.333-21.333 21.333h-42.667c-11.947 0-21.333-9.387-21.333-21.333v-42.24c-0.427-11.947 9.387-21.76 21.333-21.76-0.427 0 0 0 0 0zM830.72 87.040c11.947 0 21.333 9.387 21.333 21.333v21.333h21.333c11.52-1.28 22.187 7.253 23.467 19.2 1.28 11.52-7.253 22.187-19.2 23.467-1.28 0-2.987 0-4.267 0h-42.667c-11.947 0-21.333-9.387-21.333-21.333v-42.667c0-11.947 9.387-21.333 21.333-21.333zM830.72 214.187c11.947 0 21.333 9.387 21.333 21.333v21.333h21.333c11.947 0 21.333 9.387 21.333 21.333s-9.387 21.333-21.333 21.333h-42.667c-11.947 0-21.333-9.387-21.333-21.333v-42.24c-0.427-11.947 9.387-21.333 21.333-21.76-0.427 0 0 0 0 0zM830.72 341.76c11.947 0 21.333 9.387 21.333 21.333v21.333h21.333c11.947 0 21.333 9.387 21.333 21.333s-9.387 21.333-21.333 21.333h-42.667c-11.947 0-21.333-9.387-21.333-21.333v-42.24c-0.427-11.947 9.387-21.76 21.333-21.76-0.427 0 0 0 0 0zM23.467-40.533h977.067c11.947 0 21.333 9.387 21.333 21.333s-9.387 21.333-21.333 21.333h-21.333v530.773c0 11.947-9.387 21.333-21.333 21.333h-191.147v360.96c0 11.947-9.387 21.333-21.333 21.333h-467.2c-11.947 0-21.333-9.387-21.333-21.333v-360.96h-190.72c-11.947 0-21.333-9.387-21.333-21.333v-530.773h-21.333c-11.947 0-21.333-9.387-21.333-21.333s9.387-21.333 21.333-21.333c-0.427 0 0 0 0 0v0zM936.96 511.573v-509.867h-169.813v509.867h169.813zM299.52 893.867h424.96v-892.16h-424.96v892.16zM87.040 511.573h169.813v-509.867h-169.813v509.867z" />
<glyph unicode="&#xe90f;" glyph-name="bf-icon-bunk-bed" d="M1002.667 960h-85.333c-12.8 0-21.333-8.533-21.333-21.333v-149.333h-469.333v21.333c0 34.133-29.867 64-64 64h-128c-34.133 0-64-29.867-64-64v-21.333h-42.667v149.333c0 12.8-8.533 21.333-21.333 21.333h-85.333c-12.8 0-21.333-8.533-21.333-21.333v-981.333c0-12.8 8.533-21.333 21.333-21.333h85.333c12.8 0 21.333 8.533 21.333 21.333v64h768v-64c0-12.8 8.533-21.333 21.333-21.333h85.333c12.8 0 21.333 8.533 21.333 21.333v981.333c0 12.8-8.533 21.333-21.333 21.333zM426.667 234.667v21.333c0 34.133-29.867 64-64 64h-128c-34.133 0-64-29.867-64-64v-21.333h-42.667v341.333h426.667v-341.333h-128zM384 234.667h-170.667v21.333c0 12.8 8.533 21.333 21.333 21.333h128c12.8 0 21.333-8.533 21.333-21.333v-21.333zM597.333 448h170.667v-85.333h-170.667v85.333zM768 490.667h-170.667v85.333h170.667v-85.333zM597.333 320h170.667v-85.333h-170.667v85.333zM810.667 576h85.333v-341.333h-85.333v341.333zM896 618.667h-85.333v128h85.333v-128zM768 746.667v-128h-170.667v128h170.667zM213.333 810.667c0 12.8 8.533 21.333 21.333 21.333h128c12.8 0 21.333-8.533 21.333-21.333v-21.333h-170.667v21.333zM192 746.667h362.667v-128h-426.667v128h64zM85.333-21.333h-42.667v938.667h42.667v-938.667zM128 64v128h768v-128h-768zM981.333-21.333h-42.667v938.667h42.667v-938.667zM661.333 661.333h42.667c12.8 0 21.333 8.533 21.333 21.333s-8.533 21.333-21.333 21.333h-42.667c-12.8 0-21.333-8.533-21.333-21.333s8.533-21.333 21.333-21.333z" />
<glyph unicode="&#xe910;" glyph-name="bf-icon-cable-car" d="M936.533 585.387h-265.813v42.667c0 11.947-9.813 22.187-22.187 22.187h-124.16v177.493h124.16c12.373 0 22.613 9.813 22.613 22.187v42.667h327.253c11.947 0 21.333 9.387 21.333 21.333s-9.387 21.333-21.333 21.333h-972.8c-11.947 0-21.333-9.387-21.333-21.333s9.387-21.333 21.333-21.333h309.333v-42.667c0-11.947 9.813-22.187 22.187-22.187h124.587v-177.493h-124.587c-12.373 0-22.613-9.813-22.613-22.187v-42.667h-246.613c-46.080 0-83.627-37.547-83.627-83.627v-457.387c0-46.080 37.547-83.627 83.627-83.627h848.64c46.080 0 83.627 37.547 83.627 83.627v457.387c0 46.080-37.547 83.627-83.627 83.627zM977.493 501.76v-298.24h-453.12v339.2h412.16c22.613 0 40.96-18.347 40.96-40.96zM87.893 542.72h393.813v-339.2h-434.773v298.24c0 22.613 18.347 40.96 40.96 40.96zM936.533 3.413h-848.64c-22.613 0-40.96 18.347-40.96 40.96v116.48h930.56v-116.48c0-22.613-18.347-40.96-40.96-40.96z" />
<glyph unicode="&#xe911;" glyph-name="bf-icon-camera-solid" d="M633.472 853.717c-3.384 5.987-9.706 9.963-16.958 9.963-0.323 0-0.645-0.008-0.964-0.024l0.045 0.002h-210.261c-0.267 0.013-0.58 0.021-0.895 0.021-7.258 0-13.588-3.974-16.932-9.866l-0.050-0.096-58.667-117.717h363.221zM256.256 800.128q0 19.84-21.845 19.84h-127.061q-19.84 0-19.84-19.84v-64h168.747zM382.379 552.533q-83.328 0-140.8-57.387t-57.387-140.8q0-83.328 57.387-140.8t140.8-57.387q83.328 0 140.8 57.387t57.387 140.8q0 83.328-57.387 140.8t-140.8 57.387zM309.845 226.773q-3.968-3.968-15.872-3.968c-9.259 0-15.232 1.323-17.877 3.968l-10.923 10.923c-3.418 3.161-6.371 6.752-8.792 10.703l-0.125 0.219q-5.931 3.968-17.877 29.867c-1.486 4.596-2.864 10.273-3.859 16.082l-0.109 0.772c-1.087 6.643-2.467 12.395-4.215 17.984l0.247-0.918c-2.564 8.925-4.039 19.176-4.039 29.771 0 1.399 0.026 2.792 0.077 4.179l-0.006-0.2c-0.013 0.755-0.020 1.645-0.020 2.538 0 12.475 1.454 24.61 4.201 36.246l-0.212-1.066c0 0.086-0.001 0.188-0.001 0.29 0 12.2 2.933 23.716 8.132 33.88l-0.195-0.421c1.687 1.964 3.036 4.276 3.922 6.805l0.046 0.15c0.932 2.679 2.281 4.991 3.992 6.983l-0.024-0.028c11.947 9.259 21.845 11.904 29.867 7.936q17.92-13.867 9.941-29.867c-0.435-2.331-1.493-4.364-2.994-5.981l0.007 0.008c-1.473-1.606-2.527-3.62-2.974-5.853l-0.013-0.078q-7.936-19.84-7.936-25.6c-2.585-6.542-4.083-14.12-4.083-22.048 0-1.325 0.042-2.64 0.124-3.943l-0.009 0.178c-0.066-1.070-0.104-2.321-0.104-3.581 0-7.917 1.494-15.485 4.217-22.438l-0.144 0.419c1.647-3.665 3.019-7.951 3.904-12.413l0.064-0.387c0.946-4.848 2.318-9.134 4.121-13.186l-0.153 0.386c4.651-5.783 9.236-12.257 13.425-19.003l0.484-0.837q2.005-2.005 7.936-8.96c3.968-4.608 6.613-7.595 7.936-8.917q15.829-14.72-0.128-30.592zM352.085 469.333c-3.755-2.078-6.999-4.383-9.955-7.004l0.057 0.049c-2.915-2.555-6.172-4.859-9.654-6.807l-0.287-0.148c-3.25-2.54-7.395-4.073-11.897-4.073-0.709 0-1.409 0.038-2.098 0.112l0.086-0.007q-11.904 0-11.904 7.936-11.904 13.867 3.968 29.867c3.487 4.758 7.738 8.724 12.611 11.793l0.189 0.111c4.802 3.122 8.984 6.396 12.858 9.995l-0.058-0.054q23.808 7.936 29.867-11.904 6.059-23.936-13.781-29.867zM818.56 566.869q-19.883 0-19.883-21.845t19.883-21.845q21.803 0 21.803 21.845t-21.803 21.845zM999.765 675.072c-11.116 11.631-26.751 18.862-44.075 18.862-0.21 0-0.419-0.001-0.629-0.003h-142.261v-0.597l-747.136 0.597c-0.161 0.002-0.352 0.002-0.542 0.002-17.341 0-32.994-7.229-44.108-18.839l-0.021-0.022c-11.632-11.136-18.861-26.788-18.861-44.13 0-0.191 0.001-0.381 0.003-0.572v0.029-551.936c-0.002-0.161-0.002-0.352-0.002-0.542 0-17.341 7.229-32.994 18.839-44.108l0.022-0.021c11.136-11.632 26.788-18.861 44.13-18.861 0.191 0 0.381 0.001 0.572 0.003h889.4c34.894 0.497 63.053 28.64 63.573 63.481l0.001 0.049v551.936c0.001 0.144 0.002 0.314 0.002 0.484 0 17.367-7.246 33.042-18.88 44.166l-0.023 0.022zM561.067 175.872q-75.477-75.477-178.688-75.435t-178.688 75.307q-75.392 75.477-75.435 178.688t75.435 178.688q75.477 75.435 178.688 75.435t178.688-75.435q75.477-75.477 75.435-178.688t-75.435-178.688zM863.232 500.48c-11.519-11.993-27.689-19.444-45.598-19.444-34.899 0-63.189 28.291-63.189 63.189 0 17.91 7.451 34.080 19.423 45.578l0.021 0.020c11.519 11.993 27.689 19.444 45.598 19.444 34.899 0 63.189-28.291 63.189-63.189 0-17.91-7.451-34.080-19.423-45.578l-0.021-0.020z" />
<glyph unicode="&#xe912;" glyph-name="bf-icon-cane" d="M882.901 645.248c-6.64 12.177-17.256 21.48-30.072 26.282l-0.392 0.129-32.469 3.029-6.144 1.024c-12.16 0-19.627-1.365-22.315-4.267-4.851-3.881-10.523-6.99-16.685-9.022l-0.382-0.109q-13.269-5.12-38.4-16.256t-56.277-27.392q-134.016 115.755-168.576 140.16-18.304 12.203-52.821 15.232c-3.096 0.239-6.706 0.375-10.347 0.375-22.057 0-42.946-5.001-61.595-13.93l0.859 0.371c-23.379-9.815-40.786-29.832-46.82-54.324l-0.114-0.545q-6.059-32.512-26.411-112.725t-30.464-130.005c-6.144-30.507-8.789-53.675-8.107-70.016q-14.208-162.475-34.347-184.704c-5.313-6.289-10.339-13.257-14.815-20.597l-0.417-0.737q-11.179-17.067-36.565-54.827t-47.701-72.107q-12.245-42.667 30.464-85.333 18.219-16.256 55.851-16.256t61.952 20.309q26.368 38.4 50.773 72.107t38.613 51.797c6.39 7.752 12.424 16.383 17.755 25.476l0.507 0.935q6.059 10.155 18.304 56.875c3.584 13.909 6.955 25.813 10.027 35.925 27.008-21.333 40.747-33.408 40.747-35.925v-190.933c-0.005-0.314-0.007-0.685-0.007-1.056 0-6.104 0.734-12.037 2.118-17.715l-0.105 0.51c1.104-5.063 3.229-9.51 6.158-13.303l-0.057 0.077c2.656-3.336 5.308-6.312 8.113-9.137l-0.006 0.006c3.144-2.964 6.853-5.372 10.941-7.040l0.237-0.086c3.461-1.593 7.533-2.986 11.762-3.967l0.441-0.086q5.035-1.024 14.208-2.048c6.101-0.683 10.155-0.981 12.203-0.981h21.333c6.132-1.418 13.174-2.231 20.405-2.231 12.388 0 24.219 2.386 35.058 6.723l-0.636-0.225q26.368 10.112 26.411 50.773 0 50.773 2.048 131.029t2.005 119.808q0 39.595-4.267 43.691-2.048 2.005-34.517 31.488t-60.928 57.899-28.459 36.565q0 12.16 10.155 55.851t14.208 47.744q6.144 8.064 121.899-77.184 30.464 16.213 60.928 31.445c20.309 10.197 39.595 20.309 57.899 30.507s30.763 17.067 37.547 21.333v-573.184h38.4v593.237c5.376 2.731 11.477 5.419 18.261 8.149q37.035 42.624 12.629 91.392zM358.827 147.627c-4.053-5.461-9.813-13.227-17.067-23.381s-18.645-25.088-33.536-44.672-31.147-41.643-48.725-66.048q-32.512-40.661-60.928-8.107-28.501 26.368-4.267 54.869 83.243 121.856 85.333 125.909 20.267 28.416 36.565 168.576l77.184-81.067zM836.267 576c-2.731-1.365-9.813-5.077-21.333-11.179s-31.147-16.256-58.88-30.464-56.576-29.483-86.357-45.696l-72.363 50.987q-37.589 26.368-53.803 38.4c-10.88 8.149-17.621 12.203-20.309 12.203q-6.144 0-16.256-35.541t-21.333-84.309q-11.179-48.768-11.179-50.773-4.267-12.245 60.928-78.208t65.024-76.16v-243.755q0-20.352-6.101-29.44c-2.947-5.144-7.522-9.070-13.011-11.122l-0.173-0.057c-5.963-1.344-12.811-2.115-19.839-2.115-1.246 0-2.486 0.024-3.719 0.072l0.178-0.005c-0.985-0.017-2.147-0.026-3.311-0.026-7.414 0-14.739 0.381-21.956 1.125l0.904-0.076c-6.582 1.418-12.007 5.515-15.173 11.066l-0.059 0.112c-4.779 6.741-7.125 17.067-7.125 30.464v186.88q0 4.011-46.933 38.4c-34.871 26.156-65.675 52.454-94.749 80.53l0.285-0.274q-47.744 45.696-49.749 76.16c-0.115 2.802-0.18 6.090-0.18 9.394 0 20.132 2.43 39.697 7.013 58.417l-0.347-1.678q8.064 39.595 24.363 108.672t24.363 105.643q22.357 81.067 152.363 26.411c11.361-7.925 21.318-16.339 30.442-25.578l0.022-0.022q20.309-19.328 53.845-50.816t64-57.856q30.464 12.16 57.899 26.368t42.667 21.333c10.155 4.736 16.555 7.808 19.285 9.173q42.667 18.261 56.875-8.149 10.069-26.027-16.213-48.512zM600.576 748.843c0.465-0.007 1.015-0.011 1.565-0.011 29.379 0 56.044 11.617 75.653 30.508l-0.034-0.032c19.989 18.186 32.486 44.304 32.486 73.341 0 0.646-0.006 1.291-0.019 1.934l0.001-0.096c0.008 0.495 0.013 1.079 0.013 1.664 0 29.203-12.044 55.593-31.436 74.474l-0.023 0.022c-19.278 19.467-46.012 31.521-75.56 31.521-0.931 0-1.859-0.012-2.784-0.036l0.137 0.003q-46.933 0-77.184-29.44c-18.836-18.044-30.542-43.401-30.542-71.492 0-0.936 0.013-1.869 0.039-2.799l-0.003 0.137c-0.022-0.814-0.035-1.773-0.035-2.734 0-29.522 12.056-56.228 31.513-75.464l0.010-0.010c18.88-19.44 45.265-31.503 74.467-31.503 0.61 0 1.219 0.005 1.827 0.016l-0.092-0.001zM556.885 898.176c11.069 11.257 26.462 18.233 43.485 18.233 33.673 0 60.971-27.297 60.971-60.971 0-0.335-0.003-0.67-0.008-1.003l0.001 0.050c0-33.65-27.278-60.928-60.928-60.928s-60.928 27.278-60.928 60.928v0c-0.016 0.513-0.025 1.115-0.025 1.72 0 16.386 6.664 31.215 17.431 41.925l0.002 0.002z" />
<glyph unicode="&#xe913;" glyph-name="bf-icon-carriage" d="M192 341.333c-91.307 0-165.973-74.667-165.973-165.973s74.667-165.973 165.973-165.973 165.973 74.667 165.973 165.973c0 91.307-74.667 165.973-165.973 165.973zM202.667 298.24c26.027-2.133 49.92-12.373 68.693-28.587l-68.693-68.693v97.28zM181.333 197.973l-70.4 70.4c19.2 16.64 43.52 27.733 70.4 29.867v-100.267zM181.333 52.48c-26.027 2.133-49.92 12.373-68.693 28.587l68.693 68.693v-97.28zM202.667 146.773l66.987-66.987c-18.773-14.933-41.813-24.747-66.987-27.307v94.293zM286.293 254.72c16.213-19.2 26.88-43.947 28.587-70.827h-99.413l70.827 70.827zM96.427 253.013l69.12-69.12h-96.427c1.707 26.027 11.52 49.92 27.307 69.12zM69.547 162.56h94.72l-66.56-66.56c-15.36 18.347-25.6 41.387-28.16 66.56zM285.013 94.293l-68.267 68.267h97.707c-2.56-26.027-13.227-49.493-29.44-68.267zM678.4 341.333c-91.733 0-165.973-74.667-165.973-165.973s74.667-165.973 165.973-165.973 165.973 74.667 165.973 165.973c0 91.307-74.24 165.973-165.973 165.973zM689.067 298.24c26.027-2.133 49.92-12.373 68.693-28.587l-68.693-68.693v97.28zM667.733 197.973l-70.4 70.4c19.2 16.64 43.52 27.733 70.4 29.867v-100.267zM667.733 52.48c-26.027 2.133-49.493 12.373-68.267 28.16l68.267 68.693v-96.853zM689.067 146.773l66.987-66.987c-18.773-14.933-41.813-24.747-66.987-27.307v94.293zM772.693 254.72c16.213-19.2 26.88-43.947 28.587-70.827h-98.987l70.4 70.827zM582.827 253.013l69.12-69.12h-96.427c1.707 26.027 11.52 49.92 27.307 69.12zM555.947 162.56h95.147l-66.56-66.56c-15.787 18.347-26.027 41.387-28.587 66.56zM771.413 94.293l-68.267 68.267h97.707c-2.56-26.027-13.227-49.493-29.44-68.267zM1013.76 360.96c-8.107 8.533-21.76 8.96-30.293 0.853-42.667-40.533-81.92-52.48-110.507-33.28l-8.96 5.973c-13.653 8.96-14.507 9.813-30.293 20.907-6.4 4.267-11.947 8.96-17.493 13.227-26.88 20.48-50.347 38.827-110.507 42.667l66.987 246.187c13.227 48.213-10.667 97.707-56.32 117.76l-239.787 103.68c-25.6 10.667-53.333 10.667-78.933 0l-235.947-101.547c-45.227-19.2-69.547-67.413-58.027-115.2l61.867-256.427c-103.68-12.373-154.88-83.2-157.013-86.613-6.827-9.813-4.267-23.040 5.12-29.44 9.387-6.827 23.040-4.693 29.867 5.12 2.133 2.987 49.92 67.84 148.053 70.4 0.427 0 0.853 0 0.853 0 0.853 0 1.28 0 2.133 0 5.973 0 11.947 0 18.347-0.427 71.68-5.12 116.053-52.48 140.373-91.307 17.493-28.16 48.213-44.8 81.067-44.8h0.853c32.853 0 64.427 17.92 82.347 46.507 26.027 42.667 75.093 93.867 160.853 93.867 66.56 0 84.907-13.653 112.213-34.987 5.973-4.693 11.947-9.387 19.2-14.080 16.213-11.52 17.493-12.373 31.573-21.333l8.533-5.547c65.707-43.947 136.107 11.947 163.413 37.973 8.533 7.68 8.533 21.333 0.427 29.867zM480.853 296.96c-9.813-16.213-27.307-26.027-45.653-26.027h-0.853c-18.347 0-35.413 9.387-45.227 25.173-24.32 38.4-79.36 104.107-173.653 110.933-2.133 0-4.693 0-6.827 0.427l-63.573 264.96c-6.827 27.307 7.253 54.613 33.28 65.707l236.373 100.693c14.507 6.4 30.72 6.4 45.653 0l239.36-103.68c26.453-11.52 40.107-40.107 32.427-67.413l-69.973-257.28c-101.12-6.4-156.587-72.96-181.333-113.493zM677.973 590.080l7.68 52.48c0.853 2.56 0.853 4.267 0.853 6.4 1.28 16.64-3.84 32.853-14.080 45.653-10.667 13.227-26.027 21.333-43.093 23.040l-176.213 17.92c-5.547 0.427-11.093 0.427-16.64 0l-192.427-17.92c-1.28 0-2.56-0.427-3.413-0.427-1.28-0.427-3.413-0.427-5.547-1.707-15.787-3.84-29.44-13.227-38.4-26.453-9.387-14.080-12.8-31.147-9.387-47.787l11.52-57.6c5.973-26.88 28.16-47.36 55.893-50.347l180.053-18.773c0 0 0.427 0 0.427 0 2.987-0.427 6.4-0.427 9.387-0.427s6.4 0 9.387 0.427c0.427 0 0.427 0 0.853 0l168.107 21.76c28.587 3.84 50.773 25.173 55.040 53.76zM644.267 650.667l-8.107-54.187c-1.707-9.387-8.96-16.64-18.347-17.92l-167.68-21.76c-3.413-0.427-6.827-0.427-10.667 0l-179.627 18.773c-9.387 1.28-16.64 8.107-18.773 16.64l-11.52 57.173c-1.28 5.547 0 11.093 2.987 15.787s8.107 7.68 13.653 8.96c1.28 0.427 2.133 0.427 3.413 0.853 0 0 0 0 0.427 0l191.147 17.92c2.987 0.427 5.12 0.427 8.107 0l176.64-17.92c11.093-0.853 19.2-10.667 18.773-22.613-0.427-0.427-0.427-0.853-0.427-1.707z" />
<glyph unicode="&#xe914;" glyph-name="bf-icon-cart-add-solid" d="M1007.36 637.44c-2.133 0.853-4.693 1.28-7.253 1.28h-149.76c-11.52 128.427-125.013 223.147-253.013 211.627-112.64-10.24-201.387-99.413-211.627-211.627h-149.333l-65.707 157.013c-3.413 7.68-11.093 12.8-19.627 12.8h-127.147c-11.52 0-20.907-9.387-21.333-20.907 0-11.947 9.387-21.333 21.333-21.333h113.067l65.28-156.587 141.227-339.627c3.413-8.107 14.080-13.227 22.613-13.227h506.453c8.96 0 16.64 5.547 20.053 13.653l127.147 339.627c4.267 11.093-1.28 23.467-12.373 27.307zM618.24 808.533v0c105.387 0 191.147-85.333 191.147-190.72s-85.333-191.147-191.147-191.147c-105.387 0-191.147 85.333-191.147 191.147 0.427 105.387 85.76 190.72 191.147 190.72zM469.76 214.613c-46.933 0-84.907-37.973-84.907-84.907s37.973-84.907 84.907-84.907c0 0 0 0 0 0 46.933 0 84.907 37.973 84.907 84.907s-37.973 84.907-84.907 84.907zM766.72 214.613c-46.933 0-84.907-37.973-84.907-84.907s37.973-84.907 84.907-84.907c0 0 0 0 0 0 46.933 0 84.907 37.973 84.907 84.907s-37.973 84.907-84.907 84.907zM490.667 596.48h106.24v-105.813c0-11.947 9.387-21.333 21.333-21.333s21.333 9.387 21.333 21.333v105.813h106.24c11.52 1.28 20.053 11.947 18.773 23.467-1.28 9.813-8.96 17.92-18.773 18.773h-106.24v106.24c0 11.947-9.387 21.333-21.333 21.333s-21.333-9.387-21.333-21.333v-106.24h-106.24c-11.52 1.28-22.187-7.253-23.467-18.773s7.253-22.187 18.773-23.467c1.707 0 2.987 0 4.693 0z" />
<glyph unicode="&#xe915;" glyph-name="bf-icon-cart-add" d="M2.688 787.541c0-11.782 9.551-21.333 21.333-21.333v0h113.067l65.451-156.629 141.355-339.499c3.243-7.936 13.952-13.056 22.528-13.056h506.325c9.031 0.023 16.74 5.654 19.833 13.593l0.050 0.145 127.317 339.371c0.825 2.182 1.302 4.705 1.302 7.339 0 11.73-9.467 21.249-21.177 21.333h-149.597c-11.075 119.535-110.875 212.394-232.363 212.394s-221.288-92.859-232.294-211.473l-0.069-0.921h-149.333l-65.749 156.928c-3.301 7.59-10.734 12.801-19.384 12.801-0.055 0-0.11 0-0.166-0.001h-127.181c-11.627-0.046-21.056-9.387-21.248-20.974v-0.018zM618.112 808.875c105.473 0 190.976-85.503 190.976-190.976s-85.503-190.976-190.976-190.976c-105.473 0-190.976 85.503-190.976 190.976v0c0.194 105.369 85.597 190.727 190.965 190.848h0.011zM385.749 596.565c11.075-119.535 110.875-212.394 232.363-212.394s221.288 92.859 232.294 211.473l0.069 0.921h118.997l-111.403-297.131h-480.469l-123.733 297.131zM554.667 129.664c0 0.013 0 0.028 0 0.043 0 46.893-38.014 84.907-84.907 84.907s-84.907-38.014-84.907-84.907c0-46.893 38.014-84.907 84.907-84.907v0c46.858 0.049 84.834 38.009 84.907 84.857v0.007zM427.349 129.664c0 0.013 0 0.028 0 0.043 0 23.446 19.007 42.453 42.453 42.453s42.453-19.007 42.453-42.453c0-23.446-19.007-42.453-42.453-42.453-0.015 0-0.030 0-0.045 0h0.002c-0.051 0-0.111 0-0.171 0-23.431 0-42.429 18.983-42.453 42.409v0.002zM851.541 129.664c0 0.013 0 0.028 0 0.043 0 46.893-38.014 84.907-84.907 84.907s-84.907-38.014-84.907-84.907c0-46.893 38.014-84.907 84.907-84.907v0c46.868 0.024 84.858 37.999 84.907 84.859v0.005zM724.224 129.664c0 0.013 0 0.028 0 0.043 0 23.446 19.007 42.453 42.453 42.453s42.453-19.007 42.453-42.453c0-23.446-19.007-42.453-42.453-42.453-0.015 0-0.030 0-0.045 0h0.002c-23.413 0.024-42.386 18.998-42.411 42.408v0.002zM596.864 596.565v-106.112c0-11.782 9.551-21.333 21.333-21.333s21.333 9.551 21.333 21.333v0 106.112h106.112c10.735 1.216 19 10.245 19 21.205s-8.265 19.99-18.902 21.196l-0.098 0.009h-106.325v106.112c0 11.782-9.551 21.333-21.333 21.333s-21.333-9.551-21.333-21.333v0-106.112h-105.984c-0.7 0.082-1.511 0.128-2.333 0.128-11.782 0-21.333-9.551-21.333-21.333s9.551-21.333 21.333-21.333c0.822 0 1.633 0.046 2.431 0.137l-0.098-0.009z" />
<glyph unicode="&#xe916;" glyph-name="bf-icon-cart-cancel-solid" d="M1009.92 638.72c-2.56 0.853-4.693 1.28-7.253 1.28h-150.187c-12.373 128.853-127.147 223.573-256 211.2-112.213-10.667-200.533-99.413-211.627-211.2h-150.187l-65.707 157.44c-3.413 8.107-11.093 13.227-19.627 13.227h-128c-11.947 0-21.333-9.387-21.333-21.333s9.387-21.333 21.333-21.333h113.92l65.707-157.44 142.080-341.333c3.413-8.107 14.080-13.227 22.613-13.227h509.013c8.96 0 16.64 5.547 20.053 13.653l128 341.333c3.84 11.52-1.707 23.467-12.8 27.733zM618.667 810.667c106.24 0 192-85.76 192-192s-85.76-192-192-192c-106.24 0-192 85.76-192 192 0 105.813 86.187 192 192 192zM554.667 128c0-47.128-38.205-85.333-85.333-85.333s-85.333 38.205-85.333 85.333c0 47.128 38.205 85.333 85.333 85.333s85.333-38.205 85.333-85.333zM853.333 128c0-47.128-38.205-85.333-85.333-85.333s-85.333 38.205-85.333 85.333c0 47.128 38.205 85.333 85.333 85.333s85.333-38.205 85.333-85.333zM518.4 689.067l69.973-70.4-70.4-70.4c-8.533-8.107-8.533-21.76 0-30.293 0 0 0 0 0 0 8.533-8.533 21.76-8.533 30.293 0 0 0 0 0 0 0l70.4 70.4 70.4-70.4c8.107-8.533 21.76-8.533 30.293-0.427s8.533 21.76 0.427 30.293c0 0-0.427 0.427-0.427 0.427l-70.4 70.4 70.4 70.4c8.533 8.107 8.533 21.76 0.427 30.293s-21.76 8.533-30.293 0.427c0 0-0.427-0.427-0.427-0.427l-70.4-70.4-70.4 70.4c-8.107 8.533-21.76 8.533-30.293 0.427s-8.533-21.76-0.427-30.293c0.427-0.427 0.427-0.427 0.853-0.427z" />
<glyph unicode="&#xe917;" glyph-name="bf-icon-cart-cancel" d="M21.333 768h113.792l65.749-157.44 142.080-341.333c3.328-7.936 14.080-13.099 22.699-13.099h509.013c9.084 0 16.842 5.678 19.919 13.678l0.049 0.146 128 341.333c0.834 2.194 1.318 4.731 1.318 7.381 0 11.765-9.524 21.306-21.283 21.333h-150.403c-11.783 119.626-111.867 212.318-233.6 212.318s-221.817-92.692-233.523-211.347l-0.077-0.971h-150.4l-65.664 157.568c-3.307 7.756-10.864 13.094-19.669 13.099h-128.001c-11.782 0-21.333-9.551-21.333-21.333s9.551-21.333 21.333-21.333v0zM618.667 810.667c106.039 0 192-85.961 192-192s-85.961-192-192-192c-106.039 0-192 85.961-192 192v0c0.121 105.99 86.010 191.879 191.989 192h0.011zM385.067 597.333c11.783-119.626 111.867-212.318 233.6-212.318s221.817 92.692 233.523 211.347l0.077 0.971h119.467l-112-298.667h-482.859l-124.288 298.667zM554.667 128c0 47.128-38.205 85.333-85.333 85.333s-85.333-38.205-85.333-85.333c0-47.128 38.205-85.333 85.333-85.333v0c47.128 0 85.333 38.205 85.333 85.333v0zM426.667 128c0 23.564 19.103 42.667 42.667 42.667s42.667-19.103 42.667-42.667c0-23.564-19.103-42.667-42.667-42.667v0c-23.564 0-42.667 19.103-42.667 42.667v0zM853.333 128c0 47.128-38.205 85.333-85.333 85.333s-85.333-38.205-85.333-85.333c0-47.128 38.205-85.333 85.333-85.333v0c47.128 0 85.333 38.205 85.333 85.333v0zM725.333 128c0 23.564 19.103 42.667 42.667 42.667s42.667-19.103 42.667-42.667c0-23.564-19.103-42.667-42.667-42.667v0c-23.564 0-42.667 19.103-42.667 42.667v0zM518.229 518.229c3.862-3.872 9.203-6.267 15.104-6.267s11.242 2.396 15.104 6.267v0l70.229 70.272 70.229-70.229c3.886-4.031 9.333-6.534 15.365-6.534 11.782 0 21.333 9.551 21.333 21.333 0 6.010-2.486 11.44-6.485 15.318l-70.277 70.277 70.229 70.229c4.018 3.885 6.513 9.323 6.513 15.345 0 11.782-9.551 21.333-21.333 21.333-6.021 0-11.46-2.495-15.339-6.507l-70.235-70.235-70.229 70.229c-3.885 4.018-9.323 6.513-15.345 6.513-11.782 0-21.333-9.551-21.333-21.333 0-6.021 2.495-11.46 6.507-15.339l70.235-70.235-70.229-70.229c-3.885-3.865-6.289-9.214-6.289-15.125 0-5.89 2.387-11.222 6.246-15.083v0z" />
<glyph unicode="&#xe918;" glyph-name="bf-icon-cart-confirm-solid" d="M499.627 590.507l82.347-66.987c3.413-2.56 7.253-4.267 11.947-4.267h2.56c5.12 0.853 9.387 3.413 12.373 7.253l106.667 142.933c5.547 7.68 4.693 17.92-1.707 24.32l-8.107 4.693c-2.56 0.853-5.12 0.853-8.107 0.427-5.12-0.853-9.387-3.413-12.373-7.253l-16.213-22.187-78.507-105.387-67.413 54.613c-3.84 2.987-8.533 4.693-13.653 3.84-5.12-0.427-9.387-2.987-12.373-6.827s-4.693-8.533-3.84-13.653c0-3.84 2.56-8.533 6.4-11.52zM1003.52 637.867c-2.133 0.853-4.693 1.28-7.253 1.28h-149.76c-12.373 128.427-126.293 222.72-254.72 210.347-111.36-10.667-199.68-98.987-210.347-210.347h-149.76l-65.707 157.013c-3.413 7.68-11.093 13.227-19.627 13.227h-127.147c-11.947 0-21.333-9.387-21.333-21.333s9.387-21.333 21.333-21.333v0h113.067l65.707-157.013 141.653-340.053c3.413-8.107 14.080-13.227 22.613-13.227h506.88c8.96 0 16.64 5.547 20.053 13.653l127.573 340.053c3.413 11.52-2.133 23.467-13.227 27.733zM613.973 809.387v0c105.813 0 191.147-85.333 191.147-191.147s-85.333-191.573-191.147-191.573c-105.387 0-191.147 85.333-191.147 191.147s85.76 191.147 191.147 191.573zM465.067 214.187c0 0 0 0 0 0-46.933 0-84.907-37.973-84.907-84.907s37.973-84.907 84.907-84.907c46.933 0 84.907 37.973 84.907 84.907 0.427 46.933-37.547 84.907-84.907 84.907zM762.88 214.187c-46.933 0-84.907-37.973-84.907-84.907s37.973-84.907 84.907-84.907 84.907 37.973 84.907 84.907-37.973 84.907-84.907 84.907z" />
<glyph unicode="&#xe919;" glyph-name="bf-icon-cart-confirm" d="M508.16 590.507l82.347-66.987c3.413-2.56 7.253-4.267 11.947-4.267h2.56c5.12 0.853 9.387 3.413 12.373 7.253l106.667 142.933c5.547 7.68 4.693 17.92-1.707 24.32l-8.107 4.693c-2.56 0.853-5.12 0.853-8.107 0.427-5.12-0.853-9.387-3.413-12.373-7.253l-16.213-22.187-78.507-105.387-67.413 54.613c-3.84 2.987-8.533 4.693-13.653 3.84-5.12-0.427-9.387-2.987-12.373-6.827s-4.693-8.533-3.84-13.653c0-3.84 2.56-8.533 6.4-11.52zM1003.52 637.867c-2.133 0.853-4.693 1.28-7.253 1.28h-149.76c-12.373 128.427-126.293 222.72-254.72 210.347-111.36-10.667-199.68-98.987-210.347-210.347h-149.76l-65.707 157.013c-3.413 7.68-11.093 13.227-19.627 13.227h-127.147c-11.947 0-21.333-9.387-21.333-21.333s9.387-21.333 21.333-21.333v0h113.067l65.707-157.013 141.653-340.053c3.413-8.107 14.080-13.227 22.613-13.227h506.88c8.96 0 16.64 5.547 20.053 13.653l127.573 340.053c3.413 11.52-2.133 23.467-13.227 27.733zM613.973 809.387v0c105.813 0 191.147-85.333 191.147-191.147s-85.333-191.573-191.147-191.573c-105.387 0-191.147 85.333-191.147 191.147s85.76 191.147 191.147 191.573zM854.187 299.52h-480.853l-123.733 297.387h131.84c12.373-128.427 126.293-222.72 254.72-210.347 111.36 10.667 199.68 98.987 210.347 210.347h119.040l-111.36-297.387zM465.067 214.187c0 0 0 0 0 0-46.933 0-84.907-37.973-84.907-84.907s37.973-84.907 84.907-84.907c46.933 0 84.907 37.973 84.907 84.907 0.427 46.933-37.547 84.907-84.907 84.907zM465.067 86.613c-23.467 0-42.667 19.2-42.667 42.667s19.2 42.667 42.667 42.667 42.667-19.2 42.667-42.667-19.2-42.667-42.667-42.667zM762.88 214.187c-46.933 0-84.907-37.973-84.907-84.907s37.973-84.907 84.907-84.907 84.907 37.973 84.907 84.907-37.973 84.907-84.907 84.907zM762.453 86.613c-23.467 0-42.667 19.2-42.667 42.667s19.2 42.667 42.667 42.667 42.667-19.2 42.667-42.667-19.2-42.667-42.667-42.667z" />
<glyph unicode="&#xe91a;" glyph-name="bf-icon-cart-remove-solid" d="M1007.787 637.867c-2.133 0.853-4.693 1.28-7.253 1.28h-149.76c-12.373 128.427-126.293 222.72-254.72 210.347-111.36-10.667-199.68-98.987-210.347-210.347h-149.76l-65.707 157.013c-3.413 7.68-11.093 13.227-19.627 13.227h-127.147c-11.947 0-21.333-9.387-21.333-21.333s9.387-21.333 21.333-21.333v0h113.067l65.707-157.013 141.653-340.053c3.413-8.107 14.080-13.227 22.613-13.227h506.88c8.96 0 16.64 5.547 20.053 13.653l127.573 340.053c3.413 11.52-2.133 23.467-13.227 27.733zM618.24 809.387v0c105.813 0 191.147-85.333 191.147-191.147s-85.333-191.573-191.147-191.573c-105.813 0-191.147 85.76-191.147 191.147 0 105.813 85.76 191.147 191.147 191.573zM469.333 214.187c0 0 0 0 0 0-46.933 0-84.907-37.973-84.907-84.907s37.973-84.907 84.907-84.907c46.933 0 84.907 37.973 84.907 84.907 0.427 46.933-37.547 84.907-84.907 84.907zM767.147 214.187c-46.933 0-84.907-37.973-84.907-84.907s37.973-84.907 84.907-84.907 84.907 37.973 84.907 84.907-37.973 84.907-84.907 84.907zM745.813 596.48c11.947 0 21.333 9.387 21.333 21.333s-9.387 21.333-21.333 21.333h-255.147c-11.947 0-21.333-9.387-21.333-21.333s9.387-21.333 21.333-21.333h255.147z" />
<glyph unicode="&#xe91b;" glyph-name="bf-icon-cart-remove" d="M23.381 766.677h113.152l65.664-156.928 141.525-339.883c3.243-7.936 13.952-13.056 22.528-13.056h506.923c9.031 0.023 16.74 5.654 19.833 13.593l0.050 0.145 127.445 339.925c0.835 2.194 1.318 4.732 1.318 7.382 0 11.735-9.476 21.258-21.193 21.333h-149.767c-11.754 119.059-111.372 211.302-232.533 211.302s-220.779-92.243-232.456-210.334l-0.077-0.968h-149.845l-65.536 156.928c-3.308 7.712-10.822 13.023-19.58 13.056h-127.449c-11.782 0-21.333-9.551-21.333-21.333s9.551-21.333 21.333-21.333v0zM618.24 809.344c105.615 0 191.232-85.617 191.232-191.232s-85.617-191.232-191.232-191.232c-105.615 0-191.232 85.617-191.232 191.232v0c0.218 105.492 85.726 190.94 191.22 191.061h0.012zM385.579 596.693c11.754-119.059 111.372-211.302 232.533-211.302s220.779 92.243 232.456 210.334l0.077 0.968h119.125l-111.531-297.387h-480.811l-123.733 297.387zM384.555 129.323c0-46.94 38.052-84.992 84.992-84.992s84.992 38.052 84.992 84.992c0 46.94-38.052 84.992-84.992 84.992-0.075 0-0.15 0-0.225 0h0.012c-46.838-0.146-84.755-38.137-84.779-84.99v-0.002zM512 129.323c0-23.564-19.103-42.667-42.667-42.667s-42.667 19.103-42.667 42.667c0 23.564 19.103 42.667 42.667 42.667v0c23.564 0 42.667-19.103 42.667-42.667v0zM681.941 129.323c0-46.94 38.052-84.992 84.992-84.992s84.992 38.052 84.992 84.992c0 46.94-38.052 84.992-84.992 84.992v0c-46.92-0.049-84.943-38.072-84.992-84.987v-0.005zM809.429 129.323c0-23.564-19.103-42.667-42.667-42.667s-42.667 19.103-42.667 42.667c0 23.564 19.103 42.667 42.667 42.667v0c23.564 0 42.667-19.103 42.667-42.667v0zM745.685 596.693c11.782 0 21.333 9.551 21.333 21.333s-9.551 21.333-21.333 21.333v0h-255.019c-11.782 0-21.333-9.551-21.333-21.333s9.551-21.333 21.333-21.333v0z" />
<glyph unicode="&#xe91c;" glyph-name="bf-icon-cart-solid" d="M279.040 362.24h-255.147c-14.507 0-21.76-6.827-21.76-20.053 0-14.507 7.253-21.76 21.76-21.76h255.147c13.227 0 20.053 7.253 20.053 21.76-0.427 13.653-6.827 20.053-20.053 20.053zM23.893 489.813h169.387c14.507 0 21.76 7.253 21.76 21.76s-7.253 21.76-21.76 21.76h-169.387c-14.507 0-21.76-7.253-21.76-21.76s7.253-21.76 21.76-21.76zM43.947 426.24c0-13.227 7.253-20.053 21.76-20.053h169.387c14.507 0 21.76 6.4 21.76 20.053 0 14.507-7.253 21.76-21.76 21.76h-169.387c-14.507 0-21.76-7.253-21.76-21.76zM869.547 209.92c-15.787 16.213-37.973 25.173-60.587 24.747-46.080-0.853-82.773-37.547-83.627-83.627-0.427-22.613 8.533-44.8 24.747-60.587 15.36-16.213 36.693-25.173 58.88-24.747 22.613-0.427 44.8 8.533 60.587 24.747v0c16.213 15.787 25.6 37.973 25.173 60.587 0 22.187-8.96 43.52-25.173 58.88zM470.187 234.667c-22.613 0.427-44.8-8.533-60.587-24.747-16.213-15.36-25.173-36.693-24.747-58.88 0-0.427 0-0.853 0-1.28 0.427-46.933 38.827-84.907 85.76-84.48 22.187 0 43.52 8.96 58.88 24.747 16.213 15.787 25.173 37.973 24.747 60.587-1.28 46.507-37.973 83.2-84.053 84.053zM410.453 278.613h462.080c10.667 0 17.92 3.84 21.76 11.947l127.573 340.48c0 10.667-1.28 17.493-3.84 20.053-3.413 6.4-10.667 10.24-17.92 9.813h-721.067l-63.573 157.44c-3.84 8.107-11.52 11.947-21.76 11.947h-128c-14.507 0-21.76-7.253-21.76-21.76 0-13.227 7.253-20.053 21.76-20.053h115.627l63.573-157.44 139.52-340.48c4.267-7.68 12.8-11.947 26.027-11.947z" />
<glyph unicode="&#xe91d;" glyph-name="bf-icon-castle" d="M24.32-60.587h975.36c11.947 0 21.333 9.387 21.333 21.333v847.787c0 0.853-0.427 1.707-0.427 2.987s-0.427 2.987-0.853 4.267c-0.427 1.28-1.28 2.56-2.133 3.84-0.427 0.853-0.853 1.707-1.28 2.56l-106.24 127.147c-8.107 8.96-21.76 9.813-31.147 1.707-0.427-0.427-1.28-0.853-1.707-1.707l-105.813-127.147c-0.427-0.853-0.853-1.707-1.28-2.56-0.853-1.28-1.707-2.56-2.133-3.84s-0.853-2.987-0.853-4.267c0-0.853-0.427-1.707-0.427-2.987v-191.147h-509.013v191.147c0 0.853-0.427 1.707-0.427 2.987s-0.427 2.987-0.853 4.267c-0.427 1.28-1.28 2.56-2.133 3.84-0.427 0.853-0.853 1.707-1.28 2.56l-106.24 127.147c-8.107 8.96-21.76 9.813-31.147 1.707-0.427-0.427-1.28-0.853-1.707-1.707l-105.813-127.147c-0.427-0.853-0.853-1.707-1.28-2.56-0.853-1.28-1.707-2.56-2.133-3.84s-0.853-2.987-0.853-4.267c-0.427-0.853-0.427-1.707-0.427-2.987v-848.213c-0.427-11.52 9.387-20.907 20.907-20.907zM215.040-17.92h-169.387v805.547h169.813v-805.547zM639.147-17.92h-254.293v212.053c0 70.4 57.173 127.147 127.147 127.147 70.4 0 127.147-56.747 127.147-127.147v-212.053zM978.347-17.92h-169.813v805.547h169.813v-805.547zM893.44 902.827l60.587-72.96h-121.6l61.013 72.96zM766.293 575.573v-593.493h-84.907v212.053c0 93.867-75.947 169.813-169.813 169.813s-169.813-75.947-169.813-169.813v-212.053h-84.053v593.493h508.587zM130.56 902.827l60.587-72.96h-121.6l61.013 72.96zM151.467 702.72h-42.24c-11.947 1.28-22.187-7.253-23.893-18.773-1.28-11.52 6.827-22.187 18.773-23.893 1.707 0 3.413 0 5.12 0h42.24c11.52 1.28 20.053 11.947 18.773 23.893-1.28 9.813-8.96 17.493-18.773 18.773zM151.467 575.573h-42.24c-11.52 1.28-22.187-7.253-23.467-18.773s7.253-22.187 18.773-23.467c1.707 0 2.987 0 4.693 0h42.24c11.52 1.28 20.053 11.947 18.773 23.467-0.853 9.813-8.533 17.493-18.773 18.773zM151.467 448h-42.24c-11.52 1.28-22.187-6.827-23.893-18.773s6.827-22.187 18.773-23.893c1.707 0 3.413 0 5.12 0h42.24c11.52 1.28 20.053 11.947 18.773 23.893-1.28 10.24-8.96 17.92-18.773 18.773v0zM151.467 320.853h-42.24c-11.52-1.28-20.053-11.947-18.773-23.467 1.28-9.813 8.96-17.92 18.773-18.773h42.24c11.52 1.28 20.053 11.947 18.773 23.467-0.853 9.813-8.533 17.92-18.773 18.773zM872.533 660.48h42.24c11.52-1.28 22.187 6.827 23.893 18.773 1.28 11.52-6.827 22.187-18.773 23.893-1.707 0-3.413 0-5.12 0h-42.24c-11.52-1.28-20.053-11.947-18.773-23.893 1.28-10.24 8.96-17.92 18.773-18.773zM872.533 532.907h42.24c11.52 1.28 20.053 11.947 18.773 23.467-1.28 9.813-8.96 17.92-18.773 18.773h-42.24c-11.52-1.28-20.053-11.947-18.773-23.467 0.853-9.813 8.533-17.493 18.773-18.773zM872.533 405.76h42.24c11.52-1.28 22.187 6.827 23.893 18.773s-6.827 22.187-18.773 23.893c-1.707 0-3.413 0-5.12 0h-42.24c-11.52-1.28-20.053-11.947-18.773-23.893 1.28-9.813 8.96-17.493 18.773-18.773v0zM872.533 278.613h42.24c11.52 1.28 20.053 11.947 18.773 23.467-1.28 9.813-8.96 17.92-18.773 18.773h-42.24c-11.52-1.28-20.053-11.947-18.773-23.467 0.853-9.813 8.533-17.92 18.773-18.773z" />
<glyph unicode="&#xe91e;" glyph-name="bf-icon-chat-solid" d="M873.387 753.493q-149.675 99.84-361.387 99.84t-361.387-99.84q-149.76-99.84-149.76-241.493 0-147.797 157.867-247.467l-72.021-192q0-19.968 7.979-25.941c2.826-2.474 6.55-3.983 10.628-3.983 0.479 0 0.954 0.021 1.423 0.062l-0.061-0.004c0.608-0.067 1.313-0.106 2.027-0.106 4.532 0 8.703 1.55 12.010 4.148l-0.042-0.032 207.616 145.749q73.856-22.016 183.723-21.973 211.627 0 361.387 99.84t149.76 241.707q0 141.653-149.76 241.493z" />
<glyph unicode="&#xe91f;" glyph-name="bf-icon-child-bed" d="M1004.715 403.2h-38.4v71.296c0 9.426-7.641 17.067-17.067 17.067v0h-358.4c-9.561 19.391-22.042 35.867-37.077 49.591l-0.128 0.116c-27.768 24.36-64.395 39.222-104.494 39.222-2.971 0-5.922-0.082-8.853-0.243l0.408 0.018h-314.325v97.152c0 11.782-9.551 21.333-21.333 21.333v0h-85.76c-11.782 0-21.333-9.551-21.333-21.333v0-381.696c0-11.782 9.551-21.333 21.333-21.333v0h25.6v-77.141h42.667v77.056h857.6v-77.141h42.667v77.141h17.067c11.782 0 21.333 9.551 21.333 21.333v0 86.144c0 0.026 0 0.056 0 0.086 0 11.782-9.551 21.333-21.333 21.333-0.060 0-0.12 0-0.18-0.001h0.009zM501.248 405.163v43.733h61.056c4.112-12.466 7.419-27.207 9.31-42.389l0.119-1.174zM475.648 405.163h-71.040v43.733h71.125zM378.923 405.163h-70.997v43.733h71.083zM307.925 491.563v46.037h71.083v-46.251zM282.325 491.563h-71.125v46.037h71.125zM282.325 448.896v-43.563h-71.125v43.563zM185.6 405.333h-59.221v43.563h59.221zM923.733 449.067v-43.733h-309.333c-1.7 16.509-4.421 31.38-8.187 45.83l0.464-2.096zM541.44 491.733h-40.107v34.133c9.342-4.668 17.385-10.229 24.53-16.756l-0.082 0.074c5.743-5.288 10.887-11.054 15.427-17.288l0.231-0.333zM441.6 537.6h2.133c1.584 0.078 3.44 0.123 5.306 0.123 9.472 0 18.677-1.149 27.48-3.316l-0.786 0.164v-43.349h-71.125v46.379zM185.6 537.6v-46.251h-59.221v46.251zM876.16 316.928h-835.456v339.072h42.667v-178.133c-0.213-1.037-0.337-2.231-0.341-3.453v-94.68c0.037-6.521 3.725-12.173 9.123-15.017l0.093-0.045c3.454-2.614 7.807-4.208 12.53-4.267h878.521v-43.221h-107.136z" />
<glyph unicode="&#xe920;" glyph-name="bf-icon-children-cubes" d="M26.453-59.733h971.52c12.373 0 22.187 9.813 22.187 22.187v485.547c0 12.373-9.813 22.187-22.187 22.187h-242.773v463.36c0 12.373-9.813 22.187-22.187 22.187h-485.973c-12.373 0-22.187-9.813-22.187-22.187v-463.787h-198.4c-12.373 0-22.187-9.813-22.187-22.187v-485.547c0-11.947 9.813-21.76 22.187-21.76zM975.36-15.36h-441.173v441.173h441.6v-441.173zM269.227 911.787h441.6v-441.6h-441.6v441.6zM48.64 425.813h441.6v-441.6h-441.6v441.6zM548.693 602.453l31.147-74.667c3.413-8.107 11.52-13.653 20.48-13.653 2.987 0 5.973 0.427 8.533 1.707 11.093 4.693 16.64 17.493 11.947 29.013 0 0 0 0 0 0l-36.693 88.32-73.387 176.213c-6.827 16.213-34.133 16.213-40.96 0l-73.813-176.213-36.693-88.32c-4.693-11.093 0.427-24.32 11.947-29.013 11.093-4.693 24.32 0.427 29.013 11.947l31.147 74.667h117.333zM489.813 743.68l40.533-97.28h-81.067l40.533 97.28zM398.080 249.173c0 48.64-39.68 88.32-88.32 88.32h-106.667c-12.373 0-22.187-9.813-22.187-22.187v-264.96c0-12.373 9.813-22.187 22.187-22.187 0 0 0 0 0 0h106.667c48.64-0.427 87.893 38.827 88.32 87.467 0 25.6-11.093 50.347-30.72 66.987 19.2 17.067 30.293 41.387 30.72 66.56zM353.707 116.907c0-24.32-19.627-43.947-43.947-44.373h-84.907v88.32h84.48c24.747 0 44.373-19.627 44.373-43.947v0zM224.853 205.227v87.893h84.48c24.32-0.853 43.52-21.333 42.667-45.653-0.853-23.467-19.627-42.24-42.667-42.667l-84.48 0.427zM666.453 183.040c0-85.333 69.12-154.453 154.453-154.453 12.373 0 22.187 9.813 22.187 22.187s-9.813 22.187-22.187 22.187c0 0 0 0 0 0-61.013 0-110.507 49.493-110.507 110.507s49.493 110.507 110.507 110.507c12.373-0.427 22.613 8.96 23.040 20.907s-8.96 22.613-20.907 23.040c-0.853 0-1.28 0-2.133 0-85.333-0.427-154.453-69.547-154.453-154.88z" />
<glyph unicode="&#xe921;" glyph-name="bf-icon-children-not-allowed" d="M512 955.733c-279.893 0-507.733-227.84-507.733-507.733s227.84-507.733 507.733-507.733 507.733 227.84 507.733 507.733-227.84 507.733-507.733 507.733zM512-17.067c-256.427 0-465.067 208.64-465.067 465.067 0 120.747 46.080 230.4 121.6 313.173l149.76-149.76c-26.027-26.027-46.507-57.173-60.587-93.013-2.133-5.12-3.84-9.813-5.547-14.933-34.133-7.68-64.427-34.133-64.427-81.493s30.293-73.387 64.427-81.493c24.747-76.8 83.2-138.667 159.573-168.107 31.147-11.947 63.573-17.92 96.853-17.92 53.76 0 105.813 15.787 150.613 45.653 14.080 9.387 26.88 20.053 38.827 31.573l127.147-127.147c-82.773-75.52-192.427-121.6-313.173-121.6zM758.187 459.947c8.96-1.28 17.92-5.12 24.747-11.093 7.253-6.827 10.667-16.64 10.667-29.867s-3.413-22.613-10.667-29.867c-6.827-5.973-15.36-10.24-24.747-11.093 4.267 26.88 4.267 54.613 0 81.92zM451.84 638.72c4.693 2.56 7.68 7.253 7.253 12.8 0 0.427-1.707 24.747 13.653 41.387 10.667 11.52 27.307 17.493 49.493 17.493 20.48 0 36.267-5.547 46.933-17.067 17.92-19.627 15.787-49.92 15.787-49.92v-0.853c0-2.133-1.28-55.467-46.933-55.467-20.48 0-34.987 8.533-37.547 22.187s7.68 29.013 26.88 37.547c6.4 2.987 9.387 10.667 6.4 17.067s-10.667 9.387-17.067 6.4c-25.6-11.093-48.64-35.84-42.24-66.56 5.547-26.027 30.293-43.093 63.147-43.093 28.16-0.853 53.333 15.787 64 41.813 2.987 6.827 5.12 13.653 6.4 20.48 105.813-51.2 154.88-175.36 112.64-285.44-6.4-16.213-14.080-31.147-23.467-44.8l-144.213 144.213c3.84 0 7.68 2.133 10.667 5.973 0 0.427 13.227 20.053 34.56 22.613 15.787 1.707 32.853-6.4 51.2-24.747 5.12-5.12 13.227-5.12 18.347 0s5.12 13.227 0 18.347c-23.893 23.893-48.213 34.987-72.107 32-33.707-3.84-52.907-32.853-53.76-34.133-1.28-2.133-2.133-4.267-2.133-6.827l-157.013 157.013c20.907 14.080 43.947 24.747 69.12 31.573v0zM454.827 474.88c-17.92 12.373-35.413 17.92-53.333 15.787-33.707-3.84-52.907-32.853-53.76-34.133-3.84-5.973-2.133-14.080 3.84-17.92s14.080-2.133 17.92 3.84c0 0.427 13.653 20.053 34.56 22.613 15.787 1.707 32.853-6.4 51.2-24.747 5.547-4.267 13.653-4.267 18.347 0.427 2.987 2.987 4.267 7.68 3.413 11.52l110.933-110.933c-2.56 0.427-5.12 0-7.68-0.853-4.267-1.707-8.533-3.84-12.8-5.12-8.107 26.027-32 43.52-59.307 43.52h-1.28c-27.307-0.853-50.773-19.2-58.453-45.227-3.413 1.707-6.827 3.84-10.24 5.973-5.973 3.84-14.080 2.56-17.92-3.413s-2.56-14.080 3.413-17.92c7.253-5.12 14.933-8.96 23.467-12.373 4.693-29.867 30.72-52.053 61.013-52.053h0.427c31.147 0 57.6 23.467 61.013 54.613 7.253 2.56 14.080 5.12 21.333 8.533 5.547 2.56 8.533 8.533 7.253 14.080l71.68-71.68c-61.44-62.293-156.16-85.76-242.773-52.053-116.907 45.227-175.36 176.213-130.133 293.12 12.373 30.293 30.293 57.6 52.48 79.787l105.387-105.387zM545.28 317.013v-2.133c-0.427-8.533-4.267-17.92-10.667-24.747-6.827-6.827-15.787-10.667-25.6-10.667-19.627 0-35.413 15.36-35.84 34.56 0 0.853 0 1.707 0 2.56 0 19.627 15.787 35.413 35.413 35.84h0.853c19.627 0 35.413-15.787 35.84-35.413zM259.413 379.307c-6.827 2.133-13.227 5.12-18.347 9.813-7.253 6.827-10.667 16.64-10.667 29.867s3.413 22.613 10.667 29.44c5.12 4.693 11.52 8.107 18.347 9.813-4.267-26.027-4.267-52.907 0-78.933zM855.467 134.827l-129.28 129.28c13.653 18.773 25.173 39.253 33.707 61.44 1.707 4.693 3.413 9.813 5.12 14.507 37.12 7.253 70.4 33.707 70.4 81.493 0 48.213-33.28 74.24-70.4 81.493-22.613 69.547-72.96 127.147-139.093 159.147-2.133 17.067-8.107 40.107-26.027 59.307-13.227 14.933-37.12 31.573-78.507 31.573-34.987 0-62.293-10.667-81.067-31.147-14.507-15.787-20.48-33.707-23.040-48.213-23.893-8.533-46.080-20.053-66.56-34.133l-151.893 151.893c82.773 75.52 192.427 121.6 313.173 121.6 256.427 0 465.067-208.64 465.067-465.067 0-120.747-46.080-230.4-121.6-313.173z" />
<glyph unicode="&#xe922;" glyph-name="bf-icon-circle-cancel-solid" d="M512 962.133c-283.948 0-514.133-230.185-514.133-514.133s230.185-514.133 514.133-514.133c283.948 0 514.133 230.185 514.133 514.133v0c-0.34 283.812-230.322 513.794-514.101 514.133h-0.032zM757.205 202.667c-6.679-6.639-15.884-10.743-26.048-10.743s-19.369 4.104-26.050 10.745l-193.107 193.193-193.067-193.067c-6.679-6.639-15.884-10.743-26.048-10.743s-19.369 4.104-26.050 10.745l0.002-0.002c-6.622 6.695-10.712 15.904-10.712 26.069s4.091 19.375 10.716 26.073l193.064 193.064-193.067 193.109c-6.666 6.666-10.789 15.876-10.789 26.048 0 20.345 16.493 36.837 36.837 36.837 10.172 0 19.382-4.123 26.048-10.789v0l193.067-193.109 193.067 193.067c6.666 6.666 15.876 10.789 26.048 10.789 20.345 0 36.837-16.493 36.837-36.837 0-10.172-4.123-19.382-10.789-26.048l-193.067-193.067 193.109-193.109c6.66-6.669 10.778-15.878 10.778-26.048s-4.119-19.379-10.779-26.048v0z" />
<glyph unicode="&#xe923;" glyph-name="bf-icon-circle-cancel" d="M512-66.133c283.948 0 514.133 230.185 514.133 514.133s-230.185 514.133-514.133 514.133c-283.948 0-514.133-230.185-514.133-514.133v0c0.34-283.812 230.322-513.794 514.101-514.133h0.032zM512 917.333c259.206 0 469.333-210.128 469.333-469.333s-210.128-469.333-469.333-469.333c-259.206 0-469.333 210.128-469.333 469.333v0c0.34 259.069 210.264 468.994 469.301 469.333h0.033zM272.64 208.64c4.057-4.037 9.652-6.533 15.829-6.533s11.772 2.496 15.83 6.534l207.7 207.7 207.701-207.701c4.049-4.055 9.646-6.563 15.829-6.563 12.355 0 22.371 10.016 22.371 22.371 0 6.172-2.5 11.761-6.542 15.808v0l-207.744 207.744 207.701 207.701c3.939 4.027 6.37 9.544 6.37 15.628 0 12.348-10.010 22.357-22.357 22.357-6.084 0-11.601-2.43-15.632-6.374l-207.697-207.697-207.701 207.744c-4.027 3.939-9.544 6.37-15.628 6.37-12.348 0-22.357-10.010-22.357-22.357 0-6.084 2.43-11.601 6.374-15.632l207.697-207.74-207.701-207.659c-4.053-4.066-6.558-9.677-6.558-15.872 0-6.174 2.489-11.767 6.517-15.831l-0.002 0.002z" />
<glyph unicode="&#xe924;" glyph-name="bf-icon-circle-confirm-solid" d="M512 957.867c-281.592 0-509.867-228.275-509.867-509.867s228.275-509.867 509.867-509.867c281.592 0 509.867 228.275 509.867 509.867v0c-0.34 281.455-228.412 509.527-509.834 509.867h-0.033zM795.349 594.901l-287.957-381.568c-5.832-7.594-14.454-12.793-24.309-14.061l-0.182-0.019c-1.749 0-3.072-0.256-4.267-0.256-8.702 0.028-16.681 3.098-22.935 8.201l0.066-0.052-221.099 180.352c-8.702 6.677-14.256 17.081-14.256 28.781 0 19.982 16.199 36.181 36.181 36.181 9.139 0 17.486-3.388 23.854-8.977l-0.041 0.035 192-156.757 265.344 351.659c5.674 7.529 14.12 12.708 23.794 14.017l0.184 0.020c1.494 0.224 3.219 0.351 4.973 0.351 8.211 0 15.769-2.798 21.772-7.493l-0.078 0.059c8.692-6.661 14.241-17.046 14.241-28.728 0-8.206-2.738-15.773-7.351-21.836l0.065 0.089z" />
<glyph unicode="&#xe925;" glyph-name="bf-icon-circle-confirm" d="M760.32 638.677l-287.147-380.629-213.333 174.165c-4.003 3.944-9.501 6.379-15.568 6.379-12.253 0-22.187-9.933-22.187-22.187 0-7.582 3.803-14.276 9.606-18.277l0.074-0.049 231.168-189.013c3.797-3.102 8.697-4.985 14.036-4.992h0.002c0.896 0 1.792 0 2.645 0 6.174 0.738 11.495 3.896 15.066 8.483l0.038 0.050 301.013 399.36c2.571 3.575 4.111 8.040 4.111 12.866 0 12.253-9.933 22.187-22.187 22.187-6.997 0-13.238-3.239-17.304-8.3l-0.034-0.043zM512 957.867c-281.592 0-509.867-228.275-509.867-509.867s228.275-509.867 509.867-509.867c281.592 0 509.867 228.275 509.867 509.867v0c-0.34 281.455-228.412 509.527-509.834 509.867h-0.033zM512-17.536c-257.108 0-465.536 208.428-465.536 465.536s208.428 465.536 465.536 465.536c257.108 0 465.536-208.428 465.536-465.536v0c-0.291-256.991-208.545-465.245-465.508-465.536h-0.028z" />
<glyph unicode="&#xe926;" glyph-name="bf-icon-circle-notice-solid" d="M872.491 808.491q-149.376 149.376-360.491 149.376t-360.491-149.333q-149.376-149.419-149.376-360.533t149.333-360.491q149.333-149.333 360.491-149.333t360.491 149.333 149.333 360.491-149.291 360.491zM543.957 180.864c0-19.755-12.245-32-32-32s-32 12.245-32 32v36.309c0 19.755 12.245 32 32 32s32-12.245 32-32zM543.957 369.152c0-19.755-12.245-32-32-32s-32 12.245-32 32v345.984c0 19.755 12.245 32 32 32s32-12.245 32-32z" />
<glyph unicode="&#xe927;" glyph-name="bf-icon-circle-question-solid" d="M870.4 804.48q-149.333 149.333-360.491 149.333t-360.576-149.333q-149.333-149.333-149.333-360.491t149.333-360.491 360.491-149.333 360.491 149.333 149.333 360.491-149.248 360.491zM541.867 137.728l-1.067-1.067-1.195-0.811c-10.027-6.699-17.579-9.685-24.405-9.685-0.704-0.041-1.527-0.065-2.356-0.065-8.193 0-15.851 2.293-22.366 6.273l0.189-0.107-1.237 0.811-1.067 1.067c-7.041 6.734-11.442 16.179-11.52 26.652v0.015c0.307 9.884 4.678 18.691 11.49 24.848l0.030 0.027 1.621 1.408c6.555 4.963 14.619 8.27 23.397 9.157l0.198 0.016c11.904 1.237 18.731-2.261 22.613-6.485 8.199-5.577 13.516-14.86 13.525-25.385v-0.001c-0.085-12.971-2.56-21.205-7.851-26.667zM664.448 549.504c-0.213-41.643-20.395-76.203-59.947-102.741-11.987-8.862-22.487-18.564-31.843-29.291l-0.2-0.234c-4.267-5.376-11.136-17.92-18.603-46.933-6.187-24.192-8.533-55.040-7.637-91.691v-0.427c-0.423-8.873-4.448-16.731-10.633-22.2l-0.034-0.029c-6.016-6.434-14.511-10.485-23.953-10.624h-0.025c-21.333 0-34.475 12.373-34.645 32.384-2.432 45.568 1.408 85.333 11.392 118.528 10.283 34.133 20.693 56.704 31.787 69.163 13.168 14.090 27.246 26.937 42.283 38.606l0.81 0.605 1.152 0.853c20.309 13.184 31.616 29.867 34.56 50.475l0.256 1.365c4.821 20.139-0.768 37.291-17.536 54.059-20.864 20.864-40.789 31.445-59.264 31.445h-1.963c-3.415 0.576-7.349 0.906-11.36 0.906-18.669 0-35.671-7.137-48.426-18.831l0.053 0.048c-16.346-13.824-27.189-33.713-29.036-56.152l-0.020-0.296v-2.517l-1.067-2.304c-10.667-23.509-25.941-28.459-36.864-28.459-9.941 0-27.989 3.84-37.333 29.525l-1.493 2.731v2.859c0.929 41.769 20.611 78.758 50.93 103.002l0.27 0.209c27.049 23.072 62.415 37.11 101.059 37.11 4.211 0 8.383-0.167 12.51-0.494l-0.545 0.035c42.667 0 78.080-17.579 105.899-51.883 29.781-33.749 43.008-70.4 39.253-108.8z" />
<glyph unicode="&#xe928;" glyph-name="bf-icon-circle-remove-solid" d="M512 957.867c-281.592 0-509.867-228.275-509.867-509.867s228.275-509.867 509.867-509.867c281.592 0 509.867 228.275 509.867 509.867v0c-0.34 281.455-228.412 509.527-509.834 509.867h-0.033zM778.027 410.88h-532.053c-20.501 0-37.12 16.619-37.12 37.12s16.619 37.12 37.12 37.12v0h532.053c20.501 0 37.12-16.619 37.12-37.12s-16.619-37.12-37.12-37.12v0z" />
<glyph unicode="&#xe929;" glyph-name="bf-icon-circle-remove" d="M512-61.867c281.592 0 509.867 228.275 509.867 509.867s-228.275 509.867-509.867 509.867c-281.592 0-509.867-228.275-509.867-509.867v0c0.34-281.455 228.412-509.527 509.834-509.867h0.033zM512 913.536c257.108 0 465.536-208.428 465.536-465.536s-208.428-465.536-465.536-465.536c-257.108 0-465.536 208.428-465.536 465.536v0c0.291 256.991 208.545 465.245 465.508 465.536h0.028zM245.973 425.813h532.053c12.253 0 22.187 9.933 22.187 22.187s-9.933 22.187-22.187 22.187v0h-532.053c-12.253 0-22.187-9.933-22.187-22.187s9.933-22.187 22.187-22.187v0z" />
<glyph unicode="&#xe92a;" glyph-name="bf-icon-cloud-add-solid" d="M971.093 460.8c-31.741 37.355-76.686 62.653-127.539 68.647l-0.93 0.089q-27.904 109.525-120.491 179.2c-56.641 43.617-128.59 69.906-206.679 69.906-1.215 0-2.428-0.006-3.639-0.019l0.185 0.002q-141.397 0-240.981-96.597t-99.584-234.027c-0.815 0.014-1.776 0.023-2.74 0.023-45.487 0-86.711-18.251-116.748-47.83l0.021 0.021c-30.726-29.776-49.797-71.423-49.797-117.525s19.071-87.749 49.754-117.484l0.043-0.041c30.016-29.558 71.24-47.809 116.727-47.809 0.963 0 1.925 0.008 2.884 0.024l-0.144-0.002h637.312q89.6 0 151.381 60.757c38.072 36.14 61.758 87.117 61.758 143.625 0 0.972-0.007 1.942-0.021 2.911l0.002-0.147c0.008 0.665 0.012 1.45 0.012 2.236 0 51.516-19.258 98.535-50.967 134.249l0.181-0.208zM643.456 365.227h-94.635v-96.427c0-21.333-14.080-34.859-36.821-34.859s-36.821 13.355-36.821 34.859v96.555h-94.635c-23.083 0-36.821 15.275-36.821 40.832 0 21.333 14.123 34.859 36.821 34.859h94.635v96.555c0 21.333 14.080 34.816 36.821 34.816s36.821-13.483 36.821-34.816v-100.608h94.635c22.699 0 36.821-13.355 36.821-34.859 0-22.656-14.123-36.779-36.821-36.779z" />
<glyph unicode="&#xe92b;" glyph-name="bf-icon-cloud-cancel-solid" d="M841.984 528.768c-37.419 146.816-173.653 251.733-329.984 251.733-187.093 0-339.413-148.352-340.224-331.051-93.611-0.469-169.643-75.221-169.643-166.955s76.544-166.997 170.667-166.997h636.075c117.461 0 212.992 93.44 212.992 208.341 0 102.101-77.781 189.141-179.883 204.928zM626.944 288.725c-6.731-6.682-16.003-10.812-26.24-10.812s-19.509 4.13-26.242 10.814l-62.462 62.419-62.421-62.421c-6.724-6.68-15.989-10.808-26.219-10.808s-19.495 4.128-26.221 10.81l0.002-0.002c-6.682 6.731-10.812 16.003-10.812 26.24s4.13 19.509 10.814 26.242l62.419 62.419-62.464 62.464c-6.706 6.712-10.854 15.981-10.854 26.219 0 20.486 16.607 37.094 37.094 37.094 10.248 0 19.526-4.156 26.24-10.875v0l62.421-62.379 62.421 62.379c6.714 6.719 15.992 10.875 26.24 10.875 20.486 0 37.094-16.607 37.094-37.094 0-10.238-4.148-19.507-10.854-26.219l-62.421-62.421 62.464-62.336c6.741-6.728 10.911-16.029 10.911-26.304s-4.17-19.576-10.91-26.303l-0.001-0.001z" />
<glyph unicode="&#xe92c;" glyph-name="bf-icon-cloud-cancel" d="M172.757 115.499h636.117c117.461 0 212.992 93.44 212.992 208.341 0 102.101-77.781 189.141-179.883 204.8-37.419 146.816-173.653 251.733-329.984 251.733-187.093 0-339.413-148.352-340.224-331.051-93.611-0.341-169.643-75.093-169.643-166.827s76.544-166.997 170.624-166.997zM172.757 405.12c6.931-0.197 13.548-0.903 19.998-2.084l-0.798 0.121c0.614-0.057 1.328-0.090 2.050-0.090 6.298 0 12.015 2.49 16.219 6.54l-0.007-0.007c4.311 4.328 6.976 10.298 6.976 16.891 0 0.617-0.023 1.229-0.069 1.835l0.005-0.081c-0.512 6.485-1.024 13.056-1.024 19.712 0 158.891 132.736 288.171 295.893 288.171 140.8 0 262.912-97.579 290.133-231.979 2.008-9.661 10.075-16.945 19.975-17.744l0.079-0.005c87.125-6.741 155.349-78.208 155.349-162.645 0-90.453-75.691-164.011-168.704-164.011h-636.075c-69.675 0-126.293 54.997-126.293 122.667s56.619 122.709 126.293 122.709zM407.637 299.307c4.021-4.012 9.571-6.494 15.701-6.494s11.68 2.481 15.702 6.494v0l72.96 72.96 72.96-72.96c4.060-4.337 9.82-7.040 16.212-7.040 12.253 0 22.187 9.933 22.187 22.187 0 6.37-2.685 12.113-6.984 16.16l-73.014 73.056 72.96 72.96c3.714 3.957 5.995 9.296 5.995 15.168 0 12.253-9.933 22.187-22.187 22.187-5.872 0-11.212-2.281-15.18-6.006l0.012 0.011-72.96-72.789-72.96 72.96c-3.957 3.714-9.296 5.995-15.168 5.995-12.253 0-22.187-9.933-22.187-22.187 0-5.872 2.281-11.212 6.006-15.18l-0.011 0.012 72.96-72.96-72.96-73.173c-4.033-4.012-6.529-9.565-6.529-15.701 0-6.115 2.479-11.651 6.486-15.659v0z" />
<glyph unicode="&#xe92d;" glyph-name="bf-icon-cloud-confirm-solid" d="M971.093 460.8c-31.741 37.355-76.686 62.653-127.539 68.647l-0.93 0.089q-27.904 109.525-120.491 179.2c-56.641 43.617-128.59 69.906-206.679 69.906-1.215 0-2.428-0.006-3.639-0.019l0.185 0.002q-141.397 0-240.981-96.597t-99.584-234.027c-0.731 0.012-1.594 0.018-2.458 0.018-45.761 0-87.161-18.673-116.995-48.815l-0.014-0.014c-30.715-29.588-49.792-71.073-49.792-117.013s19.077-87.425 49.741-116.965l0.051-0.048c30.016-29.558 71.24-47.809 116.727-47.809 0.963 0 1.925 0.008 2.884 0.024l-0.144-0.002h637.312q89.6 0 151.381 60.757c38.072 36.14 61.758 87.117 61.758 143.625 0 0.972-0.007 1.942-0.021 2.911l0.002-0.147c0.008 0.665 0.012 1.45 0.012 2.236 0 51.516-19.258 98.535-50.967 134.249l0.181-0.208zM672.128 467.371l-167.509-179.2c-6.577-7.32-15.955-12.009-26.433-12.372l-0.063-0.002c-7.253 0-15.317 3.243-26.197 10.496l-1.664 1.109-94.592 108.629c-14.549 14.848-14.677 33.451-0.299 49.835l1.408 1.408c16.555 14.507 35.371 14.251 50.261-0.683l75.093-78.379 138.965 150.101c14.933 14.933 33.707 15.189 50.261 0.683l1.408-1.408c14.165-16.469 14.165-35.2-0.64-50.091z" />
<glyph unicode="&#xe92e;" glyph-name="bf-icon-cloud-download-solid" d="M969.856 459.435c-31.797 37.341-77.067 62.38-128.206 67.56l-0.818 0.067q-27.051 110.336-119.467 182.101c-56.1 44.658-127.993 71.652-206.192 71.652-1.116 0-2.23-0.005-3.344-0.016l0.17 0.001q-141.483 0-241.408-96.597t-99.925-236.203c-0.932 0.019-2.030 0.030-3.131 0.030-45.567 0-86.761-18.724-116.308-48.898l-0.028-0.028c-30.202-29.574-48.926-70.768-48.926-116.336 0-1.101 0.011-2.199 0.033-3.295l-0.003 0.164c2.321-46.144 22.632-87.134 54.003-116.431l0.099-0.091c29.914-29.624 71.085-47.927 116.531-47.927 0.702 0 1.403 0.004 2.104 0.013l-0.106-0.001h634.667q85.333 0 148.779 61.397t63.488 146.688c0.003 0.417 0.005 0.911 0.005 1.405 0 51.95-19.754 99.286-52.161 134.907l0.145-0.162zM679.339 375.723l-0.683-0.725-137.557-137.557h-4.523c-3.29-2.616-7.491-4.214-12.063-4.267h-16.78c-7.071 0.345-13.511 2.79-18.778 6.72l0.090-0.064-1.365 0.939-127.616 134.059c-9.515 8.533-14.165 18.005-13.867 27.776 0.772 10.529 6.248 19.637 14.314 25.315l0.107 0.072c15.189 14.677 34.133 14.677 50.901 0l0.853-0.811 65.963-67.456v221.483c0 23.68 15.701 37.803 41.984 37.803 23.339 0 37.845-14.464 37.845-37.803v-221.867l68.267 68.267c15.317 15.317 34.603 15.573 51.627 0.683l0.725-0.683c15.147-15.573 15.403-35.072 0.555-51.883z" />
<glyph unicode="&#xe92f;" glyph-name="bf-icon-cloud-remove-solid" d="M971.093 460.8c-31.741 37.355-76.686 62.653-127.539 68.647l-0.93 0.089q-27.904 109.525-120.491 179.2c-56.641 43.617-128.59 69.906-206.679 69.906-1.215 0-2.428-0.006-3.639-0.019l0.185 0.002q-141.397 0-240.981-96.597t-99.584-234.027c-0.731 0.012-1.594 0.018-2.458 0.018-45.761 0-87.161-18.673-116.995-48.815l-0.014-0.014c-30.715-29.588-49.792-71.073-49.792-117.013s19.077-87.425 49.741-116.965l0.051-0.048c30.016-29.558 71.24-47.809 116.727-47.809 0.963 0 1.925 0.008 2.884 0.024l-0.144-0.002h637.312q89.6 0 151.381 60.757c38.072 36.14 61.758 87.117 61.758 143.625 0 0.972-0.007 1.942-0.021 2.911l0.002-0.147c0.008 0.665 0.012 1.45 0.012 2.236 0 51.516-19.258 98.535-50.967 134.249l0.181-0.208zM647.424 365.227h-266.88c-22.699 0-36.821 14.123-36.821 36.821 0 21.333 14.123 34.859 36.821 34.859h266.88c22.741 0 36.864-13.355 36.864-34.859 0-22.571-14.123-36.693-36.864-36.693z" />
<glyph unicode="&#xe930;" glyph-name="bf-icon-cloud-upload-solid" d="M971.093 460.8c-31.741 37.355-76.686 62.653-127.539 68.647l-0.93 0.089q-27.904 109.525-120.491 179.2c-56.641 43.617-128.59 69.906-206.679 69.906-1.215 0-2.428-0.006-3.639-0.019l0.185 0.002q-141.397 0-240.981-96.597t-99.584-234.027c-0.731 0.012-1.594 0.018-2.458 0.018-45.761 0-87.161-18.673-116.995-48.815l-0.014-0.014c-30.715-29.588-49.792-71.073-49.792-117.013s19.077-87.425 49.741-116.965l0.051-0.048c30.016-29.558 71.24-47.809 116.727-47.809 0.963 0 1.925 0.008 2.884 0.024l-0.144-0.002h637.312q89.6 0 151.381 60.757c38.072 36.14 61.758 87.117 61.758 143.625 0 0.972-0.007 1.942-0.021 2.911l0.002-0.147c0.008 0.665 0.012 1.45 0.012 2.236 0 51.516-19.258 98.535-50.967 134.249l0.181-0.208zM668.629 420.096l-1.323-1.493-1.621-1.067c-10.88-7.253-18.944-10.496-26.197-10.496s-15.36 3.243-26.24 10.496l-1.28 0.853-67.115 68.693v-218.283c0-21.333-14.123-34.859-36.821-34.859s-36.864 13.355-36.864 34.859v218.88l-68.267-68.267c-7.306-6.415-16.945-10.328-27.499-10.328s-20.193 3.914-27.546 10.369l0.047-0.041-0.683 0.725c-14.464 16.597-14.251 35.371 0.683 50.304l135.765 137.813h2.731c2.147 1.47 4.657 2.603 7.355 3.254l0.155 0.031c3.919 2.88 8.839 4.61 14.163 4.61 5.475 0 10.524-1.829 14.567-4.909l-0.059 0.043c4.726-1.517 8.757-4.075 11.981-7.416l133.427-133.427c14.891-14.848 15.147-33.621 0.64-50.219z" />
<glyph unicode="&#xe931;" glyph-name="bf-icon-confirm-shield-solid" d="M909.099 890.112l-6.016 4.011q-170.027 67.968-391.083 68.011t-393.088-68.011l-4.011-4.011c0.023-0.152 0.036-0.327 0.036-0.506 0-1.956-1.586-3.541-3.541-3.541-0.178 0-0.354 0.013-0.525 0.039l0.019-0.002v-414.080c-0.001-0.447-0.002-0.977-0.002-1.506 0-99.142 27.523-191.855 75.344-270.917l-1.315 2.343c47.993-82.429 115.096-148.958 195.477-194.908l2.581-1.359 120.021-68.011 8.021-4.011c5.291 0 7.979 1.323 7.979 4.011l120.021 68.011c84.595 46.332 152.893 113.084 199.774 193.815l1.314 2.452c45.854 76.837 72.963 169.462 72.963 268.419 0 0.584-0.001 1.168-0.003 1.751v-0.090 414.080c0.023 0.15 0.035 0.323 0.035 0.5 0 1.956-1.586 3.541-3.541 3.541-0.163 0-0.323-0.011-0.48-0.032l0.018 0.002zM751.531 619.264l-255.957-299.691c-6.618-7.308-16.018-11.992-26.515-12.371l-0.066-0.002c-14.037 0-22.869 2.603-28.629 8.533l-128 128c-7.543 6.616-12.301 16.249-12.373 26.995v0.013c0.654 10.095 5.605 18.917 13.024 24.733l0.074 0.056c16.597 14.507 35.413 14.251 50.389-0.64l100.48-98.731 227.499 267.307c14.037 17.877 33.451 21.333 53.291 9.387l1.109-0.725c11.947-8.533 18.091-18.347 18.219-28.715-0.15-9.909-5.021-18.649-12.458-24.090l-0.086-0.060z" />
<glyph unicode="&#xe932;" glyph-name="bf-icon-cooktop" d="M554.667 64.853c0-23.564-19.103-42.667-42.667-42.667s-42.667 19.103-42.667 42.667c0 23.564 19.103 42.667 42.667 42.667s42.667-19.103 42.667-42.667zM682.24 64.853c0-23.564-19.103-42.667-42.667-42.667s-42.667 19.103-42.667 42.667c0 23.564 19.103 42.667 42.667 42.667s42.667-19.103 42.667-42.667zM427.093 64.853c0-23.564-19.103-42.667-42.667-42.667s-42.667 19.103-42.667 42.667c0 23.564 19.103 42.667 42.667 42.667s42.667-19.103 42.667-42.667zM916.48 959.147h-808.96c-58.88 0-106.667-47.787-106.667-106.667v-808.96c0-58.88 47.787-106.667 106.667-106.667h808.96c58.88 0 106.24 47.787 106.24 106.24v809.387c0.427 58.453-47.36 106.24-106.24 106.667zM980.48 43.52c0-35.413-28.587-64-64-64v0h-808.96c-35.413 0-64 28.587-64 64v0 808.96c0 35.413 28.587 64 64 64h808.96c35.413 0 64-28.587 64-64v-808.96zM299.093 533.333c93.867 0 170.24 76.373 170.24 170.24s-76.373 170.24-170.24 170.24c-93.867 0-170.24-76.373-170.24-170.24 0 0 0 0 0 0 0-94.293 76.373-170.24 170.24-170.24zM299.093 831.147c70.4 0 127.573-57.173 127.573-127.573s-56.747-128-127.573-128-127.573 57.173-127.573 128c0 0 0 0 0 0 0 70.4 57.173 127.573 127.573 127.573zM724.907 873.813c-93.867 0-170.24-76.373-170.24-170.24s76.373-170.24 170.24-170.24c93.867 0 170.24 76.373 170.24 170.24 0 0 0 0 0 0 0 93.867-76.373 169.813-170.24 170.24zM724.907 575.573c-70.4 0-127.573 57.173-128 127.573 0 70.4 57.173 127.573 127.573 128s127.573-57.173 128-127.573c0 0 0 0 0 0 0-70.827-57.173-127.573-127.573-128v0zM469.333 320.427c0 93.867-76.373 170.24-170.24 170.24s-170.24-76.373-170.24-170.24c0-93.867 76.373-170.24 170.24-170.24 0 0 0 0 0 0 93.867 0 170.24 75.947 170.24 170.24zM299.093 192.427c-70.4 0-128 57.173-128 127.573s57.173 128 127.573 128c70.4 0 128-57.173 128-127.573 0 0 0 0 0 0 0-70.4-57.173-127.573-127.573-128zM299.093 405.333c-46.933 0-85.333-38.4-85.333-85.333s38.4-85.333 85.333-85.333 85.333 38.4 85.333 85.333-38.4 85.333-85.333 85.333zM299.093 277.76c-23.467 0-42.667 19.2-42.667 42.667s19.2 42.667 42.667 42.667 42.667-19.2 42.667-42.667-19.2-42.667-42.667-42.667zM724.907 490.667c-93.867 0-170.24-76.373-170.24-170.24s76.373-170.24 170.24-170.24 170.24 76.373 170.24 170.24c0 0 0 0 0 0 0 93.867-76.373 169.813-170.24 170.24zM724.907 192.427c-70.4 0-127.573 57.173-128 127.573 0 70.4 57.173 127.573 127.573 128 70.4 0 127.573-57.173 128-127.573 0 0 0 0 0 0 0-70.827-57.173-127.573-127.573-128z" />
<glyph unicode="&#xe933;" glyph-name="bf-icon-country-road-sign" d="M157.867 495.36c3.84-3.84 9.387-6.4 14.933-6.4h319.147v-425.387h-106.24c-58.88 0-106.24-47.787-106.24-106.24 0-11.947 9.387-21.333 21.333-21.333h426.667c11.947 0 21.333 9.387 21.333 21.333 0 2.133-0.427 4.693-0.853 6.827-3.84 55.893-49.92 99.413-106.24 99.84h-106.667v297.813h319.147c5.547 0 11.093 2.133 14.933 6.4l127.573 127.573c8.107 8.107 8.107 21.76 0 29.867l-128 127.147c-3.84 3.84-9.387 6.4-14.933 6.4h-319.147v174.080c33.28 11.947 50.773 48.213 38.827 81.493s-48.213 50.773-81.493 38.827-50.773-48.213-38.827-81.493c6.4-18.347 20.907-32.427 38.827-38.827v-46.507h-318.72c-5.547 0-11.093-2.133-14.933-6.4l-128-127.147c-8.107-8.533-8.107-21.76 0-30.293l127.573-127.573zM701.013-21.333h-375.467c8.96 25.6 33.28 42.667 60.16 42.667h255.147c27.307 0 51.2-17.067 60.16-42.667zM844.8 616.533l106.24-106.24-106.24-106.24h-310.187v212.48h310.187zM513.28 914.347c11.947 0 21.333-9.387 21.333-21.333s-9.387-21.333-21.333-21.333c-11.947 0-21.333 9.387-21.333 21.333 0 0 0 0 0 0 0.427 11.947 9.813 21.333 21.333 21.333zM181.76 744.533h310.187v-212.907h-310.187l-106.24 106.24 106.24 106.667zM215.467 659.2h212.907c11.947-0.427 21.76 8.533 22.187 20.48s-8.533 21.76-20.48 22.187c-0.427 0-1.28 0-1.707 0h-212.907c-11.947 0.427-21.76-8.533-22.187-20.48s8.533-21.76 20.48-22.187c0.427 0 1.28 0 1.707 0zM598.613 531.627h212.907c11.947-0.427 21.76 8.533 22.187 20.48s-8.533 21.76-20.48 22.187c-0.427 0-1.28 0-1.707 0h-212.907c-11.947 0.427-21.76-8.533-22.187-20.48s8.533-21.76 20.48-22.187c0.427 0 0.853 0 1.707 0zM598.613 446.72h212.907c11.947-0.427 21.76 8.533 22.187 20.48s-8.533 21.76-20.48 22.187c-0.427 0-1.28 0-1.707 0h-212.907c-11.947 0.427-21.76-8.533-22.187-20.48s8.533-21.76 20.48-22.187c0.427 0 0.853 0 1.707 0z" />
<glyph unicode="&#xe934;" glyph-name="bf-icon-cow" d="M167.253 497.067c1.707-0.427 3.413-0.427 5.12-0.853 0-1.707-0.427-3.413-0.427-5.547 0-121.173 51.2-234.24 137.387-306.347-6.4-17.493-9.813-36.267-9.813-55.040 0-105.387 95.147-191.147 212.48-191.147s212.48 85.76 212.48 191.147c-0.427 18.773-3.84 37.12-9.813 55.040 86.187 72.107 137.387 185.173 137.387 306.347 0 2.133-0.427 3.84-0.427 5.547 1.707 0.427 3.413 0.427 5.12 0.853 62.293 14.933 109.227 55.040 122.027 104.533 2.133 8.107-0.853 16.64-7.253 21.76-40.533 32.427-100.693 43.947-157.44 32-3.84 7.68-7.68 14.933-12.373 22.187s-9.387 14.507-14.507 21.333c7.68 14.933 13.653 30.72 17.92 46.933 16.64 72.107-10.667 148.907-72.96 206.080-8.533 8.107-22.187 7.68-29.867-1.28-4.693-5.12-6.827-12.373-5.12-18.773 9.813-45.653 0-92.587-26.027-137.387-96 45.653-220.587 45.653-316.587 0-26.027 44.8-35.84 91.733-26.027 137.387 2.56 11.52-4.693 22.613-16.213 25.173-6.827 1.28-14.080-0.427-18.773-5.12-63.573-56.747-90.88-133.547-74.24-205.653 3.84-16.213 9.813-32 17.92-46.933-4.693-6.827-9.813-13.653-14.080-20.48s-8.96-14.933-13.227-23.040c-57.6 11.947-117.333 0-157.44-32-6.4-5.12-9.387-13.653-7.253-21.76 12.8-49.92 59.307-90.027 122.027-104.96zM512-19.627c-93.867 0-169.813 66.56-169.813 148.907 0 18.347 3.84 36.267 11.52 53.333 25.173 58.027 87.467 95.573 158.72 95.573s133.12-37.547 158.72-95.573c7.253-16.64 11.52-34.56 11.52-52.907-0.853-82.347-76.8-149.333-170.667-149.333zM932.693 598.613c-13.227-27.307-44.8-49.92-83.627-59.733-0.853 6.827-1.28 13.653-2.56 20.48v0 0c-3.413 18.773-8.107 37.547-14.507 55.893 35.84 5.547 72.96-0.427 100.693-16.64zM741.547 874.24c23.040-37.547 30.72-78.507 21.76-118.613-1.707-7.253-3.84-14.080-6.827-20.907-14.933 14.933-31.147 27.733-48.64 39.253 18.347 30.293 29.867 64.853 33.707 100.267zM673.707 745.813c20.053-11.52 37.973-26.027 54.187-42.24 14.507-14.080 26.88-30.293 37.12-47.36 5.973-9.813 11.52-20.48 16.64-31.147 0 0 0-0.427 0-0.427 0-0.427 0.427-0.853 0.853-1.28 10.24-22.613 17.493-46.507 21.76-70.827v0c0-0.427 0-0.427 0-0.427 3.413-20.053 5.12-40.533 5.12-61.013 0-104.533-42.24-201.813-113.067-266.24-37.12 59.307-106.667 96-184.32 96s-147.2-37.12-184.32-96c-71.253 64.427-113.067 161.707-113.067 266.24 0 20.48 1.707 40.96 5.12 61.44 5.973 37.12 19.627 72.533 39.68 104.533 10.24 17.493 22.613 33.28 37.12 47.36 15.787 16.213 34.133 30.293 53.76 41.813 93.44 54.613 229.973 54.613 323.413-0.427zM282.453 874.24c3.84-35.413 15.36-69.547 33.707-100.267-17.493-11.093-34.133-24.32-48.64-39.253-2.56 6.827-5.12 13.653-6.827 20.907-8.96 40.107-1.28 81.493 21.76 118.613zM192.427 615.253c-6.4-18.347-11.52-36.693-14.507-55.893-1.28-6.4-1.707-13.653-2.56-20.48-39.253 9.813-70.4 32.427-83.627 59.733 27.307 16.213 64.427 21.76 100.693 16.64zM427.093 532.907c0-23.564-19.103-42.667-42.667-42.667s-42.667 19.103-42.667 42.667c0 23.564 19.103 42.667 42.667 42.667s42.667-19.103 42.667-42.667zM682.24 532.907c0-23.564-19.103-42.667-42.667-42.667s-42.667 19.103-42.667 42.667c0 23.564 19.103 42.667 42.667 42.667s42.667-19.103 42.667-42.667zM575.573 192.853c-35.413 0-63.573-28.587-63.573-63.573 0-35.413 28.587-63.573 63.573-63.573s63.573 28.587 63.573 63.573c0 0 0 0 0 0 0.427 34.987-28.16 63.573-63.573 63.573zM575.573 107.947c-11.947 0-21.333 9.387-21.333 21.333s9.387 21.333 21.333 21.333c11.947 0 21.333-9.387 21.333-21.333v0c0-11.947-9.387-21.333-21.333-21.333v0zM448.427 192.853c-35.413 0-63.573-28.587-63.573-63.573s28.587-63.573 63.573-63.573c34.987 0 63.573 28.587 63.573 63.573 0 35.413-28.587 63.573-63.573 63.573zM448.427 107.947c-11.947 0-21.333 9.387-21.333 21.333s9.387 21.333 21.333 21.333c11.947 0 21.333-9.387 21.333-21.333v0c-0.427-11.947-9.813-21.333-21.333-21.333v0z" />
</font>
</defs>
</svg>
