<?xml version="1.0" standalone="no"?>
<!DOCTYPE svg PUBLIC "-//W3C//DTD SVG 1.1//EN" "http://www.w3.org/Graphics/SVG/1.1/DTD/svg11.dtd" >
<svg xmlns="http://www.w3.org/2000/svg">
<metadata>Generated by IcoMoon</metadata>
<defs>
<font id="icomoon" horiz-adv-x="1024">
<font-face units-per-em="1024" ascent="960" descent="-64" />
<missing-glyph horiz-adv-x="1024" />
<glyph unicode="&#x20;" horiz-adv-x="512" d="" />
<glyph unicode="&#xe000;" glyph-name="bf-icon-alarm-clock" d="M279.979 919.979c30.254-24.52 51.329-59.327 57.899-99.030l0.128-0.938q6.016-20.011-13.995-26.027-106.069-41.984-192-153.984c-3.938-4.567-9.579-7.57-15.927-8.017l-0.073-0.004h-10.027c-31.883 13.316-58.036 35.035-76.415 62.41l-0.385 0.609c-18.269 26.286-29.187 58.876-29.187 94.017 0 0.352 0.001 0.704 0.003 1.056v-0.054c-0.010 0.671-0.016 1.462-0.016 2.255 0 46.206 19.162 87.936 49.973 117.678l0.048 0.046c29.801 30.859 71.543 50.020 117.759 50.020 0.78 0 1.559-0.005 2.337-0.016l-0.118 0.001c0.461 0.005 1.005 0.007 1.55 0.007 41.503 0 79.467-15.147 108.667-40.215l-0.223 0.187zM294.016 827.989c-8.735 26.431-25.141 48.353-46.556 63.742l-0.377 0.258c-21.037 16.237-47.775 26.026-76.8 26.027v0c-0.791 0.018-1.723 0.029-2.658 0.029-34.575 0-65.838-14.181-88.289-37.045l-0.018-0.019c-23.056-22.496-37.356-53.875-37.356-88.594 0-0.834 0.008-1.666 0.025-2.495l-0.002 0.124q0-74.027 64-112 72.021 87.936 188.032 149.973zM937.984 361.984q0-155.989-105.984-285.867l102.016-101.973q13.952-13.995 0-29.867c-2.688-2.688-8.021-4.011-16-4.011-9.344 0-15.36 1.323-18.005 4.011l-102.144 101.717q-121.856-109.995-285.867-109.995-160 0-285.867 105.984l-102.016-101.973c-2.688-2.688-8.533-4.011-18.005-4.011-7.979 0-12.245 2.645-12.245 8.021q-14.037 15.957 0 29.867l102.016 101.973q-109.995 125.995-109.995 285.867 0 176 124.971 301.995t301.141 126.293q176 0 301.013-126.037t124.971-301.995zM240 633.003q-103.979-103.040-112-249.003h22.016q19.968 0 19.968-22.016 0-19.968-19.968-19.968h-22.016c4.272-98.203 45.885-185.929 110.888-249.982l0.045-0.045q102.997-104.021 250.965-114.005v22.016q0 22.016 22.016 22.016t22.016-22.016v-22.016q147.968 9.984 250.965 114.005c65.049 64.098 106.661 151.824 110.906 249.247l0.027 0.78h-22.016q-19.968 0-19.968 19.968 0 22.016 19.968 22.016h22.187q-7.979 146.005-112 249.003c-64.274 65.116-151.719 107.223-248.947 112.933l-1.037 0.049v-19.968c0-14.72-7.339-22.016-22.016-22.016s-22.016 7.296-22.016 22.016v19.968c-98.267-5.75-185.715-47.859-249.943-112.94l-0.041-0.042zM406.016 587.989q-6.016 19.968 11.989 29.867c1.725 0.41 3.706 0.645 5.742 0.645 4.121 0 8.017-0.962 11.476-2.675l-0.151 0.068c6.016-2.688 9.003-6.016 9.003-10.027l76.032-213.973 205.909 90.24q19.968 6.016 29.867-11.989 5.973-24.021-13.995-29.867l-221.867-101.973h-8.021c-0.381-0.032-0.825-0.050-1.273-0.050-4.119 0-7.878 1.54-10.733 4.075l0.017-0.014c-4.011 0-6.016 1.28-6.016 3.968-0.116 1.608-0.866 3.020-1.998 4.005l-0.007 0.006c-1.147 0.985-1.899 2.401-2.004 3.993l-0.001 0.017zM973.995 909.995c30.859-29.814 50.020-71.567 50.020-117.795 0-0.768-0.005-1.534-0.016-2.299l0.001 0.116c0.002-0.336 0.004-0.733 0.004-1.131 0-35.074-10.852-67.613-29.381-94.444l0.363 0.556c-18.153-27.474-44.615-48.18-75.766-58.705l-1.034-0.303h-10.027c-6.423 0.441-12.068 3.447-15.974 7.991l-0.026 0.031c-49.462 66.436-114.112 118.893-188.971 152.758l-3.029 1.226c-8.288 3.242-14.052 11.166-14.052 20.437 0 0.556 0.021 1.106 0.061 1.652l-0.004-0.073c6.681 40.646 27.76 75.458 57.725 99.731l0.302 0.237c28.977 24.88 66.941 40.027 108.443 40.027 0.486 0 0.971-0.002 1.455-0.006h-0.074c0.649 0.009 1.416 0.015 2.183 0.015 46.228 0 87.981-19.16 117.75-49.973l0.045-0.047zM982.016 790.016c0.006 0.459 0.009 1.002 0.009 1.545 0 69.844-56.62 126.464-126.464 126.464-0.543 0-1.086-0.003-1.628-0.010l0.082 0.001c-0.195 0.001-0.425 0.002-0.656 0.002-28.561 0-54.832-9.802-75.634-26.225l0.258 0.196c-21.162-15.532-36.729-37.592-43.796-63.181l-0.193-0.819q99.968-48 184.021-149.973 63.957 37.973 64 112z" />
<glyph unicode="&#xe001;" glyph-name="bf-icon-align-all" d="M1.408 520.021v418.133c0 14.507 7.125 21.845 21.973 21.845h418.133c13.312 0 20.011-7.339 20.011-22.016v-421.973c0-14.677-6.699-22.016-20.011-22.016h-418.133c-14.848 0-21.973 8.661-21.973 26.027zM1.408 375.979c0 13.355 7.296 20.011 21.973 20.011h418.133c13.312 0 20.011-6.656 20.011-20.011v-418.133c0-14.72-6.699-22.016-20.011-22.016h-418.133c-14.848 0.171-21.973 7.467-21.973 22.187zM47.403 541.867h372.011v372.139h-372.011zM47.403-18.133h372.011v372.267h-372.011zM559.403 375.851c0 13.355 7.296 20.011 22.016 20.011h418.133q22.016 0 22.016-20.011v-418.133c0-14.72-7.339-22.016-22.016-22.016h-418.133c-14.72 0-22.016 7.296-22.016 22.016zM565.419 519.893v418.133q0 21.973 19.968 21.973h418.133q24.021 0 18.005-22.016v-421.973q0-22.016-22.016-22.016h-418.133q-26.027 0-15.957 26.027zM607.403 541.867h372.011v372.139h-372.011zM607.403-18.133h372.011v372.267h-372.011z" />
<glyph unicode="&#xe002;" glyph-name="bf-icon-ambulance" d="M1024 682.667v-513.408c0-13.397-7.381-20.096-22.059-20.096h-68.267c-8.943-49.041-51.334-85.73-102.293-85.73s-93.35 36.689-102.197 85.094l-0.096 0.636h-437.077c-4.187-24.752-16.898-45.98-34.952-61.009l-0.163-0.132c-17.523-15.577-40.736-25.093-66.172-25.093-0.346 0-0.692 0.002-1.038 0.005h0.053c-0.31-0.003-0.677-0.005-1.043-0.005-25.431 0-48.639 9.516-66.258 25.182l0.101-0.088c-18.261 15.192-30.984 36.489-35.034 60.724l-0.081 0.588h-68.267q-24.064 0-18.048 24.107v222.421l128.427 214.571c4.511 4.872 10.913 7.937 18.033 8.021h20.068v22.059c0.592 35.18 29.015 63.528 64.168 64h0.045c35.107-0.589 63.411-28.893 63.999-63.944l0.001-0.056v-22.059h44.288v64.213c0 14.72 6.656 22.059 20.053 22.059h641.749c14.677-0.043 22.059-7.381 22.059-22.059zM340.139 405.888l-300.843-40.107v-174.464h48.128c4.179 24.755 16.892 45.984 34.951 61.009l0.163 0.132c17.483 15.45 40.599 24.883 65.918 24.883 0.451 0 0.901-0.003 1.35-0.009l-0.068 0.001c51.003-0.386 93.31-37.135 102.3-85.583l0.1-0.647h48zM340.139 576.341h-180.523l-98.133-166.4 278.784 34.133zM163.627 786.944l44.16-44.117c2.505-4.979 3.971-10.852 3.971-17.067s-1.467-12.087-4.073-17.29l0.101 0.223c-4.562-2.571-10.016-4.086-15.824-4.086-0.782 0-1.558 0.027-2.327 0.082l0.103-0.006c-0.665-0.048-1.441-0.076-2.224-0.076-5.808 0-11.262 1.515-15.989 4.171l0.164-0.085-42.155 42.24c-2.528 5.289-4.005 11.496-4.005 18.048s1.477 12.759 4.116 18.306l-0.111-0.258c4.948 2.49 10.783 3.948 16.959 3.948 6.244 0 12.139-1.49 17.35-4.134l-0.219 0.101zM253.909 169.259c0.001 0.098 0.001 0.214 0.001 0.331 0 17.613-7.38 33.502-19.217 44.743l-0.027 0.025c-11.442 11.774-27.428 19.079-45.12 19.079s-33.678-7.306-45.106-19.064l-0.014-0.015c-11.774-11.442-19.079-27.428-19.079-45.12s7.306-33.678 19.064-45.106l0.015-0.014c11.442-11.774 27.428-19.079 45.12-19.079s33.678 7.306 45.106 19.064l0.014 0.015c11.863 11.253 19.244 27.13 19.244 44.732 0 0.144 0 0.288-0.001 0.432v-0.022zM211.797 768.896v42.112c0 14.677 6.656 22.059 20.053 22.059 14.677 0 22.059-7.381 22.059-22.059v-42.112c0-14.763-7.381-22.059-22.059-22.059-13.397-0.171-20.053 7.296-20.053 22.059zM211.797 618.453h42.112v22.059c0 14.72-7.381 22.059-22.059 22.059-13.397 0-20.053-7.339-20.053-22.059zM257.92 708.693c-2.545 4.971-4.036 10.845-4.036 17.067s1.491 12.095 4.136 17.283l-0.1-0.216 42.112 44.117q28.032 12.032 36.096 0c2.528-5.289 4.005-11.496 4.005-18.048s-1.477-12.759-4.116-18.306l0.111 0.258-44.117-42.155c-2.688-2.688-8.021-4.011-16.043-4.011-9.387 0-15.403 1.323-18.048 4.011zM981.888 662.571h-599.637v-471.253h346.923c8.943 49.041 51.334 85.73 102.293 85.73s93.35-36.689 102.197-85.094l0.096-0.636h48.128zM510.592 425.941c0 14.677 7.339 22.059 22.059 22.059h106.283v106.283q0 22.101 22.059 22.059 20.053 0 20.053-22.059v-106.283h108.288c13.312 0 20.053-7.381 20.053-22.059 0-13.397-6.741-20.053-20.053-20.053h-108.288v-108.288c0-13.397-6.699-20.053-20.053-20.053-14.72 0-22.059 6.656-22.059 20.053v108.288h-106.283c-14.72 0-22.059 6.656-22.059 20.053zM895.659 169.259c0.004 0.275 0.007 0.599 0.007 0.924 0 35.982-29.17 65.152-65.152 65.152s-65.152-29.17-65.152-65.152c0-35.982 29.17-65.152 65.152-65.152 17.993 0 34.283 7.294 46.073 19.087v0c11.763 11.254 19.074 27.077 19.074 44.607 0 0.188-0.001 0.376-0.003 0.563v-0.029z" />
<glyph unicode="&#xe003;" glyph-name="bf-icon-angle-double-down" d="M5.12 836.949c-7.979 9.259-6.613 19.243 3.968 29.867q13.952 11.989 29.867-3.968l472.107-531.883 476.117 535.851q13.867 13.867 29.867 0 13.867-13.952 0-29.867l-487.979-551.765q-11.947-8.021-17.963-7.979t-17.92 7.979zM5.12 581.973c-7.979 9.259-6.613 19.243 3.968 29.867q13.952 11.947 29.867-3.968l472.107-531.883 476.117 535.851q13.867 13.952 29.867 0 13.867-13.952 0-29.867l-487.979-551.765q-11.947-8.021-17.963-7.979t-17.92 7.979z" />
<glyph unicode="&#xe004;" glyph-name="bf-icon-angle-double-left" d="M643.2 956.245q16.043 16.043 30.165 0t0-30.165l-536.832-476.587 540.843-480.555q14.080-14.080 0-30.165-14.080-14.080-30.123 0l-557.013 492.629c-5.376 8.064-8.021 14.080-8.021 18.091s2.645 10.069 8.021 18.133zM900.608 956.245q16.043 16.043 30.123 0t0-30.165l-536.875-476.587 540.928-480.555q13.995-14.080 0-30.165-14.080-14.080-30.165 0l-556.971 492.629q-8.064 12.075-8.064 18.091c0 4.267 2.688 10.069 8.064 18.133z" />
<glyph unicode="&#xe005;" glyph-name="bf-icon-angle-double-right" d="M128.341-51.627q-15.872-15.872-29.867 0t0 29.867l528.768 469.333-528.597 469.248q-15.829 15.787-3.968 29.867 15.872 15.787 29.867 3.968l548.437-485.589c5.248-7.936 7.936-13.867 7.936-17.835s-2.688-9.899-7.936-17.835zM381.867-51.627q-15.872-15.872-29.867 0t0 29.867l528.811 469.333-528.683 469.248q-15.872 15.787-3.925 29.867 15.787 15.787 29.867 3.968l548.395-485.589q7.936-11.904 7.936-17.835t-7.936-17.835z" />
<glyph unicode="&#xe006;" glyph-name="bf-icon-angle-double-up" d="M1018.027 313.771q11.989-16 0-29.867-16-13.952-31.957 0l-471.083 536.875-479.061-536.96q-11.947-13.952-27.947 0t0 29.867l486.955 553.003c7.979 5.291 13.995 7.979 17.963 7.979s9.984-2.688 17.963-7.979zM1018.027 58.283q11.989-16 0-29.867-16-13.995-31.957 0l-471.083 536.875-479.061-536.96q-11.947-13.995-27.947 0t0 29.867l486.955 553.003c7.979 5.291 13.995 7.979 17.963 7.979s9.984-2.688 17.963-7.979z" />
<glyph unicode="&#xe007;" glyph-name="bf-icon-angle-down" d="M5.12 709.461c-7.979 9.259-6.613 19.243 3.968 29.867q13.952 11.947 29.867-3.968l472.107-531.883 476.117 535.851q13.867 13.952 29.867 0 13.867-13.952 0-29.867l-487.979-551.595q-11.947-8.021-17.963-7.979t-17.92 7.979z" />
<glyph unicode="&#xe008;" glyph-name="bf-icon-angle-left" d="M769.749 952.021q15.957 15.957 29.867 0t0-29.867l-532.395-472.661 536.448-476.587q13.867-13.995 0-29.867-14.037-13.995-29.867 0l-552.448 488.533q-8.021 12.16-8.021 17.92t7.979 17.963z" />
<glyph unicode="&#xe009;" glyph-name="bf-icon-angle-right" d="M252.843-55.979q-16-16.043-29.867 0t0 29.867l533.333 473.6-533.333 473.6q-15.957 15.957-4.011 29.867 16 16 29.867 4.011l553.301-489.557c5.291-7.979 7.979-13.995 7.979-17.963s-2.688-9.984-7.979-18.005z" />
<glyph unicode="&#xe00a;" glyph-name="bf-icon-angle-up" d="M1018.027 186.027q11.989-16 0-29.867-16-14.037-31.957 0l-471.083 536.875-479.061-536.96q-11.947-14.037-27.947 0t0 29.867l486.955 553.003c7.979 5.291 13.995 7.979 17.963 7.979s9.984-2.688 17.963-7.979z" />
<glyph unicode="&#xe00b;" glyph-name="bf-icon-angles-v-alt" d="M933.76 919.125l-402.816-404.821c-5.428-2.522-11.781-3.993-18.479-3.993-0.524 0-1.045 0.009-1.565 0.027l0.075-0.002c-7.936 0-13.269 1.323-15.915 3.968l-402.859 404.821q-15.872 27.904 0 33.92c4.624 2.494 10.119 3.96 15.957 3.96s11.334-1.466 16.139-4.049l-0.182 0.089 386.859-390.869 390.869 390.869q15.957 13.867 31.915 0c2.49-4.948 3.948-10.784 3.948-16.96s-1.458-12.012-4.049-17.181l0.101 0.221zM933.76-26.112q11.989-13.952 0-29.867c-2.688-2.645-7.979-3.968-15.957-3.968-10.667 0-17.28 1.323-19.925 3.968l-386.901 386.901-386.859-386.944q-15.915-15.957-29.867 0t2.005 29.867l402.944 404.864q15.957 13.952 31.915 0z" />
<glyph unicode="&#xe00c;" glyph-name="bf-icon-angles-v" d="M931.285 548.224q13.867-13.995 0-29.867c-2.688-2.688-7.979-4.011-15.957-4.011-9.301 0-15.275 1.323-17.963 4.011l-386.859 386.816-391.040-390.869c-4.871-3.728-11.048-5.974-17.75-5.974-0.075 0-0.15 0-0.225 0.001h0.011c-6.656 0-10.624 2.005-11.947 5.973-2.49 4.948-3.948 10.784-3.948 16.96s1.458 12.012 4.049 17.181l-0.101-0.221 408.96 404.821q13.952 13.867 29.867 0zM914.219 381.824c6.602-0.252 12.554-2.848 17.088-6.974l-0.022 0.019q13.867-16 0-29.867l-402.816-404.821c-4.556-2.543-9.995-4.040-15.784-4.040-0.766 0-1.527 0.026-2.28 0.078l0.102-0.006c-7.979 0-11.989 1.323-11.989 3.968l-404.651 404.608q-13.909 13.952 0 29.867t29.867 0l386.859-386.901 386.859 390.869c3.69 2.129 8.115 3.384 12.834 3.384 1.419 0 2.811-0.114 4.169-0.332l-0.149 0.020z" />
<glyph unicode="&#xe00d;" glyph-name="bf-icon-arrow-down" d="M7.979 434.048q-15.957 13.909 0 29.867 15.957 13.952 27.947 0l451.115-453.12v924.245c0 14.635 7.296 21.973 21.973 21.973s21.931-7.339 21.931-21.973v-924.203l455.125 453.12q16 13.952 31.957 0 11.989-16 0-29.867l-491.051-491.093c-3.204-0.224-6.019-1.726-7.966-3.995l-0.013-0.015h-16c-4.469 0.52-8.516 1.945-12.083 4.087l0.136-0.076z" />
<glyph unicode="&#xe00e;" glyph-name="bf-icon-arrow-left-bottom" d="M0-44.075v886.528c0 14.592 8.533 21.931 25.899 21.931 13.269 0 19.925-7.339 19.925-21.931v-828.757l936.363 936.363q17.92 15.957 33.835 0 15.957-17.92 0-33.877l-934.4-936.363h818.859c14.592 0 21.931-6.656 21.931-19.925 0-14.635-7.339-21.888-21.931-21.888h-888.533c-5.058 4.956-9.106 10.921-11.821 17.571l-0.126 0.349z" />
<glyph unicode="&#xe00f;" glyph-name="bf-icon-arrow-left-top" d="M13.952 960h892.501c11.947 0 17.92-8.533 17.92-25.899q0-19.883-21.888-19.925h-824.789l936.32-936.32q15.957-17.92 0-33.877-17.92-15.957-33.835 0l-936.363 934.357v-818.816c0-14.635-6.656-21.888-19.883-21.888-14.635 0-21.931 7.253-21.931 21.888v888.533z" />
<glyph unicode="&#xe010;" glyph-name="bf-icon-arrow-left" d="M498.133 948.821q13.824 13.824 29.867 0 13.824-15.872 0-29.867l-449.493-447.189h916.48c14.507 0 21.803-7.253 21.803-21.76s-7.296-21.803-21.803-21.803h-916.48l449.323-451.328q13.824-13.824 0-29.867-15.872-13.867-29.867 0l-486.784 485.163c0.013 0.175 0.021 0.38 0.021 0.586 0 2.047-0.751 3.919-1.992 5.355l0.009-0.010c-1.137 0.975-1.887 2.374-2.004 3.949l-0.001 0.019v15.829c0.391 3.78 1.823 7.167 4 9.94l-0.032-0.042z" />
<glyph unicode="&#xe011;" glyph-name="bf-icon-arrow-right-bottom" d="M1004.075-64h-886.528q-21.931 0-21.931 25.899 0 19.925 21.931 19.925h828.757l-936.363 936.363q-15.957 17.92 0 33.835 17.92 15.957 33.877 0l936.363-934.4v822.912c0 14.592 6.613 21.888 19.925 21.888q21.888 0 21.888-21.888v-892.587c-4.956-5.058-10.921-9.106-17.571-11.821l-0.349-0.126z" />
<glyph unicode="&#xe012;" glyph-name="bf-icon-arrow-right-top" d="M1024 948.011v-891.989q0-22.016-22.016-22.016-20.011 0-20.011 22.016v827.989l-939.989-939.989q-17.963-16.043-34.133 0-16 18.005 0 34.133l938.155 939.861h-825.984c-14.72 0-21.888 6.656-21.888 19.968 0 14.677 7.168 22.016 21.888 22.016h896c5.291-5.333 7.979-9.344 7.979-11.989z" />
<glyph unicode="&#xe013;" glyph-name="bf-icon-arrow-right" d="M526.037-56.96c-9.387-9.387-19.371-9.387-30.080 0q-13.995 16 0 29.867l454.912 453.077h-927.829c-14.507 0-22.059 7.296-22.059 22.016s7.552 22.059 22.059 22.059h931.84l-452.907 452.864q-16.085 13.995 0 29.867 13.995 13.995 29.867 0l487.168-486.741c-0.018-0.203-0.029-0.439-0.029-0.678 0-2.054 0.772-3.927 2.041-5.346l-0.007 0.008c1.125-1.001 1.87-2.408 2.004-3.989l0.002-0.022v-16.043c-0.4-3.813-1.846-7.228-4.043-10.026l0.032 0.042z" />
<glyph unicode="&#xe014;" glyph-name="bf-icon-arrow-up" d="M1017.984 462.037c8.021-9.387 8.021-19.371 0-30.080q-16.043-13.995-32.043 0l-452.907 454.912v-927.829q0-22.101-22.059-22.059t-22.016 22.059v927.829l-452.907-448.896q-12.032-16.085-28.032 0-16.043 13.995 0 29.867l484.949 487.168c0.248-0.027 0.536-0.042 0.828-0.042 2.076 0 3.971 0.776 5.41 2.055l-0.008-0.007c1.439 1.259 3.335 2.028 5.411 2.028 0.213 0 0.424-0.008 0.633-0.024l-0.028 0.002h16c3.215-0.232 6.041-1.732 8.009-3.996l0.012-0.014z" />
<glyph unicode="&#xe015;" glyph-name="bf-icon-arrows-h" d="M1024 446.507v-11.989l-214.016-214.016c-2.6-0.327-4.962-1.033-7.139-2.066l0.142 0.060c-2.648-1.172-5.727-1.899-8.963-2.004l-0.039-0.001c-9.344 0-15.317 1.323-17.963 4.011q-16.043 13.952 0 29.867l179.968 178.005h-883.968l179.968-178.005q16-16 0-29.867c-2.688-2.688-8.533-4.011-18.005-4.011-7.979 0-13.312 1.323-16 4.011l-213.973 214.016c-2.688 2.645-4.011 7.979-4.011 16s6.016 13.995 18.005 18.005l203.861 203.989c3.856 3.669 9.085 5.926 14.841 5.926 0.453 0 0.902-0.014 1.348-0.041l-0.061 0.003c0.49 0.055 1.058 0.086 1.633 0.086 5.021 0 9.487-2.376 12.335-6.066l0.027-0.036c2.496-4.289 3.969-9.439 3.969-14.933s-1.473-10.645-4.046-15.077l0.077 0.144-176-173.995h875.989l-175.957 173.995q-16.043 16 0 29.867t29.867 0l205.995-203.989q12.117-5.888 12.117-21.888z" />
<glyph unicode="&#xe016;" glyph-name="bf-icon-arrows-left-right" d="M1024 612.523q0-8.064-11.989-20.011l-205.995-205.995c-2.688-2.688-8.021-4.011-16-4.011-7.127 0.053-13.526 3.127-17.988 8.003l-0.017 0.019q-13.995 15.957 0 29.867l176 176h-925.995c-14.72 0.128-22.016 6.784-22.016 20.096 0 14.677 7.296 22.016 22.016 22.016h933.973l-179.968 180.011q-13.995 13.952 0 29.867 15.957 13.952 29.867 0l213.973-214.016c2.639-5.861 4.177-12.705 4.177-19.908 0-0.681-0.014-1.359-0.041-2.034l0.003 0.097zM1024 276.523c0-14.72-7.339-22.016-22.016-22.016h-930.133l179.968-180.011q13.995-13.995 0-29.867c-2.688-2.688-8.533-4.011-18.005-4.011-7.979 0-13.312 1.323-16 4.011l-213.803 213.888c-2.688 2.645-4.011 8.533-4.011 18.005s6.016 16 18.005 19.968l203.861 206.037q13.952 15.915 29.867 0 13.995-16.085 0-29.867l-175.744-176.171h925.867q22.144 0 22.144-19.968z" />
<glyph unicode="&#xe017;" glyph-name="bf-icon-arrows-random" d="M821.589 574.037l130.987 130.944h-21.845q-23.808 0-75.392-3.968c-65.552-11.678-122.189-43.671-164.575-89.127l-0.161-0.174-148.736-146.859 212.309-212.309q55.467-55.467 117.12-55.467h77.397l-130.987 130.987q-15.957 15.872 0 29.867 13.824 13.824 29.867 0l168.704-168.704q15.872-15.872 0-29.867l-168.917-168.789c-2.645-3.968-8.533-5.931-17.835-5.931-7.936 0-13.227 1.963-15.872 5.931q-15.915 13.909 0 29.867l130.987 130.987h-77.397q-83.413 0-146.859 67.456l-115.2 113.109-97.237 97.237-212.267-210.432q-63.488-67.456-146.859-67.456h-126.976c-14.592 0-21.845 6.528-21.845 19.84 0 14.549 7.253 21.803 21.845 21.803h126.976q61.525 0 117.12 55.467l110.933 113.109 101.205 97.237-148.651 144.981q-73.429 73.387-164.736 93.269l-71.424 3.968h-71.424c-14.592 0-21.845 7.253-21.845 21.845 0 13.227 7.253 19.84 21.845 19.84h71.424q25.6 0 75.392-3.968 117.12-25.6 190.549-101.205l148.821-148.821 145.067 148.821q73.429 77.355 184.576 101.205c2.645 0 15.189 0.64 37.717 2.005s38.4 1.963 47.616 1.963h21.845l-130.987 130.987q-15.915 15.872 0 29.867 13.824 15.872 29.867 0l168.704-168.661q15.872-13.909 0-29.867l-169.045-168.704c-5.232-2.505-11.373-3.969-17.856-3.969s-12.624 1.463-18.111 4.078l0.255-0.109q-9.813 21.803 13.909 37.717z" />
<glyph unicode="&#xe018;" glyph-name="bf-icon-arrows-up-down" d="M340.523-64c-14.72 0-22.016 7.296-22.016 22.016v930.133l-180.011-180.139c-4.411-1.886-9.544-2.983-14.933-2.983s-10.522 1.097-15.188 3.079l0.254-0.096c-2.688 2.645-4.011 8.533-4.011 18.005 0 7.979 1.323 13.312 4.011 16l213.888 213.973c2.645 2.688 8.533 4.011 18.005 4.011 0.36 0.022 0.781 0.035 1.205 0.035 8.276 0 15.415-4.869 18.709-11.898l0.053-0.127 205.995-209.877q16-13.995 0-29.867-16-13.995-29.867 0l-176.128 175.744v-925.867c0-14.848-6.656-22.144-19.968-22.144zM676.523-64c-0.357-0.022-0.774-0.034-1.194-0.034-8.291 0-15.445 4.866-18.763 11.897l-0.054 0.126-205.995 205.995c-2.688 2.688-4.011 8.021-4.011 16 0.074 7.115 3.124 13.504 7.963 17.991l0.016 0.015q16 13.995 29.867 0l176-176v925.995q0 22.016 19.968 22.016 22.016 0 22.016-22.016v-933.973l180.011 179.968q13.952 13.995 29.867 0 13.952-16 0-29.867l-214.016-213.973c-5.857-2.635-12.697-4.171-19.895-4.171-0.626 0-1.249 0.012-1.87 0.035l0.090-0.003z" />
<glyph unicode="&#xe019;" glyph-name="bf-icon-arrows-v" d="M513.493-64c-9.301 0-15.317 1.323-18.005 4.011l-213.888 211.968c-0.163 3.642-0.885 7.065-2.081 10.257l0.076-0.23c-0.926 2.315-1.63 5.010-1.988 7.812l-0.017 0.167c0 8.021 1.323 12.032 4.011 12.032q16 15.957 29.867 0l180.011-178.005v882.005l-180.011-178.005q-14.037-13.995-29.867 0c-2.688 2.645-4.011 7.979-4.011 16 0 9.301 1.323 15.317 4.011 18.005l213.888 213.973c2.688 2.688 8.533 4.011 18.005 4.011 0.096 0.002 0.208 0.003 0.321 0.003 9.015 0 16.679-5.789 19.475-13.852l0.044-0.145 206.165-207.872q13.995-16.085 0-29.867-16-13.995-29.867 0l-176.299 173.739v-870.016l176 170.027q13.952 15.957 29.867 0 13.995-13.995 0-29.867l-205.867-204.16c-3.374-7.153-10.525-12.015-18.813-12.015-0.361 0-0.72 0.009-1.077 0.027l0.050-0.002z" />
<glyph unicode="&#xe01a;" glyph-name="bf-icon-at-sign" d="M1024 448v-105.984c-0.097-82.813-67.204-149.919-150.007-150.016h-0.009c-0.615-0.010-1.342-0.015-2.069-0.015-35.175 0-67.331 12.93-91.972 34.297l0.175-0.148c-25.56 21.473-43.556 51.217-49.866 85.071l-0.14 0.902q-78.080-120.107-218.112-120.107-103.979 0-180.011 75.989t-75.989 180.011q0 103.979 75.989 180.011t180.011 75.989q104.021 0 180.011-75.989t75.989-180.011v-105.984c-0.019-0.752-0.031-1.637-0.031-2.525 0-29.058 11.876-55.342 31.038-74.264l0.011-0.011c18.567-19.148 44.531-31.033 73.271-31.033 0.596 0 1.19 0.005 1.784 0.015l-0.089-0.001c0.616-0.013 1.341-0.020 2.068-0.020 58.533 0 105.984 47.451 105.984 105.984 0 0.727-0.007 1.453-0.022 2.177l0.002-0.108v105.771q0 198.016-138.027 331.989-133.931 138.027-331.989 138.027t-331.989-138.027q-138.027-134.016-138.027-331.989t138.027-331.989q133.931-138.069 331.989-138.027t331.989 138.027q16 13.952 29.867 0 16-16.043 0-29.867-149.803-150.144-361.856-150.144t-361.984 150.016q-150.016 149.931-150.016 361.984t150.016 361.984q149.973 150.016 361.984 150.016t361.984-150.016q150.016-149.973 150.016-361.984zM726.016 448q0 89.984-62.037 151.979t-151.979 62.037q-89.984 0-151.979-62.037t-62.037-151.979q0-89.984 62.037-151.979t151.979-62.037q89.984 0 151.979 62.037t62.037 151.979z" />
<glyph unicode="&#xe01b;" glyph-name="bf-icon-attachment-add" d="M597.333 701.824v-321.237q55.467 25.6 105.088 25.6 95.189 0 163.584-69.419t68.267-164.608q0-95.147-68.267-163.584t-163.584-68.267q-91.179 0-156.672 59.733-53.504-59.733-138.795-59.733-71.424 0-136.832 55.467-53.589 59.691-53.589 134.912v529.493c-0.022 0.875-0.035 1.905-0.035 2.938 0 34.011 13.628 64.839 35.722 87.32l-0.018-0.018q35.712 36.651 91.221 36.693 57.557 0 87.253-39.68 39.68-29.867 39.68-87.253v-233.984q0-19.84-21.803-19.84c-14.592 0-21.845 6.613-21.845 19.84v233.984c0.020 0.67 0.031 1.459 0.031 2.25 0 44.772-36.295 81.067-81.067 81.067-0.791 0-1.58-0.011-2.365-0.034l0.115 0.003c-0.468 0.010-1.019 0.015-1.571 0.015-23.073 0-43.928-9.494-58.872-24.789l-0.015-0.016c-15.286-14.57-24.792-35.087-24.792-57.824 0-0.236 0.001-0.472 0.003-0.708v0.036-529.493q0-63.488 41.643-105.088 49.536-43.648 107.093-43.648 63.403 0 109.056 51.584-45.653 57.472-45.611 138.795 0 109.056 83.285 178.517v350.976q0 91.179-63.445 148.736-57.515 63.488-146.773 63.488t-150.699-61.483q-61.483-61.525-61.483-150.741v-275.627q0-19.84-21.803-19.84-19.84 0-19.84 19.84v275.627c-0.019 1.132-0.030 2.468-0.030 3.806 0 68.911 28.491 131.167 74.335 175.633l0.062 0.060c44.515 45.931 106.777 74.44 175.697 74.44 1.322 0 2.641-0.010 3.957-0.031l-0.198 0.002q107.136 0 176.512-75.392 77.397-71.424 77.397-178.517zM702.379 362.667c-0.254 0.001-0.554 0.002-0.855 0.002-104.672 0-189.525-84.853-189.525-189.525 0-0.286 0.001-0.571 0.002-0.857v0.044c-0.001-0.229-0.002-0.499-0.002-0.77 0-104.719 84.892-189.611 189.611-189.611 0.271 0 0.541 0.001 0.812 0.002h-0.042c0.229-0.001 0.499-0.002 0.77-0.002 104.719 0 189.611 84.892 189.611 189.611 0 0.271-0.001 0.541-0.002 0.812v-0.042c0.001 0.241 0.002 0.527 0.002 0.813 0 104.672-84.853 189.525-189.525 189.525-0.301 0-0.601-0.001-0.901-0.002h0.046zM575.445 194.133h105.131v105.131q0 21.845 21.803 21.803t21.803-21.803v-105.088h105.131c14.507 0 21.803-7.296 21.803-21.845 0-13.227-7.296-19.797-21.803-19.797h-105.131v-107.093q0-19.84-21.803-19.84t-21.803 19.84v107.093h-105.131c-14.549 0-21.803 6.571-21.803 19.797q0 21.845 21.803 21.845z" />
<glyph unicode="&#xe01c;" glyph-name="bf-icon-attachment-remove" d="M596.395 699.264v-317.995q54.997 25.6 104.064 25.6 94.208 0 162.133-68.736t67.541-163.2q0-94.293-67.712-162.133t-162.133-67.712q-90.283 0-155.093 58.88-52.992-58.88-137.387-58.88-70.741 0-135.467 54.955-52.992 58.88-52.992 133.461v524.544c-0.023 0.88-0.036 1.917-0.036 2.956 0 33.647 13.5 64.141 35.379 86.361l-0.015-0.016q35.456 36.352 90.453 36.352 56.96 0 86.4-39.296 39.211-29.44 39.253-86.357v-231.637q0-19.627-21.589-19.627c-14.421 0-21.589 6.528-21.589 19.627v231.637c0.014 0.566 0.022 1.232 0.022 1.901 0 44.489-36.066 80.555-80.555 80.555-0.683 0-1.364-0.009-2.043-0.025l0.101 0.002c-0.449 0.009-0.979 0.014-1.51 0.014-22.817 0-43.439-9.397-58.207-24.531l-0.016-0.016c-15.129-14.442-24.536-34.766-24.536-57.287 0-0.215 0.001-0.43 0.003-0.644v0.033-524.16q0-62.848 41.216-104.021 49.024-43.221 106.027-43.179 62.805 0 107.947 51.2-45.312 56.704-45.269 137.045 0 107.904 82.432 176.683v347.648q0 90.283-62.805 147.243-56.96 62.805-145.067 62.805t-149.333-60.843q-60.8-60.885-60.843-149.333v-273.067q0-19.627-21.589-19.627-19.669 0-19.627 19.627v273.195c-0.020 1.154-0.031 2.516-0.031 3.881 0 68.154 28.163 129.73 73.486 173.725l0.060 0.058c44.074 45.433 105.694 73.629 173.9 73.629 1.323 0 2.644-0.011 3.963-0.032l-0.199 0.003q106.027 0 174.933-74.581 76.331-70.656 76.331-176.683zM700.459 363.605c-0.216 0.001-0.472 0.001-0.728 0.001-103.682 0-187.733-84.051-187.733-187.733 0-0.331 0.001-0.661 0.003-0.991v0.051c-0.001-0.216-0.001-0.471-0.001-0.727 0-103.682 84.051-187.733 187.733-187.733 0.256 0 0.511 0.001 0.766 0.002h-0.039c0.216-0.001 0.471-0.001 0.727-0.001 103.682 0 187.733 84.051 187.733 187.733 0 0.256-0.001 0.511-0.002 0.766v-0.039c0.001 0.216 0.001 0.471 0.001 0.727 0 103.682-84.051 187.733-187.733 187.733-0.256 0-0.511-0.001-0.766-0.002h0.039zM574.805 196.736h251.307q21.589 0 21.589-21.589 0-19.669-21.589-19.627h-251.307q-21.589 0-21.589 19.627 0 21.547 21.589 21.589z" />
<glyph unicode="&#xe01d;" glyph-name="bf-icon-attachment" d="M598.016 425.984v236.032c0 0.101 0.001 0.22 0.001 0.34 0 23.249-10.013 44.159-25.962 58.653l-0.065 0.058c-15.313 15.439-36.535 24.998-59.989 24.998s-44.677-9.558-59.984-24.992l-0.006-0.006c-16.014-14.552-26.027-35.462-26.027-58.711 0-0.090 0-0.179 0-0.269v0.014-534.101c0.17-82.783 67.233-149.846 150-150.016h0.016c82.783 0.17 149.846 67.233 150.016 150v576.016q0 89.984-62.037 151.979t-151.979 62.037q-89.984 0-151.979-62.037t-62.037-151.979v-278.016q0-19.968-19.968-19.968c-14.72 0-22.016 6.656-22.016 19.968v278.016q0 103.979 75.989 180.011t180.011 75.989q104.021 0 180.011-75.989t75.989-180.011v-576c0.001-0.254 0.002-0.554 0.002-0.855 0-105.567-85.579-191.147-191.147-191.147-0.301 0-0.601 0.001-0.901 0.002h0.046c-0.254-0.001-0.554-0.002-0.855-0.002-105.567 0-191.147 85.579-191.147 191.147 0 0.301 0.001 0.601 0.002 0.901v-0.046 534.016c-0.006 0.472-0.010 1.030-0.010 1.589 0 69.821 56.601 126.421 126.421 126.421 0.559 0 1.116-0.004 1.673-0.011l-0.084 0.001c0.472 0.006 1.030 0.010 1.589 0.010 69.821 0 126.421-56.601 126.421-126.421 0-0.559-0.004-1.116-0.011-1.673l0.001 0.084v-236.032q0-19.968-22.016-19.968-19.968 0-19.968 19.968z" />
<glyph unicode="&#xe01e;" glyph-name="bf-icon-badge-ribbon" d="M94.976 52.011c-5.291 3.968-5.291 10.667 0 20.011l176 307.968q-96.043 108.032-96.043 237.995 0 141.995 100.011 242.005t240.043 100.011q139.947 0 242.005-100.011t102.016-242.005q0-136.021-108.032-237.995l180.011-307.968c2.688-4.011 2.688-10.709 0-20.011-5.307-6.199-13.141-10.103-21.886-10.103-0.736 0-1.466 0.028-2.189 0.082l0.096-0.006-116.011 18.005-43.989-112q0-11.989-16-11.989c-10.709 0-17.365 2.645-20.011 8.021l-192 333.995h-16l-192-333.995c-8.064-5.376-13.355-8.021-16-8.021-0.231-0.012-0.501-0.019-0.773-0.019-7.353 0-13.522 5.068-15.205 11.901l-0.022 0.107-43.989 112-119.808-18.005q-16.213 0-20.224 10.027zM150.997 93.867l92.203 12.117q19.968 0 24.021-16l35.712-85.973 156.075 281.856q-76.032 10.112-156.075 68.267zM219.008 617.984q0-124.032 85.973-210.987t210.005-86.997q124.032 0 212.011 86.997t87.936 210.987q0 125.995-87.979 213.035t-211.968 86.997q-124.032 0-210.005-86.997t-85.973-213.035zM302.976 617.984q0 90.027 62.037 152.021t151.979 61.995q89.984 0 152.021-61.995t61.995-152.021c0.017-0.996 0.027-2.17 0.027-3.347 0-57.498-23.749-109.449-61.973-146.579l-0.049-0.048q-61.995-61.995-152.021-61.995t-151.979 61.995c-38.323 37.165-62.107 89.132-62.107 146.655 0 1.167 0.010 2.332 0.029 3.494l-0.002-0.175zM347.008 617.984c-0.010-0.681-0.016-1.485-0.016-2.291 0-46.195 19.163-87.914 49.973-117.641l0.049-0.047c30.632-30.881 73.084-49.999 120-49.999s89.368 19.118 119.989 49.988l0.011 0.011c30.81 29.814 49.935 71.539 49.935 117.732 0 0.79-0.006 1.579-0.017 2.366l0.001-0.119c0.006 0.546 0.010 1.191 0.010 1.837 0 46.641-19.101 88.821-49.908 119.144l-0.022 0.021c-30.327 31.533-72.876 51.122-120 51.122s-89.673-19.589-119.948-51.068l-0.052-0.054c-30.878-30.306-50.016-72.48-50.016-119.125 0-0.66 0.004-1.32 0.011-1.978l-0.001 0.1zM883.2 93.867l-152.192 260.267q-76.032-56.021-160-68.011l163.968-277.973 32 85.973c0 8.021 8.021 11.989 24.021 11.989z" />
<glyph unicode="&#xe01f;" glyph-name="bf-icon-badge" d="M4.011 356.181l77.824 93.867-77.824 93.739q-4.011 3.968-4.011 21.973 6.016 11.989 21.931 11.947h123.733c-8.725 10.52-14.019 24.159-14.019 39.035 0 1.007 0.024 2.009 0.072 3.004l-0.005-0.14c-0.027 0.761-0.042 1.654-0.042 2.551 0 22.090 9.188 42.034 23.952 56.218l0.026 0.025c14.54 14.255 34.476 23.053 56.467 23.053 0.504 0 1.006-0.005 1.507-0.014l-0.075 0.001h7.979q19.883 0 25.941 11.989c4.117 8.716 6.952 18.843 7.951 29.504l0.027 0.363v4.011c-0.032 0.837-0.050 1.819-0.050 2.805 0 22.106 9.191 42.065 23.961 56.263l0.026 0.024c14.531 14.205 34.432 22.969 56.381 22.969 0.534 0 1.066-0.005 1.597-0.015l-0.080 0.001q29.867 0 45.867-13.995c5.831-3.379 12.828-5.373 20.292-5.373 3.785 0 7.45 0.513 10.93 1.473l-0.288-0.068c10.757 2.179 19.654 8.782 24.865 17.785l0.095 0.178q17.963 45.824 71.851 45.867 51.84 0 71.851-41.899c5.063-10.329 13.874-18.168 24.617-21.841l0.3-0.089c3.528-1.458 7.624-2.305 11.918-2.305 7.161 0 13.772 2.355 19.1 6.333l-0.084-0.060q57.856 37.888 101.803-11.989 21.888-19.968 21.931-59.733v-3.968q0-37.973 37.931-37.931h7.979q49.877 0 73.813-41.899 19.968-43.904-5.973-81.835h123.733q17.963 0 17.963-11.947c3.968-10.667 3.968-17.963 0-21.973l-77.824-93.867 77.824-93.867c6.656-3.968 7.979-11.307 3.968-21.931-3.968-7.979-11.307-11.989-21.931-11.989h-123.733c8.724-10.53 14.017-24.179 14.017-39.064 0-0.997-0.024-1.989-0.071-2.974l0.005 0.139c0-0.013 0-0.028 0-0.043 0-45.172-36.62-81.792-81.792-81.792h-7.979c-6.699 0-15.317-3.968-25.941-11.947-4.13-8.716-6.967-18.845-7.952-29.511l-0.027-0.356v-3.968c0.032-0.835 0.050-1.815 0.050-2.799 0-22.094-9.192-42.041-23.96-56.226l-0.026-0.025c-14.506-14.204-34.385-22.969-56.312-22.969-0.543 0-1.084 0.005-1.625 0.016l0.081-0.001q-29.867 0-45.909 13.952-37.888 19.968-55.851-17.963-18.005-45.867-71.851-45.867t-71.893 45.781q-18.005 37.888-55.893 17.963-57.856-37.845-101.547 11.989-22.016 19.883-21.973 59.733v4.011q0 37.888-37.888 37.888h-8.192q-49.92 0-73.856 41.941-19.968 43.819 5.973 81.792h-123.733q-15.915 0-21.931 11.989 0 18.091 4.011 22.059zM63.744 364.203h890.027l-59.733 73.813c-1.895 3.462-3.010 7.585-3.010 11.968s1.115 8.506 3.076 12.1l-0.066-0.132 59.733 73.856h-889.771l59.733-73.856c1.871-3.468 2.97-7.589 2.97-11.968s-1.099-8.5-3.037-12.105l0.067 0.137zM187.477 577.536h638.72c1.28 2.645 3.285 6.997 5.973 12.8s4.651 10.283 5.973 12.8q18.005 21.931 4.011 37.931-13.995 21.931-33.92 21.931v0c-0.489-0.011-1.065-0.018-1.642-0.018-21.778 0-41.404 9.213-55.193 23.954l-0.039 0.043c-14.182 14.138-22.957 33.694-22.957 55.298 0 0.194 0.001 0.388 0.002 0.582v-0.030 4.011c0.713 2.453 1.123 5.27 1.123 8.184 0 8.49-3.483 16.166-9.097 21.679l-0.005 0.005q-22.016 21.931-51.883 4.011c-12.722-9.44-28.733-15.111-46.069-15.111-7.774 0-15.281 1.14-22.364 3.263l0.551-0.142c-22.989 5.827-41.586 21.169-51.677 41.483l-0.206 0.459q-9.984 19.883-34.133 19.925t-34.133-19.925c-10.662-21.076-29.529-36.693-52.289-42.792l-0.575-0.131c-24.661-7.339-46.933-4.267-66.859 8.96-6.185 4.767-14.043 7.641-22.572 7.641-20.524 0-37.163-16.638-37.163-37.163 0-0.121 0.001-0.242 0.002-0.363v0.018q0-37.931-19.968-59.733c-15.395-14.838-36.37-23.979-59.48-23.979-0.089 0-0.178 0-0.267 0h-7.794c-0.422 0.018-0.917 0.028-1.415 0.028-11.033 0-20.906-4.961-27.512-12.775l-0.044-0.053c-6.547-7.079-10.661-16.493-10.964-26.863l-0.001-0.060q0-16 6.016-19.968c5.291-5.12 8.107-13.739 8.107-25.728zM834.048 326.101h-638.464c-5.333-10.667-9.344-19.285-11.989-25.941q-16-19.968-3.968-37.931c9.259-14.635 20.608-21.931 33.92-21.931h4.053c0.494 0.012 1.076 0.018 1.66 0.018 21.772 0 41.393-9.213 55.175-23.954l0.040-0.043c14.183-14.177 22.956-33.766 22.956-55.404 0-0.157 0-0.314-0.001-0.471v0.024-4.011q-4.011-19.968 9.984-29.867c13.269-14.677 29.867-16 49.877-4.011 13.989 7.152 30.439 11.567 47.865 12.113l0.178 0.004q53.888 0 71.851-45.909c6.613-13.312 17.963-19.968 33.92-19.968s27.221 6.656 34.133 19.968q15.957 31.872 53.888 42.923t65.835-9.003q19.968-13.952 39.936-4.992t19.925 34.944q0 37.888 19.968 59.733 27.904 23.936 59.733 23.936h4.011l3.968-19.968v19.968c0.411-0.017 0.892-0.026 1.376-0.026 11.044 0 20.93 4.96 27.551 12.774l0.043 0.053c6.553 7.091 10.668 16.521 10.964 26.906l0.001 0.059q0 5.973-9.984 19.925c-5.632 5.632-8.277 15.445-8.277 30.251zM221.525 501.888c-0.266 0.007-0.58 0.010-0.894 0.010-11.466 0-21.782-4.927-28.945-12.779l-0.028-0.031c-7.404-7.872-11.953-18.503-11.953-30.196 0-0.259 0.002-0.518 0.007-0.776l-0.001 0.039c-0.009-0.322-0.014-0.701-0.014-1.081 0-22.551 18.281-40.832 40.832-40.832 0.38 0 0.759 0.005 1.137 0.016l-0.056-0.001c0.296-0.008 0.644-0.012 0.993-0.012 22.598 0 40.917 18.319 40.917 40.917 0 0.349-0.004 0.698-0.013 1.045l0.001-0.051c0.003 0.201 0.005 0.439 0.005 0.676 0 11.72-4.566 22.373-12.015 30.279l0.021-0.022c-7.184 7.885-17.495 12.814-28.957 12.814-0.365 0-0.729-0.005-1.091-0.015l0.053 0.001zM800.256 501.888c-0.266 0.007-0.58 0.010-0.894 0.010-11.466 0-21.782-4.927-28.945-12.779l-0.028-0.031c-7.429-7.884-11.995-18.537-11.995-30.257 0-0.238 0.002-0.475 0.006-0.712v0.036c-0.014-0.399-0.021-0.867-0.021-1.338 0-23.164 18.778-41.941 41.941-41.941s41.941 18.778 41.941 41.941c0 0.47-0.008 0.939-0.023 1.406l0.002-0.068c0.003 0.201 0.005 0.439 0.005 0.676 0 11.72-4.566 22.373-12.015 30.279l0.021-0.022c-7.184 7.885-17.495 12.814-28.957 12.814-0.365 0-0.729-0.005-1.091-0.015l0.053 0.001z" />
<glyph unicode="&#xe020;" glyph-name="bf-icon-ban" d="M1024 448q0-212.011-150.016-361.984t-361.984-150.016q-212.011 0-361.984 150.016t-150.016 361.984q0 211.968 150.016 361.984t361.984 150.016 361.984-150.016 150.016-361.984zM512-22.016q176 0 315.989 124.032l-661.973 661.973q-124.032-139.989-124.032-315.989 0-196.011 141.995-328.021 132.053-142.037 328.021-141.995zM982.016 448q0 193.963-141.995 331.989-128.043 138.027-328.021 138.027-169.984 0-315.989-124.032l662.101-662.101q123.904 146.091 123.904 316.117z" />
<glyph unicode="&#xe021;" glyph-name="bf-icon-bar-chart" d="M112.981 269.995c12.193-12.744 20.507-29.29 22.991-47.686l0.049-0.442v-89.984c0.004-0.259 0.006-0.564 0.006-0.87 0-18.496-7.668-35.202-19.998-47.112l-0.019-0.018c-11.911-12.274-28.561-19.89-46.99-19.89-0.355 0-0.71 0.003-1.063 0.008l0.053-0.001c-0.28-0.004-0.611-0.007-0.942-0.007-18.474 0-35.157 7.669-47.039 19.997l-0.019 0.020c-12.348 11.901-20.017 28.584-20.017 47.058 0 0.331 0.002 0.662 0.007 0.992l-0.001-0.050v89.856c-0.004 0.264-0.006 0.576-0.006 0.888 0 18.491 7.668 35.191 19.997 47.094l0.019 0.019c11.948 12.499 28.753 20.27 47.373 20.27 0.22 0 0.441-0.001 0.661-0.003h-0.034c0.027 0 0.060 0 0.092 0 17.819 0 33.825-7.758 44.827-20.080l0.052-0.059zM1024 0q0-22.016-22.016-22.016h-979.968c-14.72 0-22.016 8.533-22.016 26.027 0 14.635 7.296 21.973 22.016 21.973h979.968q22.016 0 22.016-25.984zM86.016 136.021v90.112q0 21.973-22.016 21.973t-22.016-21.973v-89.984q0-20.011 26.027-20.011 21.973 0 21.973 20.011zM242.005 539.008c12.519 11.757 29.416 18.98 48 18.98s35.481-7.223 48.037-19.014l-0.037 0.035c12.362-11.816 20.047-28.436 20.047-46.85 0-0.764-0.013-1.526-0.040-2.284l0.003 0.11v-354.133c-0.241-37.385-30.494-67.624-67.862-67.84h-0.021c0 0 0 0 0 0-37.613 0-68.121 30.418-68.266 67.997v354.147c-0.019 0.584-0.030 1.271-0.030 1.961 0 18.451 7.735 35.094 20.14 46.866l0.028 0.027zM304.981 507.008c-2.803 3.282-6.946 5.35-11.571 5.35-1.161 0-2.292-0.13-3.378-0.377l0.102 0.019q-22.016 0-22.016-22.016v-354.133q0-20.011 22.016-20.011t21.973 20.011v354.133c0.001 0.091 0.002 0.199 0.002 0.307 0 6.566-2.731 12.494-7.12 16.709l-0.008 0.007zM464 363.008c11.753 12.918 28.632 20.995 47.398 20.995 0.212 0 0.423-0.001 0.634-0.003h-0.032c37.503-0.145 67.866-30.508 68.011-67.997v-179.982c0-37.561-30.449-68.011-68.011-68.011s-68.011 30.449-68.011 68.011v0 179.968c0.155 18.433 7.783 35.055 19.999 47.007l0.012 0.012zM512 338.005q-22.016 0-22.016-22.016v-179.968q0-20.011 22.016-20.011t22.016 20.011v179.968q0 22.016-22.016 22.016zM690.005 672.981c12.732 12.204 29.286 20.511 47.694 22.95l0.434 0.047c37.488-0.145 67.842-30.483 68.011-67.952v-492.005c0-37.561-30.449-68.011-68.011-68.011s-68.011 30.449-68.011 68.011v0 491.989c-0.001 0.14-0.002 0.306-0.002 0.472 0 17.652 7.656 33.515 19.829 44.45l0.055 0.049zM733.867 648.021c-14.677 0-21.973-6.699-21.973-20.011v-491.989c0-13.355 7.296-20.011 21.973-20.011s22.016 6.656 22.016 20.011v491.989c0.128 13.312-7.211 20.011-22.016 20.011zM1024 850.005v-713.984c0-37.561-30.449-68.011-68.011-68.011s-68.011 30.449-68.011 68.011v0 713.984c-0.003 0.243-0.005 0.529-0.005 0.816 0 18.513 7.666 35.236 19.998 47.166l0.018 0.017c12.251 12.357 29.232 20.007 48 20.007s35.749-7.65 47.995-20.002l0.005-0.005c12.349-11.948 20.016-28.67 20.016-47.184 0-0.287-0.002-0.574-0.006-0.86v0.043zM982.016 850.005c0 13.312-7.339 20.011-22.016 20.011s-22.016-6.699-22.016-20.011v-713.984q0-20.011 22.016-20.011t22.016 20.011z" />
<glyph unicode="&#xe022;" glyph-name="bf-icon-barbecue" d="M964.779 598.699c10.588-11.593 17.073-27.089 17.073-44.1 0-0.321-0.002-0.641-0.007-0.961l0.001 0.048v-16.085q-27.989-89.984-111.915-89.984h-42.197q-83.968-115.968-199.936-153.899l83.968-153.941c9.639 6.261 21.43 9.984 34.089 9.984 0.015 0 0.031 0 0.046 0h-0.002c0.641 0.014 1.397 0.022 2.155 0.022 58.439 0 105.813-47.374 105.813-105.813 0-0.758-0.008-1.514-0.024-2.268l0.002 0.113c0.009-0.5 0.014-1.090 0.014-1.682 0-28.736-11.866-54.7-30.966-73.26l-0.024-0.024c-18.968-19.149-45.268-31.005-74.338-31.005-0.866 0-1.729 0.011-2.59 0.031l0.128-0.002q-46.336 0.128-76.203 29.995t-29.867 75.947c0.002 4.291 0.721 8.413 2.042 12.254l-0.079-0.265c1.121 2.961 1.842 6.385 2.003 9.955l0.003 0.072h-323.968l-67.883-115.84c-2.942-7.093-9.811-11.99-17.824-11.99-0.064 0-0.128 0-0.191 0.001h-7.969q-16 16-7.979 29.867l183.893 327.851q-131.883 47.957-201.899 153.899h-41.984q-81.963 0-111.957 85.973c-2.525 5.381-3.998 11.685-3.998 18.334 0 0.575 0.011 1.147 0.033 1.716l-0.002-0.082c-0.005 0.296-0.008 0.645-0.008 0.994 0 16.985 6.487 32.456 17.119 44.068l-0.044-0.049c10.181 11.745 25.123 19.13 41.79 19.13 0.458 0 0.915-0.006 1.371-0.017l-0.068 0.001h29.867c-2.61 16.743-4.101 36.054-4.101 55.713 0 2.914 0.033 5.82 0.098 8.718l-0.008-0.431q0 21.931 22.016 21.973h723.541q22.016 0 22.016-21.973c0.053-2.379 0.083-5.184 0.083-7.995 0-19.761-1.488-39.175-4.359-58.135l0.265 2.13h29.867c0.386 0.010 0.841 0.015 1.298 0.015 16.643 0 31.574-7.33 41.741-18.938l0.055-0.064zM174.165 489.728q-11.947 18.005-34.133 85.973h-37.632q-16 0-16-22.016v-7.979q19.968-56.021 67.968-55.979zM853.845 661.632h-683.691q9.984-145.92 107.947-243.883t233.899-97.749q135.936 0 233.899 97.92t107.947 243.712zM358.059 465.749q16-20.011 4.011-29.867c-3.006-5.924-9.029-9.926-15.992-9.984h-0.008c-0.165-0.004-0.36-0.006-0.555-0.006-5.002 0-9.653 1.499-13.53 4.073l0.090-0.056q-77.952 61.781-105.941 163.755-7.979 13.995 11.989 24.021 22.016 5.973 29.867-16 22.144-91.989 90.069-135.936zM328.192 785.749c9.301 8.021 13.995 16 13.995 24.021 0 9.301-4.693 17.963-13.995 25.984q-29.867 27.989-29.867 59.733t29.867 59.989c3.544 2.721 8.042 4.36 12.923 4.36 6.884 0 13.006-3.26 16.906-8.321l0.037-0.050q8.021-17.963-3.925-29.867c-7.156-6.448-11.715-15.658-11.988-25.936l-0.001-0.048c0.249-10.358 4.814-19.602 11.957-26.041l0.032-0.029c18.184-12.912 29.905-33.892 29.905-57.61 0-0.822-0.014-1.64-0.042-2.455l0.003 0.118q0-36.053-29.867-59.989c-2.855-2.519-6.628-4.057-10.761-4.057-0.432 0-0.861 0.017-1.285 0.050l0.056-0.004c-0.231-0.010-0.503-0.015-0.775-0.015-7.312 0-13.688 4.007-17.051 9.945l-0.051 0.097q-12.203 11.947 3.84 29.952zM584.192 285.995q-52.011-8.021-71.979-7.979c-25.711 0.269-50.602 3.114-74.628 8.29l2.436-0.44-97.92-179.968h320c2.021 2.136 3.976 4.416 5.818 6.789l0.156 0.209c2.688 3.328 4.693 5.675 6.016 6.997zM500.011 785.579c7.979 8.021 11.989 16 11.989 24.021-0.306 10.32-4.857 19.519-11.959 25.957l-0.031 0.027q-29.867 23.936-29.867 59.733t29.867 59.989c3.493 2.067 7.698 3.288 12.189 3.288 1.346 0 2.666-0.11 3.951-0.321l-0.14 0.019c5.662-0.026 10.7-2.673 13.966-6.79l0.028-0.037q7.936-19.968-6.016-29.867c-7.16-6.478-11.719-15.716-11.988-26.022l-0.001-0.048c0.295-10.322 4.849-19.525 11.958-25.956l0.031-0.028c18.183-12.894 29.907-33.861 29.907-57.567 0-0.837-0.015-1.671-0.044-2.5l0.003 0.12q0-36.053-29.867-59.989c-2.855-2.519-6.628-4.057-10.761-4.057-0.432 0-0.861 0.017-1.285 0.050l0.056-0.004q-7.979 0-18.005 10.027-11.861 11.947 6.016 29.952zM669.909 785.579c8.021 8.021 11.989 16 11.989 24.021-0.296 10.33-4.868 19.537-11.999 25.955l-0.033 0.029q-29.867 23.936-29.867 59.733t29.867 59.989c3.704 2.092 8.133 3.324 12.85 3.324 1.489 0 2.949-0.123 4.371-0.359l-0.154 0.021c7.296-0.683 11.648-2.987 12.8-6.997q8.021-18.005-4.011-29.867c-9.301-7.979-13.995-16.683-13.995-25.984s4.693-17.963 13.995-25.984q29.867-24.021 29.867-59.947 0-34.133-29.867-59.989c-3.265-2.567-7.436-4.116-11.968-4.116-0.714 0-1.419 0.038-2.113 0.113l0.086-0.008c-6.969 0.063-12.984 4.085-15.91 9.923l-0.047 0.104q-11.861 12.032 4.096 30.037zM745.899 105.899c-0.263 0.004-0.574 0.006-0.885 0.006-35.818 0-64.853-29.036-64.853-64.853s29.036-64.853 64.853-64.853c35.818 0 64.853 29.036 64.853 64.853 0 17.91-7.26 34.124-18.997 45.861v0c-11.186 11.71-26.924 18.99-44.362 18.99-0.214 0-0.428-0.001-0.641-0.003h0.033zM937.899 553.685q0 22.016-12.032 22.016h-37.973c-10.99-34.138-22.554-62.589-35.906-90.007l1.773 4.034h16q53.973 0 67.968 55.979z" />
<glyph unicode="&#xe023;" glyph-name="bf-icon-basketball" d="M136.021 102.016q-136.021 151.936-136.021 345.984 0 211.968 150.016 361.984t361.984 150.016q147.968 0 274.005-86.016c1.598-0.123 3.004-0.854 4.006-1.958l0.004-0.005c0.957-1.161 2.366-1.919 3.954-2.005l0.014-0.001c69.392-47.241 125.668-108.658 165.629-180.407l1.368-2.676c39.646-69.254 63.025-152.224 63.025-240.654 0-0.895-0.002-1.79-0.007-2.684l0.001 0.137q0-194.005-132.011-341.973l-4.011-4.011q-155.947-161.749-375.979-161.749-215.979 0-372.011 162.133c-0.149-0.022-0.32-0.035-0.495-0.035-1.932 0-3.499 1.566-3.499 3.499 0 0.148 0.009 0.293 0.027 0.436l-0.002-0.017zM45.995 486.016q114.005 67.968 265.984 98.133 6.016 91.989-37.973 179.968-28.032 43.947-43.989 59.989-162.048-130.133-184.021-338.091zM221.867 331.989q64 114.005 86.016 198.016v4.011c-98.722-19.442-186.521-53.502-265.941-100.271l3.925 2.138q9.984-157.867 100.011-274.005 20.096 78.123 75.989 170.112zM489.856-22.144v576c-48.143-0.276-95.073-4.626-140.708-12.722l4.985 0.733c-0.16-3.626-0.881-7.035-2.080-10.21l0.075 0.226c-1.243-3.572-1.975-7.69-2.005-11.975v-0.014q-16-70.059-89.984-208.043-70.016-130.005-80-192 123.861-125.824 309.845-141.867zM489.856 913.877q-125.952-10.069-221.867-70.016 12.032-11.947 43.989-64 48-93.867 42.027-192c40.864 8.868 87.817 13.963 135.955 13.995h0.024zM708.011 802.133q13.952 21.931 34.133 52.011c-60.16 33.161-131.037 54.758-206.432 59.904l-1.568 0.086v-312.149c48.082-0.054 94.945-5.147 140.126-14.781l-4.403 0.786c-1.431 12.514-2.247 27.017-2.247 41.71 0 62.821 14.919 122.157 41.408 174.658l-1.017-2.225zM843.989 124.117q-11.989 71.979-84.011 214.016-70.016 139.733-85.845 208c-42.070 7.596-90.509 11.956-139.96 11.989h-0.029v-576q185.856 9.856 309.845 141.867zM779.989 828.117q-19.968-29.867-29.867-48c-23.088-46.099-36.603-100.44-36.603-157.937 0-14.816 0.897-29.421 2.641-43.766l-0.171 1.725q128-22.016 262.016-93.867-22.016 219.691-198.016 341.717zM802.133 358.016q72.021-152.064 82.005-192 85.973 123.989 93.867 269.995-100.011 61.952-251.989 98.133 18.005-68.181 76.117-176.128z" />
<glyph unicode="&#xe024;" glyph-name="bf-icon-beach" d="M35.243 340.949q-64 128-11.989 270.677t191.787 222.72l34.133 17.963q143.829 65.92 289.621 23.979t211.712-165.803l6.016-3.968q15.915-22.016-9.984-29.867h-16c-10.196 3.425-21.937 5.401-34.14 5.401-19.325 0-37.493-4.957-53.301-13.668l0.571 0.288c-27.090-13.166-47.931-35.655-58.649-63.202l-0.273-0.798c-6.699-11.989-15.317-16.683-25.984-13.995q-39.979 9.984-81.877-9.984t-58.112-57.941q39.936-81.92 51.925-101.888 16-27.947 75.904-149.803 6.016-16-11.989-25.984t-25.941 6.016l-128 251.733c-5.508 0.808-11.867 1.269-18.334 1.269-24.099 0-46.701-6.408-66.195-17.612l0.647 0.343q-39.936-22.016-51.925-61.909c-7.979-10.667-16.683-14.677-25.984-11.989-9.5 2.702-20.411 4.256-31.685 4.256-20.059 0-38.969-4.919-55.59-13.617l0.661 0.315c-27.157-12.585-48.071-34.801-58.66-62.16l-0.263-0.773q0-13.952-16-13.952c-0.494-0.040-1.069-0.062-1.649-0.062-9.264 0-17.187 5.744-20.4 13.866l-0.052 0.148zM1024 195.157c0-14.677-7.339-21.973-21.973-21.973q-27.989 0-71.893-16c-24.807-16.272-55.205-25.954-87.865-25.954-0.715 0-1.429 0.005-2.142 0.014l0.108-0.001q-53.973 0-93.867 25.941-39.979 16-71.936 16t-71.893-16c-25.48-16.276-56.55-25.942-89.877-25.942s-64.397 9.666-90.558 26.348l0.681-0.406q-39.979 16-71.936 16t-71.893-16q-59.733-21.973-93.867-21.973-41.984 0-89.899 25.984-43.989 16-71.936 16c-14.635 0-21.931 7.296-21.931 21.973s7.296 21.973 21.931 21.973q43.989 0 87.893-25.984 49.92-18.005 73.941-17.963 31.872 0 71.893 17.963 47.957 25.899 93.867 25.984 41.984 0 89.899-25.984 43.904-18.005 71.893-17.963t71.893 17.963q47.957 25.899 89.856 25.984 45.952 0 93.867-25.984 39.936-18.005 71.893-17.963 24.021 0 73.899 17.963 43.904 25.899 87.893 25.984c14.72 0 22.059-8.704 22.059-25.984zM1024 67.157c0-14.677-7.339-21.973-21.973-21.973q-27.989 0-71.893-16c-24.774-16.272-55.139-25.955-87.766-25.955-0.75 0-1.498 0.005-2.246 0.015l0.113-0.001q-53.973 0-93.867 25.941-39.979 16-71.936 16t-71.893-16c-25.48-16.276-56.55-25.942-89.877-25.942s-64.397 9.666-90.558 26.348l0.681-0.406q-39.979 16-71.936 16t-71.893-16q-59.733-22.016-93.867-21.973-41.984 0-89.899 25.984-43.989 16.085-71.936 16.128-21.931 0-21.931 21.973c0 14.677 7.296 21.973 21.931 21.973q43.989 0 87.893-25.941 49.92-18.005 73.941-18.005 31.872 0 71.893 18.005 47.957 25.941 93.867 25.941 41.984 0 89.899-25.941 43.904-18.005 71.893-18.005t71.893 18.005q47.957 25.941 89.856 25.941 45.952 0 93.867-25.941 39.936-18.005 71.893-18.005 24.021 0 73.899 18.005 43.904 25.941 87.893 25.941 22.059 0 22.059-25.941zM61.227 394.88q64 79.872 157.867 64c15.159 30.897 39.828 55.181 70.138 69.463l0.902 0.382c21.527 11.288 47.028 17.912 74.077 17.912 8.763 0 17.363-0.695 25.749-2.033l-0.924 0.122q29.867 49.835 71.893 71.893 41.941 23.979 97.877 17.963c14.234 26.3 34.17 47.861 58.258 63.593l0.665 0.407c23.166 16.17 51.889 25.876 82.874 25.984h0.027q-72.149 97.792-198.955 122.752t-248.704-38.955q-121.856-64-175.744-180.779t-16-232.704zM1016.021 337.963c1.579-2.878 2.508-6.305 2.508-9.95 0-4.931-1.7-9.465-4.546-13.048l0.033 0.043c-5.363-7.866-13.976-13.174-23.864-13.987l-0.115-0.008q-31.915 0-71.893-15.957-59.989-22.016-93.867-21.973-41.941 0-89.856 25.941-43.989 16-71.936 16c-14.635 0-21.973 7.296-21.973 21.973s7.339 21.973 21.973 21.973q43.989 0 87.893-25.984 49.92-18.005 73.899-17.963 31.915 0 71.936 17.963 47.957 25.941 93.867 25.984c13.269 0 21.931-3.712 25.941-11.008z" />
<glyph unicode="&#xe025;" glyph-name="bf-icon-beer-glass" d="M850.005 622.933c-14.305-20.546-35.023-35.756-59.218-42.815l-0.771-0.193v-3.925h105.984c0.617 0.013 1.344 0.021 2.073 0.021 28.424 0 54.184-11.41 72.948-29.9l-0.013 0.012c19.137-18.459 31.021-44.327 31.021-72.97 0-1.062-0.016-2.12-0.049-3.174l0.004 0.154v-300.032c0.034-0.979 0.053-2.13 0.053-3.285 0-28.642-11.888-54.507-30.998-72.93l-0.031-0.030c-18.751-18.477-44.511-29.887-72.935-29.887-0.729 0-1.456 0.008-2.182 0.022l0.109-0.002h-105.984v-64c-0.52-35.135-28.865-63.48-63.951-63.999l-0.049-0.001h-556.032c-0.165-0.002-0.359-0.003-0.554-0.003-17.455 0-33.21 7.279-44.395 18.967l-0.021 0.023c-11.736 11.203-19.032 26.969-19.032 44.439 0 0.202 0.001 0.404 0.003 0.605v-0.031 580.011c-24.956 7.23-45.673 22.411-59.755 42.569l-0.234 0.354c-14.974 19.925-23.98 45.078-23.98 72.335 0 0.22 0.001 0.439 0.002 0.659v-0.034c-0.004 0.382-0.007 0.832-0.007 1.284 0 29.32 10.585 56.167 28.141 76.929l-0.145-0.176c16.945 21.305 41.452 35.965 69.402 39.912l0.572 0.066c7.822 29.303 24.374 53.995 46.662 71.812l0.271 0.209c21.442 17.44 49.087 28.003 79.198 28.003 0.657 0 1.313-0.005 1.968-0.015l-0.099 0.001q22.016 0 50.005-13.995 54.016 60.075 128 60.075t132.011-64c20.225 11.22 44.329 17.875 69.976 18.005h0.040c31.008-0.128 59.537-10.635 82.32-28.223l-0.315 0.234c24.992-18.547 44.74-42.797 57.522-70.887l0.462-1.135c30.293-2.080 57.004-15.898 75.899-36.891l0.090-0.101c18.556-20.492 29.913-47.805 29.913-77.771 0-1.159-0.017-2.314-0.051-3.465l0.004 0.169c0.002-0.249 0.003-0.543 0.003-0.838 0-27.182-8.957-52.273-24.080-72.481l0.226 0.316zM132.011 617.984q45.952 0 59.989 44.032 6.016 12.117 29.867 12.117 34.133-16.213 68.267 7.851 18.005 9.984 29.867-7.979 41.984-56.021 105.984-56.021 50.005 0 90.027 40.021c2.645 2.645 8.533 4.011 18.005 4.011 5.291 0 9.301-3.371 11.989-10.027 17.299-20.264 41.823-33.916 69.54-36.95l0.476-0.042c3.957-0.548 8.529-0.861 13.174-0.861 23.827 0 45.73 8.234 63.020 22.011l-0.205-0.158c3.295 2.504 7.466 4.011 11.989 4.011s8.694-1.507 12.039-4.047l-0.049 0.036q32-18.005 48-18.005c0.33-0.007 0.719-0.011 1.109-0.011 18.204 0 34.407 8.572 44.79 21.9l0.095 0.127q18.048 22.016 18.005 55.979c0.018 0.615 0.028 1.34 0.028 2.066 0 20.019-7.592 38.265-20.054 52.015l0.058-0.065c-11.574 13.51-28.653 22.017-47.718 22.017-0.114 0-0.228 0-0.342-0.001h-3.95q-13.995-6.016-22.016 13.995c-8.716 24.603-23.485 45.242-42.55 60.82l-0.244 0.193c-16.953 14.169-38.937 22.829-62.939 22.997h-0.037c-0.42 0.007-0.915 0.010-1.411 0.010-22.178 0-42.596-7.534-58.835-20.182l0.215 0.161c-2.645-4.011-8.533-6.016-17.963-6.016-1.365 0-5.333 3.328-12.032 10.027q-43.989 64-112 64-64.213 0-106.197-56.149-16-18.005-29.867-4.011-41.984 23.979-84.011 2.005c-26.984-13.861-46.399-39.191-51.92-69.376l-0.091-0.598c0-12.032-7.296-18.005-21.973-18.005-0.107 0.001-0.234 0.001-0.36 0.001-19.041 0-36.096-8.509-47.568-21.931l-0.072-0.086c-12.502-13.686-20.16-31.981-20.16-52.065 0-0.641 0.008-1.28 0.023-1.917l-0.002 0.094c-0.011-0.491-0.017-1.069-0.017-1.649 0-20.472 7.589-39.172 20.107-53.44l-0.079 0.092c11.37-14.073 28.627-22.997 47.968-22.997 0.011 0 0.022 0 0.033 0h-0.002zM745.984 580.011q-19.968 0-41.984 18.005c-19.961-12.604-44.25-20.083-70.286-20.083-5.891 0-11.693 0.383-17.382 1.125l0.671-0.071c-32.054 2.679-60.692 15.487-83.152 35.171l0.165-0.142q-50.048-38.016-108.032-38.016-77.952 0-131.968 59.989-40.064-16-72.149-7.979-29.867-42.027-71.979-48v-580.011q0-22.016 19.968-22.016h556.16q19.968 0 19.968 22.016zM278.016 470.016v-384c0-14.72-7.339-22.016-22.016-22.016s-22.016 7.296-22.016 22.016v384q0 19.968 22.016 19.968t22.016-19.968zM406.016 470.016v-384c0-14.72-7.339-22.016-22.016-22.016s-22.016 7.296-22.016 22.016v384q0 19.968 22.016 19.968t22.016-19.968zM534.016 470.016v-384c0-14.72-7.339-22.016-22.016-22.016s-22.016 7.296-22.016 22.016v384q0 19.968 22.016 19.968t22.016-19.968zM662.016 470.016v-384c0-14.72-7.339-22.016-22.016-22.016s-22.016 7.296-22.016 22.016v384q0 19.968 22.016 19.968t22.016-19.968zM790.016 534.016v-428.032h105.984c35.135 0.52 63.48 28.865 63.999 63.951l0.001 0.049v300.032c-0.52 35.135-28.865 63.48-63.951 63.999l-0.049 0.001z" />
<glyph unicode="&#xe026;" glyph-name="bf-icon-bell-active" d="M167.339 904.235q13.952-13.952 0-29.867-123.52-123.435-123.52-300.843 0-21.973-19.925-21.931-21.888 0-21.888 21.931 0 199.168 135.467 330.709 16.128 15.872 29.867 0zM261.205 747.819c40.318 52.959 95.296 92.873 158.873 113.895l2.321 0.665v11.947c-0.011 0.494-0.017 1.076-0.017 1.659 0 23.155 9.527 44.085 24.876 59.083l0.016 0.015c15.435 15.399 36.739 24.921 60.267 24.921s44.832-9.522 60.268-24.922l-0.002 0.002c15.959-14.847 25.91-35.966 25.91-59.41 0-0.474-0.004-0.947-0.012-1.418l0.001 0.071v-11.947c54.977-11.812 102.457-38.529 139.469-75.682l0.009-0.009q93.611-93.867 93.611-213.333v-251.051q0-31.872 29.867-67.712l113.536-119.467q23.936-19.883 9.984-45.824c-7.738-15.494-23.48-25.949-41.663-25.949-0.758 0-1.512 0.018-2.261 0.054l0.106-0.004h-259.029c-10.506-37.291-31.858-68.653-60.397-91.371l-0.36-0.277c-27.58-22.288-63.073-35.78-101.717-35.78-1.005 0-2.008 0.009-3.009 0.027l0.15-0.002c-0.557-0.007-1.216-0.011-1.875-0.011-39.814 0-76.381 13.905-105.109 37.123l0.317-0.248q-46.933 36.779-58.752 90.624h-258.944q-31.872 0-39.808 25.899c-9.301 17.28-7.339 31.189 5.973 41.856l113.536 119.467c18.432 17.822 29.876 42.773 29.876 70.397 0 0.466-0.003 0.931-0.010 1.396l0.001-0.070v238.933c-0.007 0.749-0.011 1.634-0.011 2.52 0 69.738 24.032 133.863 64.266 184.545l-0.469-0.612zM227.115 846.464q13.909-16 0-29.867-97.579-107.605-97.621-243.2 0-21.973-21.931-21.931-19.883 0-19.925 21.931 0 159.36 109.611 273.067 16.085 13.867 29.867 0zM319.744 748.843q-80.811-79.744-80.811-187.307v-238.933q0-59.733-37.845-97.621l-113.579-119.467h848.853l-113.579 119.467q-37.717 37.717-37.717 97.493v251.051q0 103.552-81.707 179.2-75.691 75.733-183.253 75.691h-8.107q-111.616 0.085-192.256-79.573zM282.88 565.376c-0.003 0.444-0.005 0.969-0.005 1.494 0 29.657 5.8 57.96 16.328 83.835l-0.536-1.489q26.027 49.792 51.968 69.717c21.572 20.019 46.572 36.741 73.952 49.131l1.739 0.704q23.936 5.973 29.867-11.989 5.931-23.851-11.989-29.867c-23.3-8.694-43.215-21.571-59.754-37.865l0.020 0.020c-18.122-16.058-32.381-36.058-41.484-58.685l-0.372-1.048q-17.92-27.904-17.92-67.755 0-21.888-21.931-21.888-19.84-0.043-19.883 25.856zM631.467 63.488h-238.933q29.867-85.632 119.467-85.632t119.467 85.632zM512 870.4h7.979c1.208 0.047 2.627 0.074 4.052 0.074 10.617 0 20.886-1.492 30.608-4.276l-0.783 0.192v4.011q0 43.776-41.856 43.819t-41.856-43.819zM868.608 705.024q-28.075 65.749-75.691 105.643-13.952 15.957 0 29.867 13.867 15.915 29.867 0 49.792-45.824 83.669-121.515c18.887-41.468 29.895-89.937 29.895-140.976 0-1.558-0.010-3.114-0.031-4.668l0.002 0.236c0-14.635-6.699-21.931-19.925-21.931q-21.931 0-21.931 21.931c0.014 1.115 0.021 2.431 0.021 3.749 0 46.091-9.517 89.959-26.694 129.746l0.816-2.125zM988.075 752.853c21.411-52.65 33.837-113.729 33.837-177.711 0-0.524-0.001-1.047-0.002-1.571v0.081q0-21.973-21.888-21.931c-13.312 0-19.925 7.296-19.925 21.931q0 63.744-29.867 161.365-25.856 63.744-93.611 139.435-13.952 15.915 0 29.867 13.867 15.872 29.867 0c39.496-43.717 73.431-93.58 99.993-147.715l1.682-3.794z" />
<glyph unicode="&#xe027;" glyph-name="bf-icon-bell-disable" d="M1016.021 952.021q15.957-15.957 0-29.867l-223.104-221.141q31.829-71.723 31.872-127.488v-247.040q0-35.925 27.861-71.723l115.541-119.467q23.936-19.883 9.984-45.824t-45.824-25.899h-258.987c-10.388-37.125-31.355-68.432-59.415-91.395l-0.319-0.253c-27.119-22.331-62.205-35.871-100.454-35.871-1.104 0-2.206 0.011-3.305 0.034l0.164-0.003c-0.404-0.003-0.882-0.005-1.361-0.005-40.272 0-77.299 13.889-106.554 37.139l0.352-0.27q-47.787 36.779-59.733 90.624h-187.349l-119.467-123.52c-2.645-2.645-7.936-3.968-15.915-3.968s-11.947 2.645-11.947 7.979q-15.957 15.957 0 29.867l87.637 89.6h-11.947q-31.872 0-39.851 25.899c-8.064 17.237-5.504 31.147 7.893 41.813l111.573 119.467c19.596 17.491 31.875 42.822 31.875 71.022 0 0.246-0.001 0.493-0.003 0.739v-0.038 238.933c-0.007 0.765-0.011 1.669-0.011 2.574 0 69.714 24.016 133.819 64.225 184.493l-0.47-0.614c39.894 52.663 94.199 92.504 157.041 113.875l2.319 0.685v11.947c-0.007 0.401-0.011 0.874-0.011 1.347 0 23.444 9.951 44.563 25.86 59.364l0.050 0.046c15.545 15.406 36.946 24.926 60.571 24.926 0.425 0 0.85-0.003 1.274-0.009l-0.064 0.001q31.787 0 57.771-24.917c15.959-14.847 25.91-35.966 25.91-59.41 0-0.474-0.004-0.947-0.012-1.418l0.001 0.071v-11.947q83.627-17.92 139.435-75.691 27.904-31.957 39.851-47.829l211.2 213.333q23.893 11.776 35.84-0.171zM139.435 105.344l597.675 599.637q-23.851 37.845-35.84 47.829-75.776 75.733-183.467 75.691h-7.979q-111.573 0-193.237-79.659t-81.493-187.307v-238.933q0-59.733-35.883-97.621l-115.541-119.467zM761.003 667.136l-561.792-561.792h733.141l-111.573 119.467q-39.979 37.888-39.979 97.664v251.051q0 37.803-19.797 93.611zM454.229 761.003c2.645-15.957-1.323-25.899-11.947-29.867-23.542-7.987-43.59-20.981-59.682-37.792l-0.051-0.054c-18.6-16.138-33.446-36.084-43.401-58.671l-0.418-1.062q-16-27.904-15.957-67.712 0-21.931-23.893-21.931c-13.312 0-19.925 7.296-19.925 21.931-0.001 0.198-0.001 0.431-0.001 0.665 0 29.788 5.83 58.214 16.411 84.2l-0.538-1.494q27.904 49.792 51.797 69.717c20.957 18.594 44.476 35.131 69.746 48.853l1.977 0.982c3.353 1.14 7.215 1.798 11.231 1.798 9.55 0 18.23-3.722 24.67-9.794l-0.018 0.017zM629.547 63.701h-238.933q27.861-85.632 117.504-85.632t121.429 85.419zM509.995 870.4h7.979c0.977 0.033 2.125 0.052 3.277 0.052 10.189 0 20.031-1.484 29.321-4.248l-0.727 0.186v4.011q0 43.776-41.856 43.819t-41.813-43.819z" />
<glyph unicode="&#xe028;" glyph-name="bf-icon-bell-sleeping" d="M239.701 747.819c41.786 53.077 98.115 92.987 162.976 113.891l2.4 0.669v11.947c-0.011 0.494-0.017 1.076-0.017 1.659 0 23.155 9.527 44.085 24.876 59.083l0.016 0.015c14.681 15.366 35.335 24.919 58.22 24.919 0.202 0 0.404-0.001 0.606-0.002h-0.031c0.471 0.010 1.026 0.015 1.583 0.015 23.186 0 44.144-9.543 59.159-24.916l0.016-0.016c15.389-15.024 24.933-35.976 24.933-59.157 0-0.563-0.006-1.124-0.017-1.684l0.001 0.084v-11.947c54.96-11.82 102.425-38.536 139.426-75.681l0.009-0.009q39.851-40.021 55.808-73.728l157.355 157.44h-247.040q-19.925 0-19.925 21.888t19.925 21.931h298.667c4.011 0 10.624-4.651 19.925-13.952 5.291-5.291 4.011-11.947-3.968-19.925l-217.173-217.131-45.653-47.872h247.040q19.925 0 19.925-19.925c0-14.635-6.656-21.888-19.925-21.888h-171.307v-251.051q0-25.856 29.867-67.712l115.541-119.467q19.883-19.883 7.979-45.824t-41.856-25.899h-258.987c-11.789-37.211-33.636-68.433-62.347-91.445l-0.373-0.289c-28.398-22.345-64.677-35.838-104.107-35.838s-75.708 13.493-104.47 36.113l0.363-0.275c-29.391 22.784-51.112 54.198-61.438 90.416l-0.3 1.232h-259.115q-29.867 0-41.856 25.899t7.979 45.824l111.573 119.467q27.904 25.856 27.861 67.712v238.933c-0.004 0.556-0.006 1.214-0.006 1.872 0 70.291 24.868 134.773 66.286 185.129l-0.403-0.505zM280.533 729.899q-64.683-74.667-70.699-168.363v-238.933c0.019-0.83 0.029-1.808 0.029-2.789 0-37.144-15.262-70.724-39.857-94.81l-0.023-0.022-109.568-119.467h850.688l-111.573 119.467q-37.888 37.845-37.845 97.621v250.923h-81.707q-7.936 0-19.925 11.947c-5.291 6.613-3.968 13.952 4.011 21.888l71.723 71.723q-16 33.877-55.808 73.728-59.733 59.733-135.467 71.723c-12.076 2.574-25.95 4.047-40.168 4.047-1.989 0-3.971-0.029-5.946-0.086l0.29 0.007q-43.776 0-59.733-3.968c-63.949-13.718-118.466-47.458-158.080-94.222l-0.341-0.413zM259.627 565.547c-0.009 0.713-0.015 1.555-0.015 2.397 0 29.494 6.612 57.443 18.435 82.447l-0.5-1.175c12.668 27.132 29.417 50.241 49.745 69.632l0.090 0.085c21.268 19.337 45.515 35.963 71.849 49.012l1.837 0.823q18.005 5.973 33.877-11.989c4.011-15.915-0.683-25.899-13.952-29.867-23.171-9.096-43.019-21.914-59.806-37.914l0.073 0.069c-17.785-16.307-31.973-36.228-41.442-58.63l-0.414-1.103c-11.269-19.39-17.92-42.671-17.92-67.505 0-0.088 0-0.175 0-0.263v0.014q0-21.888-19.925-21.888-21.931-0.043-21.931 25.856zM563.456 1.749c20.99 15.006 36.704 36.2 44.568 60.896l0.232 0.842h-237.056c8.11-25.542 23.838-46.736 44.482-61.494l0.361-0.245c19.839-14.92 44.89-23.894 72.036-23.894 0.175 0 0.349 0 0.524 0.001h-0.027c0.528-0.008 1.15-0.013 1.774-0.013 27.499 0 52.902 8.97 73.444 24.144l-0.338-0.238zM458.837 902.016c-7.423-7.748-11.993-18.281-11.993-29.881 0-0.7 0.017-1.397 0.050-2.089l-0.004 0.098v-4.011c13.973 2.75 30.038 4.323 46.472 4.323 1.873 0 3.74-0.020 5.603-0.061l-0.278 0.005c0.753 0.016 1.641 0.026 2.531 0.026 11.143 0 21.942-1.473 32.212-4.235l-0.866 0.198v4.011q0 43.776-43.819 43.819c-0.327 0.009-0.712 0.015-1.098 0.015-11.264 0-21.456-4.59-28.808-12.002l-0.003-0.003z" />
<glyph unicode="&#xe029;" glyph-name="bf-icon-bell-time" d="M948.053 821.803q75.947-75.947 75.947-179.883c0.018-1.131 0.029-2.465 0.029-3.801 0-66.799-26.281-127.46-69.067-172.207l0.089 0.093c-42.145-46.553-101.722-76.651-168.35-79.935l-0.568-0.022v-59.989q0-29.867 27.947-67.968l116.053-119.936q22.016-22.016 7.979-45.995-11.989-25.984-41.984-25.984h-259.84c-10.71-37.529-32.55-68.991-61.674-91.475l-0.406-0.301c-27.847-22.412-63.641-35.973-102.603-35.973-0.469 0-0.937 0.002-1.404 0.006h0.072c-79.669 0.275-146.77 53.764-167.634 126.766l-0.302 1.234h-259.669q-31.915 0-37.973 25.984-11.947 25.984 8.021 45.995l111.915 119.936q29.867 23.979 29.867 67.968v239.616q0 131.968 93.867 215.893 61.952 64 135.936 81.963v11.989c-0.032 0.848-0.051 1.843-0.051 2.843 0 21.894 8.8 41.734 23.056 56.173l-0.008-0.008c15.096 14.223 35.495 22.963 57.935 22.963 23.451 0 44.673-9.546 59.991-24.964l0.004-0.004c15.542-15.092 25.186-36.184 25.186-59.529 0-0.507-0.005-1.013-0.014-1.517l0.001 0.076v-8.021c22.472-3.781 42.57-11.47 60.478-22.395l-0.744 0.422c42.163 34.847 96.772 55.984 156.318 55.984 0.544 0 1.088-0.002 1.632-0.005h-0.083q104.064 0 180.053-75.989zM780.117 228.096c-23.534 25.199-37.983 59.144-37.983 96.463 0 0.587 0.004 1.173 0.011 1.759l-0.001-0.089v59.819q-95.957 9.984-162.944 83.925t-66.944 171.947q0 99.883 64 169.899c-28.745 13.802-62.48 21.91-98.097 22.016h-0.036q-111.829 5.931-203.776-81.963-81.963-72.021-81.963-185.941v-239.872q0-59.947-37.973-98.133l-111.744-119.765h853.333zM414.293 765.867q6.016-24.021-11.989-29.867c-23.49-8.447-43.54-21.411-59.98-37.964l-0.009-0.009c-18.416-16.396-33.256-36.373-43.497-58.885l-0.45-1.104c-10.095-18.997-16.022-41.537-16.022-65.462 0-0.881 0.008-1.761 0.024-2.638l-0.002 0.132c0-14.677-7.339-21.973-22.016-21.973s-21.973 7.296-21.973 21.973c0.517 30.455 7.091 59.243 18.563 85.393l-0.557-1.425c12.164 27.82 29.795 51.223 51.69 69.744l0.278 0.23c20.233 20.361 44.071 37.111 70.48 49.219l1.499 0.616c3.236 1.213 6.977 1.915 10.881 1.915 9.076 0 17.265-3.793 23.070-9.881l0.012-0.013zM543.232 4.267c21.062 15.063 36.832 36.328 44.738 61.106l0.233 0.846h-237.867c8.138-25.624 23.909-46.889 44.61-61.707l0.361-0.245c20.274-14.988 45.765-23.989 73.359-23.989 0.565 0 1.129 0.004 1.692 0.011l-0.085-0.001c0.186-0.001 0.405-0.002 0.625-0.002 27.257 0 52.411 9.006 72.647 24.205l-0.312-0.224zM478.251 875.776c1.229 0.048 2.673 0.075 4.122 0.075 10.679 0 21.013-1.476 30.81-4.235l-0.799 0.192v3.968c0.031 0.609 0.048 1.321 0.048 2.038 0 11.634-4.587 22.196-12.052 29.977l0.014-0.015c-7.393 7.414-17.618 12-28.914 12-0.335 0-0.669-0.004-1.003-0.012l0.049 0.001q-43.989 0-43.989-43.989zM916.053 489.984c34.211 33.557 56.957 78.695 61.884 129.058l0.068 0.862h-18.005q-22.016 0-22.016 22.016t22.016 21.973h17.963c-5.030 49.911-26.983 93.924-59.949 126.936l0.002-0.002c-32.944 33.872-77.484 56.316-127.197 60.911l-0.803 0.060v-17.963c0-14.72-7.339-22.016-21.973-22.016s-21.973 7.296-21.973 22.016v17.963c-49.902-4.958-93.932-26.84-126.984-59.741l0.008 0.008c-33.872-32.944-56.316-77.484-60.911-127.197l-0.060-0.803h18.005c14.677 0 21.973-7.339 21.973-21.973s-7.296-22.016-21.973-22.016h-21.888c13.096-97.961 89.772-174.638 186.618-187.611l1.115-0.122v18.005c0 14.635 7.296 21.973 21.973 21.973s22.016-7.339 22.016-21.973v-22.016c51.251 4.883 96.45 27.531 130.066 61.629l0.024 0.025zM874.069 565.931q16-16 0-29.867c-2.688-2.688-7.979-4.011-16-4.011-9.301 0-15.317 1.323-17.963 4.011l-89.984 87.851c0.009 0.15 0.015 0.326 0.015 0.503 0 2.108-0.764 4.037-2.030 5.525l0.010-0.012c-1.136 0.97-1.877 2.375-1.962 3.954l-0.001 0.014v93.867c0 13.312 7.296 20.011 21.973 20.011s21.973-6.699 21.973-20.011v-77.867z" />
<glyph unicode="&#xe02a;" glyph-name="bf-icon-bell" d="M259.285 747.819c40.36 52.984 95.4 92.904 159.044 113.897l2.322 0.663v11.947c-0.011 0.497-0.017 1.084-0.017 1.671 0 23.159 9.545 44.089 24.917 59.069l0.018 0.017c15.031 15.389 35.988 24.932 59.174 24.932 0.557 0 1.112-0.005 1.666-0.016l-0.083 0.001c0.032 0 0.070 0 0.108 0 23.325 0 44.425-9.53 59.617-24.909l0.008-0.008c15.959-14.847 25.91-35.966 25.91-59.41 0-0.474-0.004-0.947-0.012-1.418l0.001 0.071v-11.947c54.96-11.82 102.425-38.536 139.426-75.681l0.009-0.009q93.611-93.867 93.653-213.333v-251.051q0-31.872 29.867-67.712l113.579-119.467q23.851-19.883 9.941-45.824c-7.727-15.494-23.461-25.95-41.637-25.95-0.767 0-1.53 0.019-2.288 0.055l0.107-0.004h-258.987c-10.54-37.277-31.884-68.63-60.4-91.372l-0.358-0.276c-27.606-22.288-63.123-35.779-101.791-35.779-0.979 0-1.957 0.009-2.932 0.026l0.146-0.002c-0.557-0.007-1.216-0.011-1.875-0.011-39.814 0-76.381 13.905-105.109 37.123l0.317-0.248q-46.933 36.779-58.752 90.624h-258.901q-31.872 0-39.851 25.899c-9.259 17.28-7.296 31.189 5.973 41.856l113.536 119.467c18.432 17.822 29.876 42.773 29.876 70.397 0 0.466-0.003 0.931-0.010 1.396l0.001-0.070v238.933c-0.007 0.749-0.011 1.634-0.011 2.52 0 69.738 24.032 133.863 64.266 184.545l-0.469-0.612zM318.037 748.843q-80.64-79.744-80.683-187.307v-238.933q0-59.733-37.845-97.621l-113.536-119.467h848.683l-113.579 119.467q-37.845 37.845-37.845 97.621v250.923q0 103.552-81.664 179.2-75.776 75.733-183.467 75.691h-7.808q-111.531 0.085-192.256-79.573zM281.216 565.376c-0.001 0.254-0.002 0.555-0.002 0.855 0 29.829 5.846 58.292 16.455 84.307l-0.538-1.493q25.856 49.963 51.797 69.888c21.572 20.019 46.572 36.741 73.952 49.131l1.739 0.704q23.936 5.973 29.867-11.989 5.931-23.851-11.947-29.867c-23.302-8.688-43.218-21.565-59.753-37.865l0.020 0.019c-18.122-16.058-32.381-36.058-41.484-58.685l-0.372-1.048q-17.92-27.904-17.92-67.755 0-21.888-21.888-21.888c-13.312-0.043-19.925 8.576-19.925 25.856zM629.845 63.317h-238.933q29.867-85.632 119.467-85.632t119.467 85.803zM510.293 870.4h7.979c1.208 0.047 2.627 0.074 4.052 0.074 10.617 0 20.886-1.492 30.608-4.276l-0.783 0.192v4.011q0 43.776-41.856 43.819t-41.813-43.819z" />
<glyph unicode="&#xe02b;" glyph-name="bf-icon-bicycle" d="M962.005 471.979q61.995-61.952 61.995-151.979t-61.995-151.979q-61.995-61.995-152.021-62.037c-0.999-0.018-2.178-0.028-3.36-0.028-57.502 0-109.453 23.767-146.564 62.014l-0.049 0.051q-61.995 61.952-61.995 151.979c-0.014 0.886-0.022 1.932-0.022 2.98 0 42.899 13.081 82.742 35.471 115.76l-0.463-0.724c23.008 34.103 54.564 60.834 91.641 77.445l1.372 0.549-34.133 101.973h-354.133l-40.021-101.973c38.61-17.325 70.213-44.43 92.515-78.216l0.498-0.803c22.076-32.5 35.246-72.602 35.246-115.78 0-0.426-0.001-0.852-0.004-1.277v0.065q0-89.984-61.995-151.979c-37.175-38.298-89.136-62.064-146.649-62.064-1.169 0-2.335 0.010-3.499 0.029l0.175-0.002q-90.027 0-152.021 62.037t-61.995 151.979q0 89.984 61.995 151.979t152.021 62.037c8.33-0.227 16.273-0.949 24.061-2.139l-1.064 0.134c6.758-1.084 14.702-1.806 22.777-2.001l0.22-0.004 37.973 118.016c3.284 8.29 11.231 14.045 20.523 14.045 0.526 0 1.047-0.018 1.563-0.055l-0.070 0.004h354.133l-29.867 83.968h-68.267q-22.016 0-22.016 22.016t22.016 22.016h192c23.639-0.042 44.938-10.022 59.949-25.984l0.040-0.043c16.040-15.028 26.034-36.342 26.034-59.989s-9.994-44.961-25.988-59.947l-0.045-0.042c-15.040-16.021-36.347-26.007-59.986-26.027h-34.137l29.867-87.979c8.295 0.199 16.239 0.921 24.020 2.137l-1.023-0.132c6.727 1.059 14.67 1.78 22.738 2l0.259 0.006q90.325 0 152.277-62.037zM290.133 473.984l-56.021-162.133c-2.825-8.208-10.481-14-19.489-14-0.168 0-0.336 0.002-0.504 0.006h-10.13q-18.005 7.979-11.989 26.027l55.979 162.133c-9.439 2.538-20.277 3.997-31.455 3.997-0.942 0-1.881-0.010-2.818-0.031l0.14 0.002c-0.498 0.005-1.085 0.008-1.674 0.008-46.655 0-88.84-19.137-119.134-49.989l-0.025-0.025c-31.52-30.325-51.1-72.865-51.1-119.979s19.58-89.654 51.046-119.927l0.054-0.051c30.293-30.878 72.456-50.016 119.089-50.016 0.673 0 1.345 0.004 2.016 0.012l-0.102-0.001c0.671-0.010 1.462-0.016 2.255-0.016 46.206 0 87.936 19.162 117.678 49.973l0.046 0.048c30.859 29.788 50.021 71.518 50.021 117.724 0 0.793-0.006 1.585-0.017 2.375l0.001-0.12q0 103.979-93.867 153.984zM406.016 745.984q19.968 0 19.968-19.968c0-14.72-6.656-22.016-19.968-22.016h-172.032c-13.312 0-19.968 7.296-19.968 22.016q0 19.968 19.968 19.968zM982.016 320c0.006 0.514 0.009 1.121 0.009 1.729 0 46.594-19.654 88.597-51.124 118.171l-0.085 0.079c-30.332 30.879-72.529 50.015-119.195 50.015-0.636 0-1.27-0.004-1.904-0.011l0.097 0.001c-0.797 0.018-1.737 0.029-2.679 0.029-11.178 0-22.016-1.458-32.333-4.195l0.878 0.198 55.979-162.133q9.984-18.048-11.989-26.027h-10.027c-0.143-0.004-0.31-0.006-0.479-0.006-9.009 0-16.664 5.792-19.446 13.856l-0.043 0.145-52.011 162.133q-97.664-50.005-97.664-153.984c0.386-93.724 76.26-169.598 169.947-169.984h0.037c0.558-0.007 1.218-0.011 1.878-0.011 46.644 0 88.819 19.138 119.099 49.99l0.025 0.026c31.455 29.642 51.040 71.579 51.040 118.091 0 0.664-0.004 1.326-0.012 1.988l0.001-0.101zM722.005 662.016h45.995q41.984 0 41.984 41.984t-41.984 41.984h-75.989z" />
<glyph unicode="&#xe02c;" glyph-name="bf-icon-billiard" d="M0 448q0 211.968 150.016 361.984t361.984 150.016 361.984-150.016 150.016-361.984q0-212.011-150.016-361.984t-361.984-150.016q-211.968 0-361.984 150.016t-150.016 361.984zM41.984 448q0-192 139.008-331.008t331.008-139.008 331.008 139.008 139.008 331.008-139.008 331.008-331.008 139.008-331.008-139.008-139.008-331.008zM180.011 448q0 137.984 96.981 235.008t235.008 96.981q137.984 0 235.008-96.981t96.981-235.008q0-137.984-96.981-235.008t-235.008-96.981q-137.984 0-235.008 96.981t-96.981 235.008zM221.867 448q0-121.984 84.011-205.995t206.123-84.139q121.984 0 205.995 84.011t84.139 206.123q0 119.979-84.992 204.8t-205.141 85.333q-119.979 0-204.8-85.333t-85.333-204.8zM448 448q-45.995 34.133-45.995 89.984c-0.007 0.454-0.011 0.99-0.011 1.527 0 30.161 12.747 57.344 33.148 76.456l0.058 0.054c19.683 19.768 46.919 32 77.013 32s57.331-12.232 77.009-31.996l0.004-0.004c20.334-19.152 32.996-46.254 32.996-76.313 0-0.606-0.005-1.212-0.015-1.816l0.001 0.091q0-52.053-45.995-89.984 45.995-34.133 45.995-89.984c0.010-0.529 0.015-1.153 0.015-1.779 0-30.042-12.663-57.127-32.943-76.208l-0.054-0.050c-19.683-19.768-46.919-32-77.013-32s-57.331 12.232-77.009 31.996l-0.004 0.004c-20.333 19.131-32.996 46.216-32.996 76.258 0 0.626 0.005 1.25 0.016 1.873l-0.001-0.094q-0.213 55.851 45.781 89.984zM512 470.016c0.056 0 0.122 0 0.189 0 37.467 0 67.84 30.373 67.84 67.84 0 18.812-7.657 35.836-20.025 48.125l-0.004 0.004c-12.301 12.385-29.339 20.051-48.168 20.051-37.491 0-67.883-30.392-67.883-67.883 0-18.829 7.666-35.867 20.047-48.164l0.004-0.004c11.918-12.324 28.601-19.975 47.071-19.975 0.326 0 0.652 0.002 0.978 0.007l-0.049-0.001zM443.989 358.016c0-0.038 0-0.083 0-0.128 0-37.491 30.392-67.883 67.883-67.883 18.809 0 35.831 7.65 48.125 20.008l0.003 0.003c12.208 12.271 19.755 29.19 19.755 47.872 0 37.491-30.392 67.883-67.883 67.883-37.446 0-67.81-30.319-67.883-67.748v-0.007z" />
<glyph unicode="&#xe02d;" glyph-name="bf-icon-binoculars" d="M985.984 361.984c23.826-34.898 38.045-78.004 38.045-124.431 0-1.255-0.010-2.508-0.031-3.758l0.002 0.188q0-96-68.992-164.992t-164.992-68.992-166.016 68.992-70.016 164.992v192h-83.968v-192q0-96-70.016-164.992t-166.016-68.992-164.992 68.992-68.992 164.992c-0.018 1.062-0.029 2.314-0.029 3.569 0 46.427 14.219 89.532 38.54 125.2l-0.495-0.769 131.968 394.027c2.051 0.365 3.802 1.446 5.022 2.97l0.013 0.016 4.992 4.992c14.489 11.26 30.925 21.24 48.457 29.234l1.548 0.632 18.005 42.027q27.989 60.117 89.984 60.117c0.295 0.004 0.644 0.006 0.994 0.006 25.267 0 48.022-10.756 63.936-27.938l0.052-0.057c16.688-16.66 27.011-39.69 27.011-65.132 0-0.262-0.001-0.524-0.003-0.786v0.040-16c4.676-4.513 9.925-8.485 15.612-11.782l0.388-0.207c5.304-3 9.889-6.321 14.063-10.088l-0.069 0.061c6.039-3.435 10.045-9.827 10.045-17.154 0-0.299-0.007-0.597-0.020-0.894l0.001 0.042v-64h83.968v64c-0.013 0.269-0.021 0.584-0.021 0.9 0 7.314 4.009 13.691 9.95 17.054l0.097 0.051c8.352 8.949 18.245 16.332 29.276 21.753l0.591 0.263v16c-0.003 0.259-0.004 0.566-0.004 0.872 0 25.442 10.324 48.473 27.011 65.132l0.001 0.001c15.951 17.165 38.652 27.87 63.854 27.87 0.441 0 0.882-0.003 1.322-0.010l-0.066 0.001q67.968 0 89.984-59.989l18.005-42.027c19.080-8.626 35.516-18.607 50.568-30.287l-0.563 0.42c6.656 0 10.027-2.688 10.027-7.979zM425.984 233.984q0 82.005-54.997 137.003t-137.003 54.997c-0.942 0.017-2.054 0.027-3.167 0.027-52.008 0-99.009-21.441-132.645-55.966l-0.039-0.040c-34.582-34.884-55.95-82.914-55.95-135.936s21.369-101.052 55.964-135.95l-0.014 0.014c33.658-34.591 80.66-56.051 132.673-56.051 1.162 0 2.322 0.011 3.479 0.032l-0.174-0.003c0.937-0.017 2.043-0.027 3.151-0.027 52.035 0 99.058 21.458 132.703 56.007l0.039 0.041c34.565 33.675 56.006 80.675 56.006 132.683 0 1.114-0.010 2.225-0.029 3.334l0.002-0.167zM256 361.984q0-19.968-22.016-19.968c-0.456 0.007-0.995 0.011-1.534 0.011-28.789 0-54.804-11.881-73.408-31.007l-0.023-0.024c-19.174-18.952-31.048-45.253-31.048-74.327 0-0.87 0.011-1.737 0.032-2.601l-0.002 0.128q0-19.968-22.016-19.968-19.968 0-19.968 19.968c-0.011 0.656-0.017 1.431-0.017 2.207 0 40.729 16.854 77.521 43.968 103.783l0.038 0.037c25.925 27.004 62.324 43.782 102.643 43.782 0.47 0 0.939-0.002 1.408-0.007l-0.072 0.001q22.016 0 22.016-22.016zM425.984 372.011v366.123c-28.798 19.456-64.293 31.058-102.497 31.058-1.931 0-3.855-0.030-5.772-0.089l0.28 0.007c-40.573-0.375-78.003-13.528-108.539-35.621l0.55 0.379-104.021-303.872q62.037 39.979 128 40.021 121.984 0 192-98.005zM281.984 806.016q61.995 5.973 106.027-4.011c0.020 0.553 0.032 1.202 0.032 1.854 0 13.425-4.852 25.717-12.897 35.218l0.066-0.080c-8.533 9.984-20.992 15.019-36.992 15.019q-34.133 0-48-34.133zM470.016 640v-86.016h83.968v86.016zM553.984 470.016v41.984h-83.968v-41.984zM598.016 371.883q69.973 98.133 192 98.133 66.005 0 128-40.021l-104.021 303.872c-30.009 21.626-67.445 34.692-107.918 34.986h-0.071c-1.746 0.059-3.799 0.093-5.86 0.093-38.049 0-73.411-11.508-102.794-31.233l0.664 0.42zM982.016 233.856c0.001 0.241 0.002 0.527 0.002 0.812 0 105.591-85.598 191.189-191.189 191.189-0.286 0-0.571-0.001-0.856-0.002h0.044q-82.048 0-137.003-54.997t-54.997-137.003c-0.001-0.241-0.002-0.527-0.002-0.812 0-105.591 85.598-191.189 191.189-191.189 0.286 0 0.571 0.001 0.856 0.002h-0.044c0.216-0.001 0.471-0.001 0.727-0.001 105.638 0 191.275 85.637 191.275 191.275 0 0.256-0.001 0.511-0.002 0.766v-0.040zM738.133 806.016l-4.267 13.995q-13.995 34.133-48 34.133c-13.94-0.054-26.429-6.215-34.94-15.946l-0.047-0.054c-9.182-9.234-14.866-21.956-14.891-36.006v-0.005c18.971 3.985 40.77 6.267 63.102 6.267 13.761 0 27.32-0.866 40.625-2.548l-1.583 0.163zM810.112 361.984q0-19.968-19.968-19.968c-0.616 0.013-1.341 0.020-2.068 0.020-58.533 0-105.984-47.451-105.984-105.984 0-0.727 0.007-1.453 0.022-2.177l-0.002 0.108q0-19.968-19.968-19.968c-14.72 0-22.016 6.656-22.016 19.968 0.097 82.768 67.131 149.846 149.872 150.016h0.016q19.968 0 19.968-22.016z" />
<glyph unicode="&#xe02e;" glyph-name="bf-icon-boat" d="M55.979-8.021c-34.567 33.675-56.009 80.677-56.009 132.686 0 1.173 0.011 2.343 0.033 3.51l-0.003-0.175v86.016c0 13.312 7.296 19.968 22.016 19.968h361.984v86.016h-278.016q-9.984 0-16 11.989c-1.278 3.268-2.019 7.051-2.019 11.008s0.741 7.74 2.091 11.22l-0.072-0.212 298.027 597.973 4.011 4.011h3.968c0 2.688 3.328 4.011 10.027 4.011 0.139 0.019 0.299 0.030 0.462 0.030 1.956 0 3.541-1.586 3.541-3.541 0-0.176-0.013-0.349-0.038-0.519l0.002 0.019c5.333 0 8.021-1.323 8.021-4.011l469.973-597.845q10.027-6.016 4.011-22.016c0-7.979-5.973-11.989-18.005-11.989h-448v-86.016h576q22.016 0 22.016-19.968 0-116.011-81.067-197.077t-197.035-81.067h-553.899c-0.992-0.019-2.162-0.030-3.335-0.030-52.010 0-99.011 21.442-132.647 55.969l-0.039 0.040zM41.984 128c-0.010-0.648-0.016-1.412-0.016-2.178 0-40.732 16.872-77.524 44.008-103.768l0.040-0.039c26.282-27.177 63.074-44.048 103.806-44.048 0.766 0 1.53 0.006 2.293 0.018l-0.115-0.001h553.984c1.093-0.019 2.383-0.030 3.676-0.030 60.077 0 114.732 23.218 155.48 61.169l-0.137-0.127c42.652 38.416 71.049 91.933 76.728 152.065l0.072 0.938h-939.819zM384 361.984v488.021l-244.011-488.021zM832 361.984l-406.016 516.011v-516.011z" />
<glyph unicode="&#xe02f;" glyph-name="bf-icon-bolt" d="M788.736 507.989l-324.011-560c-4.495-7.244-12.405-11.995-21.425-11.995-0.193 0-0.385 0.002-0.577 0.007l0.029-0.001h-8.021q-18.005 6.016-18.005 25.984l42.027 392.149h-203.989q-6.016 0-18.005 7.979-6.016 16-4.011 22.016l183.979 557.867q8.021 18.005 22.016 18.005h233.984c12.032 0 18.005-2.688 18.005-8.021 4.011-10.667 5.333-17.963 4.011-21.973l-128-388.139h200.021q15.915 0 21.973-11.989c4.011-10.581 4.011-17.877 0-21.888zM728.747 493.995h-192q-7.979 0-18.005 9.984c-5.333 9.344-6.699 16.043-4.011 20.011l128 390.016h-183.979l-170.027-512h200.021q7.936 0 18.005-9.984c2.645-2.688 4.011-8.021 4.011-16.043l-34.133-311.979z" />
<glyph unicode="&#xe030;" glyph-name="bf-icon-book" d="M896 937.984q0-19.968-22.016-19.968h-640c-0.158 0.001-0.345 0.002-0.532 0.002-17.47 0-33.235-7.296-44.416-19.008l-0.023-0.024c-11.735-11.203-19.032-26.969-19.032-44.439 0-0.187 0.001-0.374 0.003-0.561v0.029c-0.002-0.176-0.003-0.384-0.003-0.593 0-17.464 7.297-33.224 19.008-44.398l0.024-0.023c11.193-11.71 26.936-18.99 44.38-18.99 0.208 0 0.415 0.001 0.622 0.003h639.968q22.016 0 22.016-22.016v-768c-0.474-35.154-28.846-63.526-63.955-64h-640.045c-0.167-0.002-0.363-0.003-0.561-0.003-17.466 0-33.233 7.278-44.432 18.967l-0.021 0.022c-11.711 11.22-18.989 26.986-18.989 44.453 0 0.197 0.001 0.394 0.003 0.591v-0.030 854.016q0 45.952 29.867 76.117t76.117 29.867h640q22.016 0 22.016-22.016zM169.984 768v-768q0-22.016 22.016-22.016h64v768h-22.016q-32 0-64 22.016zM896 854.016c0-14.72-7.339-22.016-22.016-22.016h-640c-13.312 0-19.968 7.296-19.968 22.016q0 19.968 19.968 19.968h640q22.016 0 22.016-19.968zM854.016 0v745.984h-556.032v-768h534.016q22.016 0 22.016 22.016z" />
<glyph unicode="&#xe031;" glyph-name="bf-icon-bookmarks" d="M854.016 937.984v-979.968c0-8.021-4.693-13.995-13.995-18.005 0-2.688-2.688-4.011-8.021-4.011-0.381-0.032-0.825-0.050-1.273-0.050-4.119 0-7.878 1.54-10.733 4.075l0.017-0.014-308.011 205.995-308.011-205.995c-3.968-4.011-10.667-4.011-20.011 0-9.301 0-13.995 5.973-13.995 18.005v979.968q0 22.016 22.016 22.016h640q22.016 0 22.016-22.016zM809.984 918.016h-595.968v-922.027l285.867 192c3.295 2.504 7.466 4.011 11.989 4.011s8.694-1.507 12.039-4.047l-0.049 0.036 285.867-192zM263.851 587.989c-5.205 4.011-7.851 11.307-7.851 22.144 4.667 7.311 10.695 13.338 17.773 17.866l0.232 0.139 151.979 20.011 64 131.968c4.61 6.107 11.854 10.012 20.011 10.012s15.401-3.906 19.965-9.949l0.046-0.063 68.011-131.968 151.979-26.027c0.054 0.001 0.118 0.001 0.182 0.001 8.013 0 14.882-4.898 17.777-11.863l0.047-0.127c0-10.709-1.323-18.005-4.011-22.016l-112-101.973 26.027-144q0-18.048-8.021-22.016c-2.855-2.519-6.628-4.057-10.761-4.057-0.432 0-0.861 0.017-1.285 0.050l0.056-0.004c-0.185-0.015-0.401-0.023-0.619-0.023-2.071 0-3.963 0.769-5.406 2.037l0.009-0.008c-0.981 1.13-2.376 1.878-3.947 2.004l-0.021 0.001-136.021 67.883-136.021-68.011q-7.979-8.021-21.973 0-7.979 3.968-8.021 22.016l26.027 144zM319.829 587.989l86.187-75.989c4.899-5.304 7.904-12.421 7.904-20.24 0-0.625-0.019-1.245-0.057-1.861l0.004 0.084-11.989-109.995 105.984 56.021c0 2.645 2.688 3.968 8.021 3.968 1.598-0.123 3.004-0.854 4.006-1.958l0.004-0.005c0.957-1.161 2.366-1.919 3.954-2.005l0.014-0.001 107.989-56.021-21.717 109.995c-0.029 0.492-0.045 1.067-0.045 1.646 0 7.881 3.053 15.049 8.040 20.387l-0.016-0.017 85.888 75.989-119.979 17.877c-6.186 3.247-11.478 7.246-16.024 11.97l-0.019 0.020-55.979 104.149-52.011-104.021c-3.968-7.851-9.344-12.117-16-12.117z" />
<glyph unicode="&#xe032;" glyph-name="bf-icon-bowling" d="M957.44 537.387q131.115-272.213 3.968-580.011c-2.778-8.155-10.37-13.916-19.308-13.916-0.187 0-0.374 0.003-0.56 0.008l0.027-0.001h-268.16c-0.171-0.005-0.373-0.008-0.575-0.008-8.938 0-16.531 5.762-19.266 13.774l-0.042 0.143c-8.405 11.832-14.631 25.835-17.754 40.972l-0.123 0.713q-101.291-59.733-212.523-59.733-174.933 0-298.965 124.117t-124.16 299.221q0 174.933 124.16 299.947t298.965 125.056q150.912 0 280.064-103.296 5.973 83.456-3.968 145.067-11.904 47.616 21.845 89.344 29.867 37.717 83.413 37.717c0.429 0.006 0.936 0.010 1.443 0.010 28.77 0 54.88-11.39 74.066-29.907l-0.032 0.030c20.444-19.090 33.79-45.555 35.779-75.132l0.019-0.345c-0.045-4.272-0.776-8.359-2.087-12.176l0.081 0.272c-1.116-2.935-1.837-6.329-2.003-9.868l-0.003-0.074c-5.51-24.073-8.667-51.717-8.667-80.098 0-43.888 7.551-86.012 21.423-125.145l-0.809 2.619 7.936-33.621q3.968-23.893 25.813-55.68zM623.744 36.821q-69.547 276.096 33.749 496.512 3.968 15.872 19.883 59.733l9.941 27.776c2.49 3.817 3.971 8.49 3.971 13.508 0 0.141-0.001 0.282-0.003 0.422v-0.021q-113.28 109.227-268.16 109.269-158.976 0-270.165-111.232t-111.232-270.123q0-156.928 112.213-269.141t269.184-112.256q103.253-0.085 200.619 55.552zM212.565 299.008c0.001-0.155 0.002-0.337 0.002-0.52 0-17.356-7.247-33.020-18.88-44.13l-0.024-0.022c-11.333-11.663-27.168-18.9-44.693-18.9s-33.36 7.237-44.679 18.885l-0.014 0.015c-11.642 11.344-18.863 27.175-18.863 44.693s7.221 33.35 18.85 44.68l0.013 0.013c11.353 11.707 27.228 18.973 44.8 18.973s33.447-7.266 44.785-18.957l0.015-0.016c11.532-11.156 18.692-26.771 18.692-44.057 0-0.231-0.001-0.462-0.004-0.692v0.035zM168.832 299.008q0 21.803-19.84 21.845c-14.592 0-21.845-7.296-21.845-21.845 0-13.227 7.253-19.84 21.845-19.84q19.84 0 19.84 19.84zM339.499 130.176c-0.474-34.918-28.655-63.099-63.528-63.573h-0.045c-0.078 0-0.17-0.001-0.262-0.001-35.111 0-63.573 28.463-63.573 63.573s28.463 63.573 63.573 63.573c17.652 0 33.624-7.194 45.143-18.811l0.004-0.004c11.632-11.136 18.862-26.789 18.862-44.13 0-0.22-0.001-0.441-0.003-0.661v0.034zM381.227 299.008c0-0.084 0.001-0.183 0.001-0.282 0-34.899-28.291-63.189-63.189-63.189-17.594 0-33.508 7.19-44.965 18.793l-0.006 0.007c-11.389 11.485-18.426 27.3-18.426 44.759 0 34.974 28.241 63.351 63.163 63.572h0.021c34.918-0.474 63.099-28.655 63.573-63.528v-0.045zM295.893 130.176c0 14.549-6.656 21.845-19.883 21.845-14.592 0-21.845-7.296-21.845-21.845s7.253-21.845 21.845-21.845c13.312 0 19.968 7.253 19.968 21.845zM339.584 299.008q0 21.803-21.845 21.845c-14.592 0-21.845-7.296-21.845-21.845 0-13.227 7.253-19.84 21.845-19.84s21.931 6.699 21.931 19.84zM963.413 113.28q15.872 70.528 8.917 185.728c-4.531 79.301-23.448 153.095-54.175 220.363l1.567-3.83c-1.925 2.497-3.317 5.506-3.947 8.785l-0.021 0.132c-0.737 3.419-2.133 6.428-4.055 9.023l0.044-0.063h-208.555c-1.896-2.523-3.282-5.539-3.944-8.818l-0.024-0.142c-0.714-3.402-2.097-6.4-4.011-8.979l0.043 0.061q-105.344-224.512-25.6-482.688c5.23-20.124 11.341-37.317 18.735-53.809l-0.858 2.14h236.373c14.411 36.234 28 80.389 38.306 125.791l1.204 6.305zM889.899 575.147v3.968l-11.904 33.749v3.968h-148.992v-3.968l-7.936-33.749zM744.832 833.365c6.933-25.93 10.916-55.7 10.916-86.4s-3.982-60.47-11.459-88.821l0.543 2.421h127.104q-17.877 81.408 0 172.8v13.909c0.010 0.427 0.015 0.931 0.015 1.436 0 17.956-7.097 34.255-18.638 46.244l0.020-0.021c-11.718 12.283-28.213 19.92-46.491 19.92-0.771 0-1.538-0.014-2.302-0.040l0.111 0.003c-19.84 0-36.437-8.533-49.664-25.813q-21.973-21.888-10.069-55.637z" />
<glyph unicode="&#xe033;" glyph-name="bf-icon-bracket-symbols" d="M157.867 89.984q0-43.989 33.024-77.995t76.8-34.133q22.016 0 22.016-19.968c0-14.72-7.339-22.016-22.016-22.016-0.796-0.015-1.735-0.024-2.676-0.024-43.004 0-81.801 18.007-109.264 46.893l-0.060 0.064c-28.398 27.833-46.002 66.588-46.002 109.454 0 0.52 0.003 1.039 0.008 1.558l-0.001-0.079v332.245h-67.712q-19.968 0-19.968 22.016t19.968 22.016h68.011v332.117c-0.015 0.796-0.024 1.735-0.024 2.676 0 43.004 18.007 81.801 46.893 109.264l0.064 0.060c27.881 28.325 66.636 45.875 109.491 45.875 0.552 0 1.104-0.003 1.654-0.009l-0.084 0.001q22.144 0 22.144-22.016 0-19.968-22.016-19.968c-0.814 0.023-1.772 0.037-2.733 0.037-30.263 0-57.452-13.161-76.156-34.072l-0.086-0.098c-19.392-20.875-31.291-48.943-31.291-79.79 0-0.689 0.006-1.376 0.018-2.062l-0.001 0.103zM1001.856 452.011q0-22.016-19.968-22.016h-67.883v-331.861c0.015-0.785 0.023-1.712 0.023-2.64 0-43.015-18.007-81.824-46.893-109.301l-0.063-0.060c-27.846-28.398-66.612-46.001-109.49-46.001-0.508 0-1.014 0.002-1.521 0.007l0.077-0.001c-14.677 0-22.016 7.296-22.016 21.973 0 13.312 7.339 20.011 22.016 20.011q43.989 0 76.8 34.133t33.195 77.611v712.149q0 43.989-33.024 77.995t-76.8 34.133q-22.443-0.128-22.443 19.84 0 22.016 22.144 22.016c0.775 0.014 1.688 0.022 2.604 0.022 43.026 0 81.846-18.006 109.337-46.893l0.059-0.063c28.4-27.892 46-66.698 46-109.614 0-0.464-0.002-0.927-0.006-1.39v0.071-331.989h68.011q19.968-0.128 19.968-18.133z" />
<glyph unicode="&#xe034;" glyph-name="bf-icon-bread-slice" d="M1024 704q0-52.011-34.133-98.133-89.984-102.016-89.984-226.133v-379.733c-0.52-35.135-28.865-63.48-63.951-63.999l-0.049-0.001h-643.883c-0.582-0.020-1.267-0.032-1.954-0.032-17.343 0-32.981 7.297-44.013 18.989l-0.028 0.030c-11.138 11.402-18.010 27.014-18.010 44.231 0 0.275 0.002 0.55 0.005 0.824v-0.042 379.989q0 118.016-89.984 226.133-38.016 43.861-38.016 97.877 0 108.032 148.011 182.016t363.989 73.984q216.021 0 363.989-73.984t148.011-182.016zM982.016 704q0 87.979-139.008 150.997t-331.008 63.019-331.008-63.019-139.008-150.997q0-32 29.867-72.021 98.133-119.936 98.133-251.989v-379.989q0-22.016 22.016-22.016h640q22.016 0 22.016 22.016v379.989q0 132.011 98.133 251.989 29.867 39.979 29.867 72.021zM401.067 294.997c15.442-15.078 25.019-36.104 25.019-59.367 0-0.579-0.006-1.157-0.018-1.733l0.001 0.086c-0.755-46.068-37.9-83.213-83.897-83.967l-0.071-0.001c-0.56-0.014-1.22-0.021-1.882-0.021-23.201 0-44.172 9.545-59.201 24.923l-0.015 0.016c-15.418 14.695-25.006 35.388-25.006 58.32 0 0.257 0.001 0.513 0.004 0.77v-0.039c-0.002 0.204-0.003 0.444-0.003 0.685 0 47.128 38.205 85.333 85.333 85.333 0.241 0 0.482-0.001 0.722-0.003h-0.037c0.185 0.002 0.403 0.002 0.622 0.002 22.966 0 43.694-9.586 58.4-24.974l0.029-0.031zM426.069 553.984c0.001-0.134 0.002-0.292 0.002-0.45 0-35.134-28.482-63.616-63.616-63.616-17.796 0-33.886 7.307-45.431 19.085l-0.010 0.010c-11.514 11.514-18.636 27.422-18.636 44.992 0 35.141 28.487 63.628 63.628 63.628 17.57 0 33.478-7.122 44.992-18.636v0c11.711-11.22 18.989-26.986 18.989-44.453 0-0.197-0.001-0.394-0.003-0.591v0.030zM372.096 204.117c7.414 7.393 12 17.618 12 28.914 0 0.335-0.004 0.669-0.012 1.003l0.001-0.049c0.031 0.609 0.048 1.321 0.048 2.038 0 11.634-4.587 22.196-12.052 29.977l0.014-0.015c-7.378 7.438-17.603 12.043-28.903 12.043-0.339 0-0.677-0.004-1.014-0.012l0.050 0.001q-44.032 0-44.032-44.032c-0.007-0.287-0.011-0.625-0.011-0.964 0-11.3 4.605-21.525 12.041-28.9l0.003-0.003c7.76-7.45 18.317-12.038 29.945-12.038 0.723 0 1.441 0.018 2.155 0.053l-0.101-0.004c0.296-0.008 0.645-0.012 0.995-0.012 11.233 0 21.406 4.536 28.788 11.875l-0.002-0.002zM384.085 553.984q-0.085 22.016-22.101 22.016-19.968 0-19.968-22.016 0-19.968 19.968-19.968 22.016 0 22.016 19.968zM598.101 233.984c-0.408-0.007-0.89-0.012-1.373-0.012-23.54 0-44.744 10.002-59.594 25.987l-0.047 0.051c-15.439 15.313-24.998 36.535-24.998 59.989s9.558 44.677 24.992 59.984l0.006 0.006c14.925 16.037 36.151 26.037 59.714 26.037 0.457 0 0.913-0.004 1.368-0.011l-0.069 0.001c0.076 0 0.165 0 0.255 0 23.249 0 44.159-10.013 58.653-25.962l0.058-0.065c15.439-15.313 24.998-36.535 24.998-59.989s-9.558-44.677-24.992-59.984l-0.006-0.006c-14.531-16.013-35.423-26.028-58.654-26.028-0.139 0-0.279 0-0.418 0.001h0.021zM640 320q0 41.984-41.984 41.984-44.032 0-44.032-41.984t44.032-41.984q41.984 0 41.984 41.984zM768 681.984c0.001-0.143 0.002-0.311 0.002-0.48 0-35.346-28.654-64-64-64s-64 28.654-64 64c0 17.792 7.26 33.888 18.979 45.488l0.005 0.005c11.557 11.439 27.461 18.507 45.015 18.507 35.178 0 63.726-28.381 63.998-63.494v-0.026zM768 86.016c0.004-0.274 0.007-0.597 0.007-0.921 0-35.865-29.074-64.939-64.939-64.939s-64.939 29.074-64.939 64.939c0 35.865 29.074 64.939 64.939 64.939 17.946 0 34.191-7.279 45.945-19.046l0.001-0.001c11.71-11.207 18.989-26.961 18.989-44.416 0-0.195-0.001-0.39-0.003-0.584v0.030zM726.016 681.984q0 22.016-22.016 22.016t-22.016-22.016q0-19.968 22.016-19.968t22.016 19.968zM726.016 86.016q0 19.968-22.016 19.968t-22.016-19.968c0-14.72 7.339-22.016 22.016-22.016s22.016 7.296 22.016 22.016z" />
<glyph unicode="&#xe035;" glyph-name="bf-icon-bread" d="M1024 376.277q0-125.483-195.243-141.44h-531.925q-87.765-0.171-123.52 9.941-173.312 15.915-173.312 135.467 0 103.595 127.488 187.221c2.645 1.28 6.997 3.285 12.8 5.973s10.283 4.608 12.8 5.973q143.787 81.92 356.907 81.92t356.608-81.664q151.424-77.867 157.397-203.392zM978.176 384.256q0 85.632-111.573 153.387c-4.666-25.607-11.573-48.318-20.73-69.84l0.805 2.128c-3.969-8.28-12.266-13.907-21.882-13.952h-7.985q-15.957 15.915-9.984 29.867 18.005 39.851 17.963 71.723c-42.848 19.983-92.821 36.508-144.954 47.087l-4.379 0.742c1.498-15.37 2.353-33.226 2.353-51.282 0-29.712-2.314-58.883-6.771-87.343l0.407 3.158c-5.291-11.989-12.8-17.963-21.888-17.963h-4.011q-21.888 7.936-15.915 25.899c4.032 25.26 6.335 54.383 6.335 84.044 0 18.121-0.86 36.041-2.541 53.721l0.173-2.256c-36.372 4.434-79.218 7.299-122.606 7.926l-0.914 0.010h-11.947c7.606-43.238 11.954-93.023 11.954-143.823 0-1.262-0.003-2.524-0.008-3.785l0.001 0.194q0-21.931-21.888-21.931c-13.312 0-19.925 7.296-19.925 21.931q3.968 55.765-13.952 143.445-97.749-8.021-139.563-20.011 25.941-103.595 25.899-145.451c0-14.635-7.296-21.888-21.888-21.888s-21.931 7.253-21.931 21.888c-4.251 48.748-12.659 93.526-25.004 136.641l1.239-5.057c-37.555-7.296-70.961-20.448-100.996-38.614l1.369 0.769c-1.939-2.281-4.746-3.775-7.904-3.966l-0.032-0.002q13.909-29.867 21.888-97.621 7.936-25.899-17.92-25.899h-3.968c-13.312 0-19.925 5.973-19.925 17.92q-11.989 61.696-17.963 79.701-85.76-57.856-85.76-135.509 0-81.664 131.456-93.611 29.867-4.011 115.541-4.011h531.925q157.397 6.016 157.397 101.632z" />
<glyph unicode="&#xe036;" glyph-name="bf-icon-briefcase" d="M1005.013 706.987c11.711-11.213 18.989-26.974 18.989-44.434 0-0.189-0.001-0.377-0.003-0.565v0.029-252.032c0-10.667-4.011-17.963-11.989-21.973-2.763-1.395-6.081-2.755-9.511-3.866l-0.515-0.144c-3.968-1.323-7.68-2.688-10.965-4.011s-6.357-2.688-9.003-4.011v-269.995c-0.543-35.126-28.874-63.457-63.949-63.999l-0.051-0.001h-812.032c-0.169-0.002-0.369-0.003-0.568-0.003-17.459 0-33.213 7.297-44.379 19.008l-0.023 0.024c-11.735 11.176-19.032 26.919-19.032 44.366 0 0.213 0.001 0.425 0.003 0.637v-0.032 266.027c-2.688 1.323-5.675 2.645-9.003 3.968s-6.997 2.688-10.965 4.011c-3.977 1.289-7.294 2.647-10.489 4.216l0.463-0.205c-7.979 4.011-11.989 11.307-11.989 22.016v256c-0.001 0.159-0.002 0.348-0.002 0.536 0 17.46 7.278 33.221 18.967 44.413l0.022 0.021c11.23 11.736 27.019 19.031 44.511 19.031 0.177 0 0.353-0.001 0.529-0.002h277.989v64c-0.001 0.159-0.002 0.348-0.002 0.536 0 17.46 7.278 33.221 18.967 44.413l0.022 0.021c11.217 11.736 26.994 19.032 44.475 19.032 0.189 0 0.378-0.001 0.567-0.003h211.939c0.149 0.001 0.326 0.002 0.502 0.002 17.493 0 33.281-7.295 44.49-19.009l0.022-0.023c11.711-11.213 18.989-26.974 18.989-44.434 0-0.189-0.001-0.377-0.003-0.565v0.029-64h278.016c0.138 0.001 0.302 0.002 0.466 0.002 17.504 0 33.304-7.294 44.526-19.009l0.021-0.022zM982.016 662.016q0 19.968-22.016 19.968h-896q-22.016 0-22.016-19.968v-240c2.763-1.395 6.081-2.755 9.511-3.866l0.515-0.144c3.968-1.365 7.637-2.688 11.008-4.011s6.315-2.688 9.003-4.011q147.968-52.011 354.133-64v16q0 22.016 22.016 22.016h128q22.016 0 22.016-22.016v-19.968c127.834 3.625 249.081 26.773 362.503 66.557l-8.37-2.557c2.688 1.28 5.675 2.645 9.003 3.968s7.040 2.688 11.008 4.011c3.945 1.256 7.264 2.615 10.45 4.201l-0.423-0.191zM937.984 361.984q-146.005-50.005-339.968-59.989v-23.979c0-14.72-7.339-22.016-22.016-22.016h-128c-14.677 0-22.016 7.296-22.016 22.016v19.968q-193.963 16-339.968 60.032v-252.032q0-19.968 19.968-19.968h812.032q19.968 0 19.968 19.968zM384 726.016h256v64q0 19.968-22.016 19.968h-211.968c-14.72 0-22.016-6.656-22.016-19.968zM553.984 297.984v44.032h-83.968v-44.032z" />
<glyph unicode="&#xe037;" glyph-name="bf-icon-broom" d="M1000.064 957.909c6.602-0.252 12.554-2.848 17.088-6.974l-0.022 0.019q13.867-16 0-29.867l-450.773-446.763c15.733-19.53 25.253-44.642 25.253-71.977 0-3.094-0.122-6.16-0.361-9.192l0.025 0.401c-1.723-30.233-14.749-57.127-34.878-76.777l-0.023-0.023-15.957-18.091-233.216-352.811q-11.989-8.021-17.963-7.979c-3.261 0.102-6.326 0.83-9.115 2.067l0.155-0.061c-2.035 0.972-4.398 1.678-6.882 1.993l-0.115 0.012-269.312 269.184c-2.645 2.688-3.968 7.979-3.968 15.957q0 6.016 7.979 17.963l352.981 233.301 21.931 21.973c19.474 19.342 46.172 31.433 75.692 31.871l0.084 0.001c2.225 0.14 4.825 0.219 7.443 0.219 27.923 0 53.733-9.043 74.662-24.361l-0.356 0.249 442.709 446.677c3.666 2.094 8.056 3.328 12.735 3.328 1.485 0 2.94-0.124 4.357-0.363l-0.153 0.021zM502.528 308.821l-127.616 127.616-319.061-213.333 229.333-229.333zM307.2 298.667l-119.765-117.504c-2.645-3.968-8.533-5.973-17.92-5.973-7.979 0-13.312 2.005-15.957 5.973q-13.952 13.952 0 29.867l119.509 117.504q13.952 18.005 27.947 0 14.037-9.771 6.187-29.867zM394.923 210.901l-117.589-119.467c-2.688-2.688-8.533-3.968-17.963-3.968-7.979 0-13.312 1.28-15.957 3.968q-16 13.952 0 29.867l117.547 117.632q15.957 15.915 29.867 0 16-11.904 4.011-27.861zM554.453 403.371c0.008 0.403 0.013 0.878 0.013 1.355 0 20.337-8.439 38.703-22.007 51.787l-0.022 0.021-13.952 13.995c-13.512 13.549-32.198 21.933-52.843 21.933s-39.331-8.383-52.841-21.931l-4.013-4.013 119.68-119.467 3.968 3.968c13.534 13.104 21.935 31.438 21.935 51.735 0 0.277-0.002 0.553-0.005 0.829v-0.042z" />
<glyph unicode="&#xe038;" glyph-name="bf-icon-bullhorn" d="M1005.013 898.005c11.751-12.094 18.997-28.62 18.997-46.839 0-0.408-0.004-0.816-0.011-1.222l0.001 0.061v-640c0.021-0.583 0.032-1.267 0.032-1.955 0-18.522-8.558-35.044-21.936-45.829l-0.113-0.088c-6.656-10.709-20.651-16-41.984-16-18.134 0.036-34.468 7.711-45.963 19.976l-0.032 0.035q-150.016 151.808-466.005 187.989l105.984-349.867q0-12.032-3.968-16c-3.002-5.935-9.023-9.949-15.99-10.027h-172.042q-16 0-16 10.027l-192 373.973c-43.918 6.169-82.047 27.254-109.861 57.877l-0.134 0.15c-27.261 29.074-44.006 68.295-44.006 111.426 0 0.817 0.006 1.633 0.018 2.447l-0.001-0.123c-0.009 0.649-0.015 1.416-0.015 2.183 0 46.228 19.16 87.981 49.973 117.75l0.047 0.045c29.801 30.859 71.543 50.020 117.759 50.020 0.78 0 1.559-0.005 2.337-0.016l-0.118 0.001h150.016q187.989 0 345.984 51.2t248.021 140.8q22.016 22.016 45.995 22.016c0.051 0 0.112 0 0.173 0 17.782 0 33.765-7.704 44.792-19.956l0.048-0.055zM79.147 441.984c22.63-22.26 53.697-36.004 87.974-36.004 1.052 0 2.101 0.013 3.147 0.039l-0.155-0.003h128v256h-128c-0.791 0.018-1.723 0.029-2.658 0.029-34.575 0-65.838-14.181-88.289-37.045l-0.018-0.019c-22.957-22.481-37.189-53.794-37.189-88.43 0-0.891 0.009-1.78 0.028-2.667l-0.002 0.132q0-56.149 37.035-92.032zM406.144 358.016c-22.608 2.579-48.809 4.051-75.354 4.051-3.794 0-7.581-0.030-11.361-0.090l0.57 0.007h-119.979l175.957-339.968h128zM982.144 854.016q0 19.968-22.016 19.968c-7.040-0.564-13.316-3.446-18.157-7.872l0.023 0.021q-91.989-93.867-249.984-148.011t-349.867-55.979v-256q11.989 0 36.992-2.005c16.64-1.365 29.867-2.005 38.997-2.005h4.011q349.867-28.032 519.979-201.984c4.702-4.501 10.89-7.483 17.757-8.14l0.121-0.009c0.665-0.049 1.442-0.076 2.224-0.076 5.793 0 11.233 1.515 15.944 4.171l-0.163-0.084c0.333 2.601 1.039 4.962 2.067 7.142l-0.061-0.144c1.27 3.165 2.007 6.835 2.007 10.676 0 0.117-0.001 0.233-0.002 0.349v-0.018zM836.011 708.011q11.989-20.011-8.021-29.867-77.952-32.171-123.989-46.165c-36.667-11.782-83.74-23.602-131.74-32.815l-8.249-1.318h-6.016c-13.312 0-20.011 5.291-20.011 16-0.449 1.847-0.707 3.967-0.707 6.147 0 4.299 1.001 8.363 2.783 11.974l-0.071-0.159c2.36 4.903 7.29 8.227 12.996 8.227 0.351 0 0.7-0.013 1.045-0.037l-0.046 0.003q40.021 3.968 132.011 29.867 29.867 7.979 120.021 45.995 11.989 10.112 29.995-7.851z" />
<glyph unicode="&#xe039;" glyph-name="bf-icon-bus" d="M41.984 345.984v550.016c-0.002 0.16-0.002 0.349-0.002 0.538 0 17.481 7.296 33.258 19.008 44.453l0.023 0.022c11.234 11.711 27.011 18.989 44.489 18.989 0.17 0 0.339-0.001 0.508-0.002h812.006c0.138 0.001 0.301 0.002 0.464 0.002 17.483 0 33.266-7.277 44.486-18.967l0.020-0.021c11.737-11.244 19.031-27.044 19.031-44.547 0-0.164-0.001-0.327-0.002-0.491v0.025-809.984c-0.52-35.135-28.865-63.48-63.951-63.999l-0.049-0.001h-22.016v-22.016c-0.474-35.154-28.846-63.526-63.955-64h-86.061c-35.135 0.52-63.48 28.865-63.999 63.951l-0.001 0.049v22.016h-339.968v-22.016c-0.52-35.135-28.865-63.48-63.951-63.999l-0.049-0.001h-86.016c-0.167-0.002-0.363-0.003-0.561-0.003-17.466 0-33.233 7.278-44.432 18.967l-0.021 0.022c-11.711 11.22-18.989 26.986-18.989 44.453 0 0.197 0.001 0.394 0.003 0.591v-0.030 22.016h-22.016c-0.165-0.002-0.359-0.003-0.554-0.003-17.455 0-33.21 7.279-44.395 18.967l-0.021 0.023c-11.735 11.196-19.032 26.956-19.032 44.421 0 0.208 0.001 0.416 0.003 0.624v-0.032 259.968zM86.016 896v-64h256v86.016h-236.032q-19.968 0-19.968-22.016zM86.016 790.016v-428.032h851.968v428.032zM937.984 86.016v233.984h-851.968v-233.984c0-14.72 6.656-22.016 19.968-22.016h812.032c13.312 0 19.968 7.296 19.968 22.016zM273.067 251.989c15.439-15.313 24.998-36.535 24.998-59.989s-9.558-44.677-24.992-59.984l-0.006-0.006c-14.531-16.013-35.423-26.027-58.654-26.027-0.109 0-0.219 0-0.328 0.001h0.017c-0.408-0.007-0.89-0.012-1.373-0.012-23.54 0-44.744 10.002-59.594 25.987l-0.047 0.051c-15.439 15.313-24.998 36.535-24.998 59.989s9.558 44.677 24.992 59.984l0.006 0.006c14.925 16.037 36.151 26.037 59.714 26.037 0.457 0 0.913-0.004 1.368-0.011l-0.069 0.001c0.076 0 0.165 0 0.255 0 23.249 0 44.159-10.013 58.653-25.962l0.058-0.065zM256 192q0 41.984-41.984 41.984-44.032 0-44.032-41.984t44.032-41.984q41.984 0 41.984 41.984zM297.984 22.016h-128v-22.016q0-22.016 22.016-22.016h86.016q19.968 0 19.968 22.016zM640 832v86.016h-256v-86.016zM918.016 918.016h-236.032v-86.016h256v64q0 22.016-19.968 22.016zM871.083 251.989c15.439-15.313 24.998-36.535 24.998-59.989s-9.558-44.677-24.992-59.984l-0.006-0.006c-14.897-16.037-36.101-26.038-59.641-26.038-0.483 0-0.964 0.004-1.445 0.013l0.072-0.001c-0.104 0-0.226-0.001-0.349-0.001-23.22 0-44.1 10.015-58.557 25.961l-0.059 0.066c-15.439 15.313-24.998 36.535-24.998 59.989s9.558 44.677 24.992 59.984l0.006 0.006c14.545 16.014 35.449 26.027 58.692 26.027 0.096 0 0.192 0 0.288-0.001h-0.015c0.361 0.006 0.788 0.009 1.215 0.009 23.562 0 44.788-9.999 59.667-25.986l0.046-0.050zM854.016 22.016h-128v-22.016q0-22.016 19.968-22.016h86.016q22.016 0 22.016 22.016zM854.016 192q0 41.984-44.032 41.984-41.984 0-41.984-41.984t41.984-41.984q43.989 0 44.032 41.984z" />
</font>
</defs>
</svg>
